<?xml version="1.0" encoding="UTF-8" standalone="no"?>
<!DOCTYPE svg PUBLIC "-//W3C//DTD SVG 1.1//EN"
 "http://www.w3.org/Graphics/SVG/1.1/DTD/svg11.dtd">
<!-- Generated by graphviz version 2.43.0 (0)
 -->
<!-- Title: G Pages: 1 -->
<svg width="2080pt" height="1435pt"
 viewBox="0.00 0.00 2080.20 1434.99" xmlns="http://www.w3.org/2000/svg" xmlns:xlink="http://www.w3.org/1999/xlink">
<g id="graph0" class="graph" transform="scale(1 1) rotate(0) translate(21.6 1413.39)">
<title>G</title>
<polygon fill="#111111" stroke="transparent" points="-21.6,21.6 -21.6,-1413.39 2058.6,-1413.39 2058.6,21.6 -21.6,21.6"/>
<!-- ../constants/appConstants.ts -->
<g id="node1" class="node">
<title>../constants/appConstants.ts</title>
<path fill="none" stroke="#c6c5fe" d="M1597.33,-833.5C1597.33,-833.5 1425.67,-833.5 1425.67,-833.5 1421.83,-833.5 1418,-829.67 1418,-825.83 1418,-825.83 1418,-818.17 1418,-818.17 1418,-814.33 1421.83,-810.5 1425.67,-810.5 1425.67,-810.5 1597.33,-810.5 1597.33,-810.5 1601.17,-810.5 1605,-814.33 1605,-818.17 1605,-818.17 1605,-825.83 1605,-825.83 1605,-829.67 1601.17,-833.5 1597.33,-833.5"/>
<text text-anchor="middle" x="1511.5" y="-818.3" font-family="Arial" font-size="14.00" fill="#c6c5fe">../constants/appConstants.ts</text>
</g>
<!-- ../constants/riskConstants.ts -->
<g id="node2" class="node">
<title>../constants/riskConstants.ts</title>
<path fill="none" stroke="#cfffac" d="M2029.33,-833.5C2029.33,-833.5 1859.67,-833.5 1859.67,-833.5 1855.83,-833.5 1852,-829.67 1852,-825.83 1852,-825.83 1852,-818.17 1852,-818.17 1852,-814.33 1855.83,-810.5 1859.67,-810.5 1859.67,-810.5 2029.33,-810.5 2029.33,-810.5 2033.17,-810.5 2037,-814.33 2037,-818.17 2037,-818.17 2037,-825.83 2037,-825.83 2037,-829.67 2033.17,-833.5 2029.33,-833.5"/>
<text text-anchor="middle" x="1944.5" y="-818.3" font-family="Arial" font-size="14.00" fill="#cfffac">../constants/riskConstants.ts</text>
</g>
<!-- ../constants/appConstants.ts&#45;&gt;../constants/riskConstants.ts -->
<g id="edge1" class="edge">
<title>../constants/appConstants.ts&#45;&gt;../constants/riskConstants.ts</title>
<path fill="none" stroke="#757575" d="M1605.23,-822C1674.67,-822 1769.64,-822 1841.28,-822"/>
<polygon fill="#757575" stroke="#757575" points="1841.68,-825.5 1851.68,-822 1841.68,-818.5 1841.68,-825.5"/>
</g>
<!-- ../constants/uiConstants.ts -->
<g id="node3" class="node">
<title>../constants/uiConstants.ts</title>
<path fill="none" stroke="#cfffac" d="M1808.33,-966.5C1808.33,-966.5 1648.67,-966.5 1648.67,-966.5 1644.83,-966.5 1641,-962.67 1641,-958.83 1641,-958.83 1641,-951.17 1641,-951.17 1641,-947.33 1644.83,-943.5 1648.67,-943.5 1648.67,-943.5 1808.33,-943.5 1808.33,-943.5 1812.17,-943.5 1816,-947.33 1816,-951.17 1816,-951.17 1816,-958.83 1816,-958.83 1816,-962.67 1812.17,-966.5 1808.33,-966.5"/>
<text text-anchor="middle" x="1728.5" y="-951.3" font-family="Arial" font-size="14.00" fill="#cfffac">../constants/uiConstants.ts</text>
</g>
<!-- ../constants/appConstants.ts&#45;&gt;../constants/uiConstants.ts -->
<g id="edge2" class="edge">
<title>../constants/appConstants.ts&#45;&gt;../constants/uiConstants.ts</title>
<path fill="none" stroke="#757575" d="M1531.2,-833.57C1569.24,-857.1 1655.77,-910.63 1700.15,-938.08"/>
<polygon fill="#757575" stroke="#757575" points="1698.34,-941.08 1708.69,-943.36 1702.02,-935.12 1698.34,-941.08"/>
</g>
<!-- ../types/cia.ts -->
<g id="node4" class="node">
<title>../types/cia.ts</title>
<path fill="none" stroke="#c6c5fe" d="M1768.33,-1140.5C1768.33,-1140.5 1688.67,-1140.5 1688.67,-1140.5 1684.83,-1140.5 1681,-1136.67 1681,-1132.83 1681,-1132.83 1681,-1125.17 1681,-1125.17 1681,-1121.33 1684.83,-1117.5 1688.67,-1117.5 1688.67,-1117.5 1768.33,-1117.5 1768.33,-1117.5 1772.17,-1117.5 1776,-1121.33 1776,-1125.17 1776,-1125.17 1776,-1132.83 1776,-1132.83 1776,-1136.67 1772.17,-1140.5 1768.33,-1140.5"/>
<text text-anchor="middle" x="1728.5" y="-1125.3" font-family="Arial" font-size="14.00" fill="#c6c5fe">../types/cia.ts</text>
</g>
<!-- ../constants/appConstants.ts&#45;&gt;../types/cia.ts -->
<g id="edge3" class="edge">
<title>../constants/appConstants.ts&#45;&gt;../types/cia.ts</title>
<path fill="none" stroke="#757575" d="M1520.67,-833.66C1552.99,-879.82 1672.25,-1050.1 1713.41,-1108.89"/>
<polygon fill="#757575" stroke="#757575" points="1710.72,-1111.15 1719.33,-1117.33 1716.46,-1107.13 1710.72,-1111.15"/>
</g>
<!-- ../types/cia.ts&#45;&gt;../constants/riskConstants.ts -->
<g id="edge9" class="edge">
<title>../types/cia.ts&#45;&gt;../constants/riskConstants.ts</title>
<path fill="none" stroke="#757575" d="M1737.63,-1117.34C1769.8,-1071.18 1888.5,-900.9 1929.48,-842.11"/>
<polygon fill="#757575" stroke="#757575" points="1932.52,-843.88 1935.36,-833.67 1926.77,-839.87 1932.52,-843.88"/>
</g>
<!-- ../constants/coreConstants.ts -->
<g id="node5" class="node">
<title>../constants/coreConstants.ts</title>
<path fill="none" stroke="#c6c5fe" d="M1374.33,-1234.5C1374.33,-1234.5 1198.67,-1234.5 1198.67,-1234.5 1194.83,-1234.5 1191,-1230.67 1191,-1226.83 1191,-1226.83 1191,-1219.17 1191,-1219.17 1191,-1215.33 1194.83,-1211.5 1198.67,-1211.5 1198.67,-1211.5 1374.33,-1211.5 1374.33,-1211.5 1378.17,-1211.5 1382,-1215.33 1382,-1219.17 1382,-1219.17 1382,-1226.83 1382,-1226.83 1382,-1230.67 1378.17,-1234.5 1374.33,-1234.5"/>
<text text-anchor="middle" x="1286.5" y="-1219.3" font-family="Arial" font-size="14.00" fill="#c6c5fe">../constants/coreConstants.ts</text>
</g>
<!-- ../constants/coreConstants.ts&#45;&gt;../types/cia.ts -->
<g id="edge4" class="edge">
<title>../constants/coreConstants.ts&#45;&gt;../types/cia.ts</title>
<path fill="none" stroke="#757575" d="M1357.85,-1211.45C1422.42,-1200.44 1520.59,-1182.65 1605,-1163 1629.72,-1157.25 1656.94,-1149.8 1679.44,-1143.35"/>
<polygon fill="#757575" stroke="#757575" points="1680.46,-1146.69 1689.09,-1140.55 1678.51,-1139.97 1680.46,-1146.69"/>
</g>
<!-- ../constants/testIds.ts -->
<g id="node6" class="node">
<title>../constants/testIds.ts</title>
<path fill="none" stroke="#c6c5fe" d="M1350.33,-662.5C1350.33,-662.5 1222.67,-662.5 1222.67,-662.5 1218.83,-662.5 1215,-658.67 1215,-654.83 1215,-654.83 1215,-647.17 1215,-647.17 1215,-643.33 1218.83,-639.5 1222.67,-639.5 1222.67,-639.5 1350.33,-639.5 1350.33,-639.5 1354.17,-639.5 1358,-643.33 1358,-647.17 1358,-647.17 1358,-654.83 1358,-654.83 1358,-658.67 1354.17,-662.5 1350.33,-662.5"/>
<text text-anchor="middle" x="1286.5" y="-647.3" font-family="Arial" font-size="14.00" fill="#c6c5fe">../constants/testIds.ts</text>
</g>
<!-- ../constants/testIds.ts&#45;&gt;../constants/appConstants.ts -->
<g id="edge5" class="edge">
<title>../constants/testIds.ts&#45;&gt;../constants/appConstants.ts</title>
<path fill="none" stroke="#757575" d="M1302.83,-662.75C1341.19,-692.17 1441.55,-769.12 1487.24,-804.16"/>
<polygon fill="#757575" stroke="#757575" points="1485.29,-807.08 1495.36,-810.39 1489.55,-801.53 1485.29,-807.08"/>
</g>
<!-- ../hooks/useCIAOptions.ts -->
<g id="node7" class="node">
<title>../hooks/useCIAOptions.ts</title>
<path fill="none" stroke="#c6c5fe" d="M1105.83,-1354.5C1105.83,-1354.5 948.17,-1354.5 948.17,-1354.5 944.33,-1354.5 940.5,-1350.67 940.5,-1346.83 940.5,-1346.83 940.5,-1339.17 940.5,-1339.17 940.5,-1335.33 944.33,-1331.5 948.17,-1331.5 948.17,-1331.5 1105.83,-1331.5 1105.83,-1331.5 1109.67,-1331.5 1113.5,-1335.33 1113.5,-1339.17 1113.5,-1339.17 1113.5,-1346.83 1113.5,-1346.83 1113.5,-1350.67 1109.67,-1354.5 1105.83,-1354.5"/>
<text text-anchor="middle" x="1027" y="-1339.3" font-family="Arial" font-size="14.00" fill="#c6c5fe">../hooks/useCIAOptions.ts</text>
</g>
<!-- ../hooks/useCIAOptions.ts&#45;&gt;../constants/riskConstants.ts -->
<g id="edge6" class="edge">
<title>../hooks/useCIAOptions.ts&#45;&gt;../constants/riskConstants.ts</title>
<path fill="none" stroke="#757575" d="M1072.6,-1354.54C1105.16,-1362.34 1150.49,-1371.94 1191,-1376 1375.16,-1394.45 1438.67,-1412.18 1605,-1331 1716.03,-1276.81 1744.59,-1250.83 1816,-1150 1888.35,-1047.85 1926.56,-899.11 1938.93,-843.79"/>
<polygon fill="#757575" stroke="#757575" points="1942.42,-844.25 1941.13,-833.73 1935.58,-842.76 1942.42,-844.25"/>
</g>
<!-- ../hooks/useCIAOptions.ts&#45;&gt;../types/cia.ts -->
<g id="edge7" class="edge">
<title>../hooks/useCIAOptions.ts&#45;&gt;../types/cia.ts</title>
<path fill="none" stroke="#757575" d="M1097.75,-1354.56C1212.94,-1369.85 1445.99,-1384.38 1605,-1285 1659.49,-1250.95 1699.62,-1183.67 1717.38,-1149.68"/>
<polygon fill="#757575" stroke="#757575" points="1720.56,-1151.15 1721.98,-1140.65 1714.32,-1147.98 1720.56,-1151.15"/>
</g>
<!-- ../styles/gridStyles.ts -->
<g id="node8" class="node">
<title>../styles/gridStyles.ts</title>
<path fill="none" stroke="#cfffac" d="M284.33,-887.5C284.33,-887.5 159.67,-887.5 159.67,-887.5 155.83,-887.5 152,-883.67 152,-879.83 152,-879.83 152,-872.17 152,-872.17 152,-868.33 155.83,-864.5 159.67,-864.5 159.67,-864.5 284.33,-864.5 284.33,-864.5 288.17,-864.5 292,-868.33 292,-872.17 292,-872.17 292,-879.83 292,-879.83 292,-883.67 288.17,-887.5 284.33,-887.5"/>
<text text-anchor="middle" x="222" y="-872.3" font-family="Arial" font-size="14.00" fill="#cfffac">../styles/gridStyles.ts</text>
</g>
<!-- ../types/businessImpact.ts -->
<g id="node9" class="node">
<title>../types/businessImpact.ts</title>
<path fill="none" stroke="#c6c5fe" d="M1105.83,-127.5C1105.83,-127.5 948.17,-127.5 948.17,-127.5 944.33,-127.5 940.5,-123.67 940.5,-119.83 940.5,-119.83 940.5,-112.17 940.5,-112.17 940.5,-108.33 944.33,-104.5 948.17,-104.5 948.17,-104.5 1105.83,-104.5 1105.83,-104.5 1109.67,-104.5 1113.5,-108.33 1113.5,-112.17 1113.5,-112.17 1113.5,-119.83 1113.5,-119.83 1113.5,-123.67 1109.67,-127.5 1105.83,-127.5"/>
<text text-anchor="middle" x="1027" y="-112.3" font-family="Arial" font-size="14.00" fill="#c6c5fe">../types/businessImpact.ts</text>
</g>
<!-- ../types/businessImpact.ts&#45;&gt;../constants/riskConstants.ts -->
<g id="edge8" class="edge">
<title>../types/businessImpact.ts&#45;&gt;../constants/riskConstants.ts</title>
<path fill="none" stroke="#757575" d="M1113.81,-118.63C1189.03,-124.31 1299.02,-141.02 1382,-189 1665.76,-353.09 1881.44,-712.04 1932.14,-801.49"/>
<polygon fill="#757575" stroke="#757575" points="1929.2,-803.39 1937.15,-810.39 1935.3,-799.96 1929.2,-803.39"/>
</g>
<!-- ../types/widgets.ts -->
<g id="node10" class="node">
<title>../types/widgets.ts</title>
<path fill="none" stroke="#c6c5fe" d="M1081.33,-1112.5C1081.33,-1112.5 972.67,-1112.5 972.67,-1112.5 968.83,-1112.5 965,-1108.67 965,-1104.83 965,-1104.83 965,-1097.17 965,-1097.17 965,-1093.33 968.83,-1089.5 972.67,-1089.5 972.67,-1089.5 1081.33,-1089.5 1081.33,-1089.5 1085.17,-1089.5 1089,-1093.33 1089,-1097.17 1089,-1097.17 1089,-1104.83 1089,-1104.83 1089,-1108.67 1085.17,-1112.5 1081.33,-1112.5"/>
<text text-anchor="middle" x="1027" y="-1097.3" font-family="Arial" font-size="14.00" fill="#c6c5fe">../types/widgets.ts</text>
</g>
<!-- ../types/widgets.ts&#45;&gt;../types/cia.ts -->
<g id="edge10" class="edge">
<title>../types/widgets.ts&#45;&gt;../types/cia.ts</title>
<path fill="none" stroke="#757575" d="M1089.03,-1109.7C1119.58,-1113.75 1157.18,-1118.26 1191,-1121 1365.24,-1135.12 1572.32,-1132.84 1670.47,-1130.61"/>
<polygon fill="#757575" stroke="#757575" points="1670.84,-1134.1 1680.76,-1130.37 1670.68,-1127.11 1670.84,-1134.1"/>
</g>
<!-- ../utils/typeGuards.ts -->
<g id="node11" class="node">
<title>../utils/typeGuards.ts</title>
<path fill="none" stroke="#c6c5fe" d="M1573.83,-1120.5C1573.83,-1120.5 1449.17,-1120.5 1449.17,-1120.5 1445.33,-1120.5 1441.5,-1116.67 1441.5,-1112.83 1441.5,-1112.83 1441.5,-1105.17 1441.5,-1105.17 1441.5,-1101.33 1445.33,-1097.5 1449.17,-1097.5 1449.17,-1097.5 1573.83,-1097.5 1573.83,-1097.5 1577.67,-1097.5 1581.5,-1101.33 1581.5,-1105.17 1581.5,-1105.17 1581.5,-1112.83 1581.5,-1112.83 1581.5,-1116.67 1577.67,-1120.5 1573.83,-1120.5"/>
<text text-anchor="middle" x="1511.5" y="-1105.3" font-family="Arial" font-size="14.00" fill="#c6c5fe">../utils/typeGuards.ts</text>
</g>
<!-- ../utils/typeGuards.ts&#45;&gt;../types/cia.ts -->
<g id="edge11" class="edge">
<title>../utils/typeGuards.ts&#45;&gt;../types/cia.ts</title>
<path fill="none" stroke="#757575" d="M1581.71,-1115.44C1610.45,-1118.11 1643.38,-1121.18 1670.67,-1123.71"/>
<polygon fill="#757575" stroke="#757575" points="1670.55,-1127.22 1680.83,-1124.66 1671.2,-1120.25 1670.55,-1127.22"/>
</g>
<!-- ../utils/widgetRegistry.tsx -->
<g id="node12" class="node">
<title>../utils/widgetRegistry.tsx</title>
<path fill="none" stroke="#c6c5fe" d="M296.33,-928.5C296.33,-928.5 147.67,-928.5 147.67,-928.5 143.83,-928.5 140,-924.67 140,-920.83 140,-920.83 140,-913.17 140,-913.17 140,-909.33 143.83,-905.5 147.67,-905.5 147.67,-905.5 296.33,-905.5 296.33,-905.5 300.17,-905.5 304,-909.33 304,-913.17 304,-913.17 304,-920.83 304,-920.83 304,-924.67 300.17,-928.5 296.33,-928.5"/>
<text text-anchor="middle" x="222" y="-913.3" font-family="Arial" font-size="14.00" fill="#c6c5fe">../utils/widgetRegistry.tsx</text>
</g>
<!-- ../utils/widgetRegistry.tsx&#45;&gt;../constants/coreConstants.ts -->
<g id="edge12" class="edge">
<title>../utils/widgetRegistry.tsx&#45;&gt;../constants/coreConstants.ts</title>
<path fill="none" stroke="#757575" d="M229.21,-928.78C244.36,-956.39 285.97,-1025.77 340,-1063 447.46,-1137.05 770.08,-1222.75 899,-1243 1006.2,-1259.83 1131.96,-1247.47 1210.2,-1236.05"/>
<polygon fill="#757575" stroke="#757575" points="1211.08,-1239.45 1220.45,-1234.52 1210.04,-1232.53 1211.08,-1239.45"/>
</g>
<!-- RadarChart.tsx -->
<g id="node13" class="node">
<title>RadarChart.tsx</title>
<path fill="none" stroke="#c6c5fe" d="M491.33,-821.5C491.33,-821.5 399.67,-821.5 399.67,-821.5 395.83,-821.5 392,-817.67 392,-813.83 392,-813.83 392,-806.17 392,-806.17 392,-802.33 395.83,-798.5 399.67,-798.5 399.67,-798.5 491.33,-798.5 491.33,-798.5 495.17,-798.5 499,-802.33 499,-806.17 499,-806.17 499,-813.83 499,-813.83 499,-817.67 495.17,-821.5 491.33,-821.5"/>
<text text-anchor="middle" x="445.5" y="-806.3" font-family="Arial" font-size="14.00" fill="#c6c5fe">RadarChart.tsx</text>
</g>
<!-- ../utils/widgetRegistry.tsx&#45;&gt;RadarChart.tsx -->
<g id="edge13" class="edge">
<title>../utils/widgetRegistry.tsx&#45;&gt;RadarChart.tsx</title>
<path fill="none" stroke="#757575" d="M285.93,-905.39C292.25,-903.08 298.39,-900.32 304,-897 324.31,-885 320.91,-871.86 340,-858 358.6,-844.49 381.62,-833.42 401.31,-825.33"/>
<polygon fill="#757575" stroke="#757575" points="402.68,-828.56 410.67,-821.6 400.09,-822.05 402.68,-828.56"/>
</g>
<!-- common/index.ts -->
<g id="node14" class="node">
<title>common/index.ts</title>
<path fill="none" stroke="#c6c5fe" d="M777.33,-581.5C777.33,-581.5 672.67,-581.5 672.67,-581.5 668.83,-581.5 665,-577.67 665,-573.83 665,-573.83 665,-566.17 665,-566.17 665,-562.33 668.83,-558.5 672.67,-558.5 672.67,-558.5 777.33,-558.5 777.33,-558.5 781.17,-558.5 785,-562.33 785,-566.17 785,-566.17 785,-573.83 785,-573.83 785,-577.67 781.17,-581.5 777.33,-581.5"/>
<text text-anchor="middle" x="725" y="-566.3" font-family="Arial" font-size="14.00" fill="#c6c5fe">common/index.ts</text>
</g>
<!-- ../utils/widgetRegistry.tsx&#45;&gt;common/index.ts -->
<g id="edge14" class="edge">
<title>../utils/widgetRegistry.tsx&#45;&gt;common/index.ts</title>
<path fill="none" stroke="#757575" d="M293.59,-905.38C297.4,-903.04 300.92,-900.27 304,-897 364.44,-832.86 282.48,-768.77 340,-702 419.78,-609.4 567.64,-581.68 654.76,-573.44"/>
<polygon fill="#757575" stroke="#757575" points="655.17,-576.91 664.82,-572.55 654.55,-569.94 655.17,-576.91"/>
</g>
<!-- widgets/AvailabilityImpactWidget.tsx -->
<g id="node15" class="node">
<title>widgets/AvailabilityImpactWidget.tsx</title>
<path fill="none" stroke="#c6c5fe" d="M1136.83,-1233.5C1136.83,-1233.5 917.17,-1233.5 917.17,-1233.5 913.33,-1233.5 909.5,-1229.67 909.5,-1225.83 909.5,-1225.83 909.5,-1218.17 909.5,-1218.17 909.5,-1214.33 913.33,-1210.5 917.17,-1210.5 917.17,-1210.5 1136.83,-1210.5 1136.83,-1210.5 1140.67,-1210.5 1144.5,-1214.33 1144.5,-1218.17 1144.5,-1218.17 1144.5,-1225.83 1144.5,-1225.83 1144.5,-1229.67 1140.67,-1233.5 1136.83,-1233.5"/>
<text text-anchor="middle" x="1027" y="-1218.3" font-family="Arial" font-size="14.00" fill="#c6c5fe">widgets/AvailabilityImpactWidget.tsx</text>
</g>
<!-- ../utils/widgetRegistry.tsx&#45;&gt;widgets/AvailabilityImpactWidget.tsx -->
<g id="edge15" class="edge">
<title>../utils/widgetRegistry.tsx&#45;&gt;widgets/AvailabilityImpactWidget.tsx</title>
<path fill="none" stroke="#757575" d="M232.2,-928.75C250.29,-950.96 292.83,-999.05 340,-1023 551.55,-1130.42 651.58,-1022.32 863,-1130 882.34,-1139.85 880.95,-1150.95 899,-1163 925.9,-1180.95 959.13,-1196.17 984.85,-1206.66"/>
<polygon fill="#757575" stroke="#757575" points="983.73,-1209.98 994.31,-1210.44 986.33,-1203.48 983.73,-1209.98"/>
</g>
<!-- widgets/BusinessImpactAnalysisWidget.tsx -->
<g id="node16" class="node">
<title>widgets/BusinessImpactAnalysisWidget.tsx</title>
<path fill="none" stroke="#c6c5fe" d="M855.33,-147.5C855.33,-147.5 594.67,-147.5 594.67,-147.5 590.83,-147.5 587,-143.67 587,-139.83 587,-139.83 587,-132.17 587,-132.17 587,-128.33 590.83,-124.5 594.67,-124.5 594.67,-124.5 855.33,-124.5 855.33,-124.5 859.17,-124.5 863,-128.33 863,-132.17 863,-132.17 863,-139.83 863,-139.83 863,-143.67 859.17,-147.5 855.33,-147.5"/>
<text text-anchor="middle" x="725" y="-132.3" font-family="Arial" font-size="14.00" fill="#c6c5fe">widgets/BusinessImpactAnalysisWidget.tsx</text>
</g>
<!-- ../utils/widgetRegistry.tsx&#45;&gt;widgets/BusinessImpactAnalysisWidget.tsx -->
<g id="edge16" class="edge">
<title>../utils/widgetRegistry.tsx&#45;&gt;widgets/BusinessImpactAnalysisWidget.tsx</title>
<path fill="none" stroke="#757575" d="M294.73,-905.29C298.16,-902.95 301.29,-900.21 304,-897 376.61,-810.77 283.22,-488.39 340,-391 417.44,-258.16 594.96,-181.08 678.7,-150.89"/>
<polygon fill="#757575" stroke="#757575" points="679.93,-154.16 688.19,-147.52 677.6,-147.56 679.93,-154.16"/>
</g>
<!-- widgets/ComplianceStatusWidget.tsx -->
<g id="node17" class="node">
<title>widgets/ComplianceStatusWidget.tsx</title>
<path fill="none" stroke="#c6c5fe" d="M1139.33,-950.5C1139.33,-950.5 914.67,-950.5 914.67,-950.5 910.83,-950.5 907,-946.67 907,-942.83 907,-942.83 907,-935.17 907,-935.17 907,-931.33 910.83,-927.5 914.67,-927.5 914.67,-927.5 1139.33,-927.5 1139.33,-927.5 1143.17,-927.5 1147,-931.33 1147,-935.17 1147,-935.17 1147,-942.83 1147,-942.83 1147,-946.67 1143.17,-950.5 1139.33,-950.5"/>
<text text-anchor="middle" x="1027" y="-935.3" font-family="Arial" font-size="14.00" fill="#c6c5fe">widgets/ComplianceStatusWidget.tsx</text>
</g>
<!-- ../utils/widgetRegistry.tsx&#45;&gt;widgets/ComplianceStatusWidget.tsx -->
<g id="edge17" class="edge">
<title>../utils/widgetRegistry.tsx&#45;&gt;widgets/ComplianceStatusWidget.tsx</title>
<path fill="none" stroke="#757575" d="M304.04,-919.22C443.46,-923.04 729.77,-930.88 896.91,-935.46"/>
<polygon fill="#757575" stroke="#757575" points="896.91,-938.96 907,-935.74 897.1,-931.97 896.91,-938.96"/>
</g>
<!-- widgets/ConfidentialityImpactWidget.tsx -->
<g id="node18" class="node">
<title>widgets/ConfidentialityImpactWidget.tsx</title>
<path fill="none" stroke="#c6c5fe" d="M1147.33,-1032.5C1147.33,-1032.5 906.67,-1032.5 906.67,-1032.5 902.83,-1032.5 899,-1028.67 899,-1024.83 899,-1024.83 899,-1017.17 899,-1017.17 899,-1013.33 902.83,-1009.5 906.67,-1009.5 906.67,-1009.5 1147.33,-1009.5 1147.33,-1009.5 1151.17,-1009.5 1155,-1013.33 1155,-1017.17 1155,-1017.17 1155,-1024.83 1155,-1024.83 1155,-1028.67 1151.17,-1032.5 1147.33,-1032.5"/>
<text text-anchor="middle" x="1027" y="-1017.3" font-family="Arial" font-size="14.00" fill="#c6c5fe">widgets/ConfidentialityImpactWidget.tsx</text>
</g>
<!-- ../utils/widgetRegistry.tsx&#45;&gt;widgets/ConfidentialityImpactWidget.tsx -->
<g id="edge18" class="edge">
<title>../utils/widgetRegistry.tsx&#45;&gt;widgets/ConfidentialityImpactWidget.tsx</title>
<path fill="none" stroke="#757575" d="M249.38,-928.66C272.73,-938.44 307.97,-951.92 340,-959 527.11,-1000.33 748.75,-1014.21 888.39,-1018.81"/>
<polygon fill="#757575" stroke="#757575" points="888.61,-1022.32 898.72,-1019.14 888.84,-1015.33 888.61,-1022.32"/>
</g>
<!-- widgets/CostEstimationWidget.tsx -->
<g id="node19" class="node">
<title>widgets/CostEstimationWidget.tsx</title>
<path fill="none" stroke="#c6c5fe" d="M827.83,-398.5C827.83,-398.5 622.17,-398.5 622.17,-398.5 618.33,-398.5 614.5,-394.67 614.5,-390.83 614.5,-390.83 614.5,-383.17 614.5,-383.17 614.5,-379.33 618.33,-375.5 622.17,-375.5 622.17,-375.5 827.83,-375.5 827.83,-375.5 831.67,-375.5 835.5,-379.33 835.5,-383.17 835.5,-383.17 835.5,-390.83 835.5,-390.83 835.5,-394.67 831.67,-398.5 827.83,-398.5"/>
<text text-anchor="middle" x="725" y="-383.3" font-family="Arial" font-size="14.00" fill="#c6c5fe">widgets/CostEstimationWidget.tsx</text>
</g>
<!-- ../utils/widgetRegistry.tsx&#45;&gt;widgets/CostEstimationWidget.tsx -->
<g id="edge19" class="edge">
<title>../utils/widgetRegistry.tsx&#45;&gt;widgets/CostEstimationWidget.tsx</title>
<path fill="none" stroke="#757575" d="M294.31,-905.47C297.89,-903.1 301.17,-900.3 304,-897 361.99,-829.45 285.85,-568.66 340,-498 401.17,-418.18 516.14,-393.16 604.39,-386.47"/>
<polygon fill="#757575" stroke="#757575" points="604.74,-389.96 614.47,-385.78 604.26,-382.98 604.74,-389.96"/>
</g>
<!-- widgets/IntegrityImpactWidget.tsx -->
<g id="node20" class="node">
<title>widgets/IntegrityImpactWidget.tsx</title>
<path fill="none" stroke="#c6c5fe" d="M1128.83,-1313.5C1128.83,-1313.5 925.17,-1313.5 925.17,-1313.5 921.33,-1313.5 917.5,-1309.67 917.5,-1305.83 917.5,-1305.83 917.5,-1298.17 917.5,-1298.17 917.5,-1294.33 921.33,-1290.5 925.17,-1290.5 925.17,-1290.5 1128.83,-1290.5 1128.83,-1290.5 1132.67,-1290.5 1136.5,-1294.33 1136.5,-1298.17 1136.5,-1298.17 1136.5,-1305.83 1136.5,-1305.83 1136.5,-1309.67 1132.67,-1313.5 1128.83,-1313.5"/>
<text text-anchor="middle" x="1027" y="-1298.3" font-family="Arial" font-size="14.00" fill="#c6c5fe">widgets/IntegrityImpactWidget.tsx</text>
</g>
<!-- ../utils/widgetRegistry.tsx&#45;&gt;widgets/IntegrityImpactWidget.tsx -->
<g id="edge20" class="edge">
<title>../utils/widgetRegistry.tsx&#45;&gt;widgets/IntegrityImpactWidget.tsx</title>
<path fill="none" stroke="#757575" d="M232.54,-928.76C249.14,-949.75 283.54,-995.52 304,-1039 327.53,-1088.99 299.29,-1120.64 340,-1158 421.57,-1232.86 733.78,-1274.06 907.54,-1291.62"/>
<polygon fill="#757575" stroke="#757575" points="907.2,-1295.1 917.5,-1292.62 907.89,-1288.14 907.2,-1295.1"/>
</g>
<!-- widgets/SecurityLevelWidget.tsx -->
<g id="node21" class="node">
<title>widgets/SecurityLevelWidget.tsx</title>
<path fill="none" stroke="#c6c5fe" d="M543.33,-889.5C543.33,-889.5 347.67,-889.5 347.67,-889.5 343.83,-889.5 340,-885.67 340,-881.83 340,-881.83 340,-874.17 340,-874.17 340,-870.33 343.83,-866.5 347.67,-866.5 347.67,-866.5 543.33,-866.5 543.33,-866.5 547.17,-866.5 551,-870.33 551,-874.17 551,-874.17 551,-881.83 551,-881.83 551,-885.67 547.17,-889.5 543.33,-889.5"/>
<text text-anchor="middle" x="445.5" y="-874.3" font-family="Arial" font-size="14.00" fill="#c6c5fe">widgets/SecurityLevelWidget.tsx</text>
</g>
<!-- ../utils/widgetRegistry.tsx&#45;&gt;widgets/SecurityLevelWidget.tsx -->
<g id="edge21" class="edge">
<title>../utils/widgetRegistry.tsx&#45;&gt;widgets/SecurityLevelWidget.tsx</title>
<path fill="none" stroke="#757575" d="M288.56,-905.46C313.9,-901 343.04,-895.86 369.23,-891.25"/>
<polygon fill="#757575" stroke="#757575" points="369.87,-894.69 379.11,-889.51 368.65,-887.8 369.87,-894.69"/>
</g>
<!-- widgets/SecurityResourcesWidget.tsx -->
<g id="node22" class="node">
<title>widgets/SecurityResourcesWidget.tsx</title>
<path fill="none" stroke="#c6c5fe" d="M1140.83,-1153.5C1140.83,-1153.5 913.17,-1153.5 913.17,-1153.5 909.33,-1153.5 905.5,-1149.67 905.5,-1145.83 905.5,-1145.83 905.5,-1138.17 905.5,-1138.17 905.5,-1134.33 909.33,-1130.5 913.17,-1130.5 913.17,-1130.5 1140.83,-1130.5 1140.83,-1130.5 1144.67,-1130.5 1148.5,-1134.33 1148.5,-1138.17 1148.5,-1138.17 1148.5,-1145.83 1148.5,-1145.83 1148.5,-1149.67 1144.67,-1153.5 1140.83,-1153.5"/>
<text text-anchor="middle" x="1027" y="-1138.3" font-family="Arial" font-size="14.00" fill="#c6c5fe">widgets/SecurityResourcesWidget.tsx</text>
</g>
<!-- ../utils/widgetRegistry.tsx&#45;&gt;widgets/SecurityResourcesWidget.tsx -->
<g id="edge22" class="edge">
<title>../utils/widgetRegistry.tsx&#45;&gt;widgets/SecurityResourcesWidget.tsx</title>
<path fill="none" stroke="#757575" d="M237.94,-928.7C259.32,-944.83 300.42,-973.64 340,-989 560.62,-1074.64 651.52,-982.79 863,-1089 882.4,-1098.74 879.45,-1112.58 899,-1122 902.9,-1123.88 906.94,-1125.59 911.08,-1127.15"/>
<polygon fill="#757575" stroke="#757575" points="910.28,-1130.57 920.88,-1130.5 912.55,-1123.95 910.28,-1130.57"/>
</g>
<!-- widgets/SecuritySummaryWidget.tsx -->
<g id="node23" class="node">
<title>widgets/SecuritySummaryWidget.tsx</title>
<path fill="none" stroke="#c6c5fe" d="M836.33,-661.5C836.33,-661.5 613.67,-661.5 613.67,-661.5 609.83,-661.5 606,-657.67 606,-653.83 606,-653.83 606,-646.17 606,-646.17 606,-642.33 609.83,-638.5 613.67,-638.5 613.67,-638.5 836.33,-638.5 836.33,-638.5 840.17,-638.5 844,-642.33 844,-646.17 844,-646.17 844,-653.83 844,-653.83 844,-657.67 840.17,-661.5 836.33,-661.5"/>
<text text-anchor="middle" x="725" y="-646.3" font-family="Arial" font-size="14.00" fill="#c6c5fe">widgets/SecuritySummaryWidget.tsx</text>
</g>
<!-- ../utils/widgetRegistry.tsx&#45;&gt;widgets/SecuritySummaryWidget.tsx -->
<g id="edge23" class="edge">
<title>../utils/widgetRegistry.tsx&#45;&gt;widgets/SecuritySummaryWidget.tsx</title>
<path fill="none" stroke="#757575" d="M291.92,-905.49C296.29,-903.14 300.38,-900.34 304,-897 340.91,-863.01 305.29,-826.23 340,-790 421.38,-705.08 476.2,-734.48 587,-695 616.9,-684.35 650.79,-673.21 677.39,-664.68"/>
<polygon fill="#757575" stroke="#757575" points="678.74,-667.92 687.2,-661.54 676.61,-661.25 678.74,-667.92"/>
</g>
<!-- widgets/TechnicalDetailsWidget.tsx -->
<g id="node24" class="node">
<title>widgets/TechnicalDetailsWidget.tsx</title>
<path fill="none" stroke="#c6c5fe" d="M1132.83,-991.5C1132.83,-991.5 921.17,-991.5 921.17,-991.5 917.33,-991.5 913.5,-987.67 913.5,-983.83 913.5,-983.83 913.5,-976.17 913.5,-976.17 913.5,-972.33 917.33,-968.5 921.17,-968.5 921.17,-968.5 1132.83,-968.5 1132.83,-968.5 1136.67,-968.5 1140.5,-972.33 1140.5,-976.17 1140.5,-976.17 1140.5,-983.83 1140.5,-983.83 1140.5,-987.67 1136.67,-991.5 1132.83,-991.5"/>
<text text-anchor="middle" x="1027" y="-976.3" font-family="Arial" font-size="14.00" fill="#c6c5fe">widgets/TechnicalDetailsWidget.tsx</text>
</g>
<!-- ../utils/widgetRegistry.tsx&#45;&gt;widgets/TechnicalDetailsWidget.tsx -->
<g id="edge24" class="edge">
<title>../utils/widgetRegistry.tsx&#45;&gt;widgets/TechnicalDetailsWidget.tsx</title>
<path fill="none" stroke="#757575" d="M286.91,-928.53C304.1,-931.31 322.72,-934.05 340,-936 536.39,-958.19 765.76,-970.08 903.27,-975.72"/>
<polygon fill="#757575" stroke="#757575" points="903.28,-979.22 913.41,-976.13 903.56,-972.23 903.28,-979.22"/>
</g>
<!-- widgets/ValueCreationWidget.tsx -->
<g id="node25" class="node">
<title>widgets/ValueCreationWidget.tsx</title>
<path fill="none" stroke="#c6c5fe" d="M824.83,-519.5C824.83,-519.5 625.17,-519.5 625.17,-519.5 621.33,-519.5 617.5,-515.67 617.5,-511.83 617.5,-511.83 617.5,-504.17 617.5,-504.17 617.5,-500.33 621.33,-496.5 625.17,-496.5 625.17,-496.5 824.83,-496.5 824.83,-496.5 828.67,-496.5 832.5,-500.33 832.5,-504.17 832.5,-504.17 832.5,-511.83 832.5,-511.83 832.5,-515.67 828.67,-519.5 824.83,-519.5"/>
<text text-anchor="middle" x="725" y="-504.3" font-family="Arial" font-size="14.00" fill="#c6c5fe">widgets/ValueCreationWidget.tsx</text>
</g>
<!-- ../utils/widgetRegistry.tsx&#45;&gt;widgets/ValueCreationWidget.tsx -->
<g id="edge25" class="edge">
<title>../utils/widgetRegistry.tsx&#45;&gt;widgets/ValueCreationWidget.tsx</title>
<path fill="none" stroke="#757575" d="M294.21,-905.38C297.82,-903.03 301.13,-900.26 304,-897 395.68,-792.92 246.29,-689.26 340,-587 406.57,-514.35 520.65,-498.61 607.21,-498.64"/>
<polygon fill="#757575" stroke="#757575" points="607.34,-502.14 617.36,-498.71 607.39,-495.14 607.34,-502.14"/>
</g>
<!-- RadarChart.tsx&#45;&gt;../constants/testIds.ts -->
<g id="edge32" class="edge">
<title>RadarChart.tsx&#45;&gt;../constants/testIds.ts</title>
<path fill="none" stroke="#757575" d="M476.79,-798.43C498.21,-789.69 527.24,-776.71 551,-762 568.47,-751.18 568.06,-740.95 587,-733 590.55,-731.51 1021.53,-681.53 1204.66,-660.34"/>
<polygon fill="#757575" stroke="#757575" points="1205.25,-663.8 1214.78,-659.17 1204.44,-656.85 1205.25,-663.8"/>
</g>
<!-- common/KeyValuePair.tsx -->
<g id="node29" class="node">
<title>common/KeyValuePair.tsx</title>
<path fill="none" stroke="#c6c5fe" d="M1106.83,-519.5C1106.83,-519.5 947.17,-519.5 947.17,-519.5 943.33,-519.5 939.5,-515.67 939.5,-511.83 939.5,-511.83 939.5,-504.17 939.5,-504.17 939.5,-500.33 943.33,-496.5 947.17,-496.5 947.17,-496.5 1106.83,-496.5 1106.83,-496.5 1110.67,-496.5 1114.5,-500.33 1114.5,-504.17 1114.5,-504.17 1114.5,-511.83 1114.5,-511.83 1114.5,-515.67 1110.67,-519.5 1106.83,-519.5"/>
<text text-anchor="middle" x="1027" y="-504.3" font-family="Arial" font-size="14.00" fill="#c6c5fe">common/KeyValuePair.tsx</text>
</g>
<!-- common/index.ts&#45;&gt;common/KeyValuePair.tsx -->
<g id="edge44" class="edge">
<title>common/index.ts&#45;&gt;common/KeyValuePair.tsx</title>
<path fill="none" stroke="#757575" d="M770.98,-558.44C805.79,-549.72 855.27,-537.79 899,-529 912.49,-526.29 926.83,-523.67 940.84,-521.25"/>
<polygon fill="#757575" stroke="#757575" points="941.7,-524.66 950.97,-519.53 940.52,-517.76 941.7,-524.66"/>
</g>
<!-- common/MetricsCard.tsx -->
<g id="node31" class="node">
<title>common/MetricsCard.tsx</title>
<path fill="none" stroke="#c6c5fe" d="M1103.33,-601.5C1103.33,-601.5 950.67,-601.5 950.67,-601.5 946.83,-601.5 943,-597.67 943,-593.83 943,-593.83 943,-586.17 943,-586.17 943,-582.33 946.83,-578.5 950.67,-578.5 950.67,-578.5 1103.33,-578.5 1103.33,-578.5 1107.17,-578.5 1111,-582.33 1111,-586.17 1111,-586.17 1111,-593.83 1111,-593.83 1111,-597.67 1107.17,-601.5 1103.33,-601.5"/>
<text text-anchor="middle" x="1027" y="-586.3" font-family="Arial" font-size="14.00" fill="#c6c5fe">common/MetricsCard.tsx</text>
</g>
<!-- common/index.ts&#45;&gt;common/MetricsCard.tsx -->
<g id="edge45" class="edge">
<title>common/index.ts&#45;&gt;common/MetricsCard.tsx</title>
<path fill="none" stroke="#757575" d="M785.27,-573.95C827.28,-576.75 884.49,-580.57 932.6,-583.77"/>
<polygon fill="#757575" stroke="#757575" points="932.51,-587.28 942.72,-584.45 932.98,-580.29 932.51,-587.28"/>
</g>
<!-- common/StatusBadge.tsx -->
<g id="node32" class="node">
<title>common/StatusBadge.tsx</title>
<path fill="none" stroke="#c6c5fe" d="M1105.33,-642.5C1105.33,-642.5 948.67,-642.5 948.67,-642.5 944.83,-642.5 941,-638.67 941,-634.83 941,-634.83 941,-627.17 941,-627.17 941,-623.33 944.83,-619.5 948.67,-619.5 948.67,-619.5 1105.33,-619.5 1105.33,-619.5 1109.17,-619.5 1113,-623.33 1113,-627.17 1113,-627.17 1113,-634.83 1113,-634.83 1113,-638.67 1109.17,-642.5 1105.33,-642.5"/>
<text text-anchor="middle" x="1027" y="-627.3" font-family="Arial" font-size="14.00" fill="#c6c5fe">common/StatusBadge.tsx</text>
</g>
<!-- common/index.ts&#45;&gt;common/StatusBadge.tsx -->
<g id="edge46" class="edge">
<title>common/index.ts&#45;&gt;common/StatusBadge.tsx</title>
<path fill="none" stroke="#757575" d="M770.6,-581.56C805.42,-590.35 855.09,-602.35 899,-611 911.1,-613.38 923.88,-615.67 936.5,-617.79"/>
<polygon fill="#757575" stroke="#757575" points="936.13,-621.27 946.57,-619.45 937.28,-614.37 936.13,-621.27"/>
</g>
<!-- common/ValueDisplay.tsx -->
<g id="node33" class="node">
<title>common/ValueDisplay.tsx</title>
<path fill="none" stroke="#c6c5fe" d="M1105.33,-439.5C1105.33,-439.5 948.67,-439.5 948.67,-439.5 944.83,-439.5 941,-435.67 941,-431.83 941,-431.83 941,-424.17 941,-424.17 941,-420.33 944.83,-416.5 948.67,-416.5 948.67,-416.5 1105.33,-416.5 1105.33,-416.5 1109.17,-416.5 1113,-420.33 1113,-424.17 1113,-424.17 1113,-431.83 1113,-431.83 1113,-435.67 1109.17,-439.5 1105.33,-439.5"/>
<text text-anchor="middle" x="1027" y="-424.3" font-family="Arial" font-size="14.00" fill="#c6c5fe">common/ValueDisplay.tsx</text>
</g>
<!-- common/index.ts&#45;&gt;common/ValueDisplay.tsx -->
<g id="edge47" class="edge">
<title>common/index.ts&#45;&gt;common/ValueDisplay.tsx</title>
<path fill="none" stroke="#757575" d="M785.15,-560.06C810.55,-553.9 839.69,-544.16 863,-529 883.61,-515.6 879.41,-501.85 899,-487 924,-468.05 956.06,-453.22 981.71,-443.16"/>
<polygon fill="#757575" stroke="#757575" points="983.1,-446.38 991.2,-439.55 980.61,-439.84 983.1,-446.38"/>
</g>
<!-- common/WidgetContainer.tsx -->
<g id="node34" class="node">
<title>common/WidgetContainer.tsx</title>
<path fill="none" stroke="#c6c5fe" d="M1116.83,-560.5C1116.83,-560.5 937.17,-560.5 937.17,-560.5 933.33,-560.5 929.5,-556.67 929.5,-552.83 929.5,-552.83 929.5,-545.17 929.5,-545.17 929.5,-541.33 933.33,-537.5 937.17,-537.5 937.17,-537.5 1116.83,-537.5 1116.83,-537.5 1120.67,-537.5 1124.5,-541.33 1124.5,-545.17 1124.5,-545.17 1124.5,-552.83 1124.5,-552.83 1124.5,-556.67 1120.67,-560.5 1116.83,-560.5"/>
<text text-anchor="middle" x="1027" y="-545.3" font-family="Arial" font-size="14.00" fill="#c6c5fe">common/WidgetContainer.tsx</text>
</g>
<!-- common/index.ts&#45;&gt;common/WidgetContainer.tsx -->
<g id="edge48" class="edge">
<title>common/index.ts&#45;&gt;common/WidgetContainer.tsx</title>
<path fill="none" stroke="#757575" d="M785.27,-565.85C823.45,-563.18 874.19,-559.63 919.24,-556.47"/>
<polygon fill="#757575" stroke="#757575" points="919.63,-559.95 929.36,-555.76 919.14,-552.97 919.63,-559.95"/>
</g>
<!-- widgets/AvailabilityImpactWidget.tsx&#45;&gt;../constants/uiConstants.ts -->
<g id="edge51" class="edge">
<title>widgets/AvailabilityImpactWidget.tsx&#45;&gt;../constants/uiConstants.ts</title>
<path fill="none" stroke="#757575" d="M1096.84,-1210.47C1115.87,-1206.59 1136.4,-1201.76 1155,-1196 1210.24,-1178.9 1574.74,-1021.3 1691.55,-970.62"/>
<polygon fill="#757575" stroke="#757575" points="1693.02,-973.8 1700.8,-966.6 1690.24,-967.37 1693.02,-973.8"/>
</g>
<!-- widgets/AvailabilityImpactWidget.tsx&#45;&gt;../types/cia.ts -->
<g id="edge52" class="edge">
<title>widgets/AvailabilityImpactWidget.tsx&#45;&gt;../types/cia.ts</title>
<path fill="none" stroke="#757575" d="M1097.99,-1233.54C1126.72,-1237.73 1160.37,-1241.94 1191,-1244 1375.87,-1256.42 1431.28,-1259.44 1605,-1195 1639.74,-1182.11 1676.84,-1160.97 1700.99,-1146.09"/>
<polygon fill="#757575" stroke="#757575" points="1702.95,-1149 1709.58,-1140.73 1699.24,-1143.06 1702.95,-1149"/>
</g>
<!-- widgets/AvailabilityImpactWidget.tsx&#45;&gt;../constants/coreConstants.ts -->
<g id="edge49" class="edge">
<title>widgets/AvailabilityImpactWidget.tsx&#45;&gt;../constants/coreConstants.ts</title>
<path fill="none" stroke="#757575" d="M1144.7,-1222.45C1156.63,-1222.5 1168.71,-1222.55 1180.51,-1222.59"/>
<polygon fill="#757575" stroke="#757575" points="1180.79,-1226.09 1190.8,-1222.63 1180.82,-1219.09 1180.79,-1226.09"/>
</g>
<!-- widgets/AvailabilityImpactWidget.tsx&#45;&gt;../constants/testIds.ts -->
<g id="edge50" class="edge">
<title>widgets/AvailabilityImpactWidget.tsx&#45;&gt;../constants/testIds.ts</title>
<path fill="none" stroke="#757575" d="M1076.59,-1210.46C1103.38,-1201.7 1135.13,-1186.95 1155,-1163 1281.77,-1010.26 1287.47,-749.91 1286.2,-673.01"/>
<polygon fill="#757575" stroke="#757575" points="1289.69,-672.57 1285.96,-662.65 1282.69,-672.73 1289.69,-672.57"/>
</g>
<!-- widgets/BusinessImpactAnalysisWidget.tsx&#45;&gt;../constants/riskConstants.ts -->
<g id="edge53" class="edge">
<title>widgets/BusinessImpactAnalysisWidget.tsx&#45;&gt;../constants/riskConstants.ts</title>
<path fill="none" stroke="#757575" d="M751.87,-124.39C785.26,-109.82 845.43,-84.93 899,-70 1067.16,-23.13 1110.93,0 1285.5,0 1285.5,0 1285.5,0 1512.5,0 1884.77,0 1936.14,-669.45 1942.62,-800.06"/>
<polygon fill="#757575" stroke="#757575" points="1939.14,-800.55 1943.1,-810.38 1946.13,-800.23 1939.14,-800.55"/>
</g>
<!-- widgets/BusinessImpactAnalysisWidget.tsx&#45;&gt;../constants/uiConstants.ts -->
<g id="edge55" class="edge">
<title>widgets/BusinessImpactAnalysisWidget.tsx&#45;&gt;../constants/uiConstants.ts</title>
<path fill="none" stroke="#757575" d="M763.35,-124.48C798.08,-114.41 851.48,-100.55 899,-95 1116.22,-69.61 1224.97,-36.78 1382,-189 1617.01,-416.81 1705.46,-833.64 1723.74,-933.22"/>
<polygon fill="#757575" stroke="#757575" points="1720.34,-934.07 1725.54,-943.29 1727.23,-932.83 1720.34,-934.07"/>
</g>
<!-- widgets/BusinessImpactAnalysisWidget.tsx&#45;&gt;../constants/testIds.ts -->
<g id="edge54" class="edge">
<title>widgets/BusinessImpactAnalysisWidget.tsx&#45;&gt;../constants/testIds.ts</title>
<path fill="none" stroke="#757575" d="M863.2,-146.87C972.03,-158.21 1112.65,-179.83 1155,-218 1279.86,-330.52 1287.15,-557.66 1286.19,-629.02"/>
<polygon fill="#757575" stroke="#757575" points="1282.68,-629.38 1285.97,-639.45 1289.68,-629.52 1282.68,-629.38"/>
</g>
<!-- widgets/BusinessImpactAnalysisWidget.tsx&#45;&gt;../types/businessImpact.ts -->
<g id="edge56" class="edge">
<title>widgets/BusinessImpactAnalysisWidget.tsx&#45;&gt;../types/businessImpact.ts</title>
<path fill="none" stroke="#757575" d="M863.27,-126.85C885.91,-125.34 908.94,-123.8 930.28,-122.38"/>
<polygon fill="#757575" stroke="#757575" points="930.54,-125.87 940.28,-121.71 930.07,-118.89 930.54,-125.87"/>
</g>
<!-- widgets/BusinessImpactAnalysisWidget.tsx&#45;&gt;common/KeyValuePair.tsx -->
<g id="edge57" class="edge">
<title>widgets/BusinessImpactAnalysisWidget.tsx&#45;&gt;common/KeyValuePair.tsx</title>
<path fill="none" stroke="#757575" d="M733.66,-147.68C755.36,-180.99 818.54,-279.64 863,-366 881.22,-401.39 871.25,-419.47 899,-448 919.5,-469.08 948.87,-483.61 974.2,-493.09"/>
<polygon fill="#757575" stroke="#757575" points="973.09,-496.41 983.69,-496.48 975.45,-489.82 973.09,-496.41"/>
</g>
<!-- widgets/ComplianceStatusWidget.tsx&#45;&gt;../constants/appConstants.ts -->
<g id="edge60" class="edge">
<title>widgets/ComplianceStatusWidget.tsx&#45;&gt;../constants/appConstants.ts</title>
<path fill="none" stroke="#757575" d="M1088.59,-927.48C1109.68,-923.24 1133.45,-918.19 1155,-913 1171.14,-909.11 1174.95,-907.25 1191,-903 1275.62,-880.62 1297.17,-876.55 1382,-855 1406.31,-848.82 1433.18,-841.93 1456.05,-836.05"/>
<polygon fill="#757575" stroke="#757575" points="1457.1,-839.39 1465.91,-833.51 1455.36,-832.61 1457.1,-839.39"/>
</g>
<!-- widgets/ComplianceStatusWidget.tsx&#45;&gt;../constants/testIds.ts -->
<g id="edge61" class="edge">
<title>widgets/ComplianceStatusWidget.tsx&#45;&gt;../constants/testIds.ts</title>
<path fill="none" stroke="#757575" d="M1038.59,-927.43C1060.46,-903.54 1112.12,-846.94 1155,-799 1196.15,-752.98 1244.04,-698.41 1268.78,-670.14"/>
<polygon fill="#757575" stroke="#757575" points="1271.45,-672.39 1275.4,-662.56 1266.18,-667.79 1271.45,-672.39"/>
</g>
<!-- widgets/ConfidentialityImpactWidget.tsx&#45;&gt;../constants/uiConstants.ts -->
<g id="edge64" class="edge">
<title>widgets/ConfidentialityImpactWidget.tsx&#45;&gt;../constants/uiConstants.ts</title>
<path fill="none" stroke="#757575" d="M1127.3,-1009.48C1206.07,-1000.54 1319,-988.17 1418,-979 1489.17,-972.41 1569.66,-966.21 1630.71,-961.76"/>
<polygon fill="#757575" stroke="#757575" points="1631.01,-965.25 1640.73,-961.03 1630.5,-958.27 1631.01,-965.25"/>
</g>
<!-- widgets/ConfidentialityImpactWidget.tsx&#45;&gt;../types/cia.ts -->
<g id="edge65" class="edge">
<title>widgets/ConfidentialityImpactWidget.tsx&#45;&gt;../types/cia.ts</title>
<path fill="none" stroke="#757575" d="M1155.27,-1028.72C1272.99,-1037.58 1452.3,-1055.42 1605,-1089 1633.3,-1095.22 1664.31,-1105.39 1688.05,-1113.91"/>
<polygon fill="#757575" stroke="#757575" points="1687.16,-1117.31 1697.76,-1117.45 1689.56,-1110.73 1687.16,-1117.31"/>
</g>
<!-- widgets/ConfidentialityImpactWidget.tsx&#45;&gt;../constants/coreConstants.ts -->
<g id="edge62" class="edge">
<title>widgets/ConfidentialityImpactWidget.tsx&#45;&gt;../constants/coreConstants.ts</title>
<path fill="none" stroke="#757575" d="M1061.22,-1032.6C1088.03,-1042.9 1125.93,-1059.61 1155,-1081 1203.88,-1116.97 1248.96,-1173.19 1271.12,-1202.95"/>
<polygon fill="#757575" stroke="#757575" points="1268.5,-1205.3 1277.24,-1211.29 1274.14,-1201.15 1268.5,-1205.3"/>
</g>
<!-- widgets/ConfidentialityImpactWidget.tsx&#45;&gt;../constants/testIds.ts -->
<g id="edge63" class="edge">
<title>widgets/ConfidentialityImpactWidget.tsx&#45;&gt;../constants/testIds.ts</title>
<path fill="none" stroke="#757575" d="M1142.52,-1009.37C1146.92,-1006.95 1151.11,-1004.18 1155,-1001 1182.11,-978.85 1256.32,-745.09 1278.9,-672.43"/>
<polygon fill="#757575" stroke="#757575" points="1282.34,-673.15 1281.95,-662.56 1275.65,-671.08 1282.34,-673.15"/>
</g>
<!-- widgets/CostEstimationWidget.tsx&#45;&gt;../constants/appConstants.ts -->
<g id="edge66" class="edge">
<title>widgets/CostEstimationWidget.tsx&#45;&gt;../constants/appConstants.ts</title>
<path fill="none" stroke="#757575" d="M734.48,-375.5C757.14,-345.85 822.62,-267.21 899,-239 1102.59,-163.8 1233.26,-152.94 1382,-311 1451.29,-384.63 1496.73,-712.09 1507.84,-800.14"/>
<polygon fill="#757575" stroke="#757575" points="1504.37,-800.59 1509.08,-810.09 1511.32,-799.73 1504.37,-800.59"/>
</g>
<!-- widgets/CostEstimationWidget.tsx&#45;&gt;../constants/testIds.ts -->
<g id="edge67" class="edge">
<title>widgets/CostEstimationWidget.tsx&#45;&gt;../constants/testIds.ts</title>
<path fill="none" stroke="#757575" d="M756.84,-375.48C831.84,-349.58 1027.01,-295.07 1155,-376 1246.32,-433.75 1275.01,-574.66 1282.87,-629.07"/>
<polygon fill="#757575" stroke="#757575" points="1279.44,-629.86 1284.24,-639.3 1286.38,-628.93 1279.44,-629.86"/>
</g>
<!-- widgets/CostEstimationWidget.tsx&#45;&gt;common/KeyValuePair.tsx -->
<g id="edge68" class="edge">
<title>widgets/CostEstimationWidget.tsx&#45;&gt;common/KeyValuePair.tsx</title>
<path fill="none" stroke="#757575" d="M835.61,-395.78C845.17,-398.68 854.45,-402.35 863,-407 884.31,-418.57 879.63,-433.41 899,-448 924.47,-467.19 957.07,-482.44 982.86,-492.76"/>
<polygon fill="#757575" stroke="#757575" points="981.79,-496.1 992.38,-496.47 984.33,-489.58 981.79,-496.1"/>
</g>
<!-- widgets/CostEstimationWidget.tsx&#45;&gt;common/ValueDisplay.tsx -->
<g id="edge69" class="edge">
<title>widgets/CostEstimationWidget.tsx&#45;&gt;common/ValueDisplay.tsx</title>
<path fill="none" stroke="#757575" d="M810.37,-398.53C848.07,-403.68 892.67,-409.78 931.49,-415.08"/>
<polygon fill="#757575" stroke="#757575" points="931.37,-418.6 941.75,-416.49 932.31,-411.66 931.37,-418.6"/>
</g>
<!-- widgets/IntegrityImpactWidget.tsx&#45;&gt;../constants/uiConstants.ts -->
<g id="edge72" class="edge">
<title>widgets/IntegrityImpactWidget.tsx&#45;&gt;../constants/uiConstants.ts</title>
<path fill="none" stroke="#757575" d="M1136.74,-1296.07C1263.29,-1283.74 1471.86,-1245.91 1605,-1130 1657.67,-1084.15 1699.13,-1011.07 1717.38,-975.62"/>
<polygon fill="#757575" stroke="#757575" points="1720.51,-977.18 1721.9,-966.68 1714.27,-974.02 1720.51,-977.18"/>
</g>
<!-- widgets/IntegrityImpactWidget.tsx&#45;&gt;../types/cia.ts -->
<g id="edge73" class="edge">
<title>widgets/IntegrityImpactWidget.tsx&#45;&gt;../types/cia.ts</title>
<path fill="none" stroke="#757575" d="M1100.82,-1313.53C1172.82,-1322.86 1285.85,-1331.92 1382,-1315 1485.85,-1296.72 1513.94,-1287.17 1605,-1234 1646.33,-1209.87 1687.06,-1171.18 1709.58,-1148.11"/>
<polygon fill="#757575" stroke="#757575" points="1712.34,-1150.28 1716.75,-1140.65 1707.3,-1145.43 1712.34,-1150.28"/>
</g>
<!-- widgets/IntegrityImpactWidget.tsx&#45;&gt;../constants/coreConstants.ts -->
<g id="edge70" class="edge">
<title>widgets/IntegrityImpactWidget.tsx&#45;&gt;../constants/coreConstants.ts</title>
<path fill="none" stroke="#757575" d="M1096.13,-1290.45C1115.35,-1286.55 1136.15,-1281.7 1155,-1276 1188.62,-1265.83 1225.6,-1250.38 1251.58,-1238.79"/>
<polygon fill="#757575" stroke="#757575" points="1253.3,-1241.85 1260.97,-1234.55 1250.42,-1235.47 1253.3,-1241.85"/>
</g>
<!-- widgets/IntegrityImpactWidget.tsx&#45;&gt;../constants/testIds.ts -->
<g id="edge71" class="edge">
<title>widgets/IntegrityImpactWidget.tsx&#45;&gt;../constants/testIds.ts</title>
<path fill="none" stroke="#757575" d="M1077.52,-1290.5C1104.26,-1281.79 1135.67,-1267.08 1155,-1243 1228.6,-1151.32 1273.13,-768.77 1283.27,-672.87"/>
<polygon fill="#757575" stroke="#757575" points="1286.78,-672.95 1284.34,-662.64 1279.82,-672.22 1286.78,-672.95"/>
</g>
<!-- widgets/SecurityLevelWidget.tsx&#45;&gt;../constants/appConstants.ts -->
<g id="edge74" class="edge">
<title>widgets/SecurityLevelWidget.tsx&#45;&gt;../constants/appConstants.ts</title>
<path fill="none" stroke="#757575" d="M551.23,-879.65C563.29,-879.8 575.41,-879.92 587,-880 839.58,-881.8 904.08,-890 1155,-861 1171.11,-859.14 1174.92,-857.17 1191,-855 1263.11,-845.28 1344.72,-836.89 1407.41,-831.01"/>
<polygon fill="#757575" stroke="#757575" points="1408.06,-834.46 1417.69,-830.05 1407.41,-827.49 1408.06,-834.46"/>
</g>
<!-- widgets/SecurityLevelWidget.tsx&#45;&gt;../constants/testIds.ts -->
<g id="edge75" class="edge">
<title>widgets/SecurityLevelWidget.tsx&#45;&gt;../constants/testIds.ts</title>
<path fill="none" stroke="#757575" d="M487.32,-866.43C515.33,-858.55 553.37,-847.96 587,-839 712.88,-805.47 1029.95,-730.52 1155,-694 1184.51,-685.38 1217.39,-674.54 1242.76,-665.9"/>
<polygon fill="#757575" stroke="#757575" points="1244.11,-669.14 1252.44,-662.59 1241.85,-662.51 1244.11,-669.14"/>
</g>
<!-- SecurityLevelSelector.tsx -->
<g id="node28" class="node">
<title>SecurityLevelSelector.tsx</title>
<path fill="none" stroke="#c6c5fe" d="M800.83,-870.5C800.83,-870.5 649.17,-870.5 649.17,-870.5 645.33,-870.5 641.5,-866.67 641.5,-862.83 641.5,-862.83 641.5,-855.17 641.5,-855.17 641.5,-851.33 645.33,-847.5 649.17,-847.5 649.17,-847.5 800.83,-847.5 800.83,-847.5 804.67,-847.5 808.5,-851.33 808.5,-855.17 808.5,-855.17 808.5,-862.83 808.5,-862.83 808.5,-866.67 804.67,-870.5 800.83,-870.5"/>
<text text-anchor="middle" x="725" y="-855.3" font-family="Arial" font-size="14.00" fill="#c6c5fe">SecurityLevelSelector.tsx</text>
</g>
<!-- widgets/SecurityLevelWidget.tsx&#45;&gt;SecurityLevelSelector.tsx -->
<g id="edge76" class="edge">
<title>widgets/SecurityLevelWidget.tsx&#45;&gt;SecurityLevelSelector.tsx</title>
<path fill="none" stroke="#757575" d="M551.02,-870.84C577.33,-869.04 605.39,-867.12 631.09,-865.36"/>
<polygon fill="#757575" stroke="#757575" points="631.46,-868.84 641.19,-864.67 630.98,-861.86 631.46,-868.84"/>
</g>
<!-- widgets/SecurityResourcesWidget.tsx&#45;&gt;../constants/coreConstants.ts -->
<g id="edge77" class="edge">
<title>widgets/SecurityResourcesWidget.tsx&#45;&gt;../constants/coreConstants.ts</title>
<path fill="none" stroke="#757575" d="M1064.62,-1153.52C1110.44,-1167.93 1188.95,-1192.63 1238.98,-1208.37"/>
<polygon fill="#757575" stroke="#757575" points="1238,-1211.73 1248.59,-1211.39 1240.1,-1205.05 1238,-1211.73"/>
</g>
<!-- widgets/SecurityResourcesWidget.tsx&#45;&gt;../constants/testIds.ts -->
<g id="edge78" class="edge">
<title>widgets/SecurityResourcesWidget.tsx&#45;&gt;../constants/testIds.ts</title>
<path fill="none" stroke="#757575" d="M1144.31,-1130.41C1148.11,-1127.96 1151.7,-1125.17 1155,-1122 1214.15,-1065.18 1170.26,-1020.35 1191,-941 1217.71,-838.84 1260.15,-719.87 1277.61,-672.27"/>
<polygon fill="#757575" stroke="#757575" points="1280.95,-673.32 1281.12,-662.73 1274.38,-670.9 1280.95,-673.32"/>
</g>
<!-- widgets/SecuritySummaryWidget.tsx&#45;&gt;../constants/appConstants.ts -->
<g id="edge79" class="edge">
<title>widgets/SecuritySummaryWidget.tsx&#45;&gt;../constants/appConstants.ts</title>
<path fill="none" stroke="#757575" d="M778.69,-661.55C918.4,-692.18 1297.83,-775.37 1448.05,-808.31"/>
<polygon fill="#757575" stroke="#757575" points="1447.52,-811.77 1458.04,-810.5 1449.02,-804.94 1447.52,-811.77"/>
</g>
<!-- widgets/SecuritySummaryWidget.tsx&#45;&gt;../constants/testIds.ts -->
<g id="edge80" class="edge">
<title>widgets/SecuritySummaryWidget.tsx&#45;&gt;../constants/testIds.ts</title>
<path fill="none" stroke="#757575" d="M844.19,-651.55C862.54,-651.74 881.28,-651.9 899,-652 1012.78,-652.66 1041.22,-652.44 1155,-652 1171.04,-651.94 1188.19,-651.83 1204.61,-651.72"/>
<polygon fill="#757575" stroke="#757575" points="1204.75,-655.22 1214.72,-651.64 1204.7,-648.22 1204.75,-655.22"/>
</g>
<!-- widgets/SecuritySummaryWidget.tsx&#45;&gt;../hooks/useCIAOptions.ts -->
<g id="edge81" class="edge">
<title>widgets/SecuritySummaryWidget.tsx&#45;&gt;../hooks/useCIAOptions.ts</title>
<path fill="none" stroke="#757575" d="M738.38,-661.83C766.52,-689.62 835.01,-762.5 863,-839 900.06,-940.29 825.92,-1243.68 899,-1323 907.59,-1332.33 918.62,-1338.5 930.59,-1342.46"/>
<polygon fill="#757575" stroke="#757575" points="929.79,-1345.87 940.36,-1345.17 931.67,-1339.12 929.79,-1345.87"/>
</g>
<!-- widgets/SecuritySummaryWidget.tsx&#45;&gt;../types/businessImpact.ts -->
<g id="edge82" class="edge">
<title>widgets/SecuritySummaryWidget.tsx&#45;&gt;../types/businessImpact.ts</title>
<path fill="none" stroke="#757575" d="M786.57,-638.4C814.18,-629.93 844.72,-615.48 863,-591 943.88,-482.69 849.37,-414.73 899,-289 923.99,-225.69 977.98,-164.64 1006.86,-134.87"/>
<polygon fill="#757575" stroke="#757575" points="1009.44,-137.23 1013.96,-127.65 1004.45,-132.32 1009.44,-137.23"/>
</g>
<!-- widgets/SecuritySummaryWidget.tsx&#45;&gt;../types/widgets.ts -->
<g id="edge83" class="edge">
<title>widgets/SecuritySummaryWidget.tsx&#45;&gt;../types/widgets.ts</title>
<path fill="none" stroke="#757575" d="M737.57,-661.57C764.59,-689.37 831.93,-763.26 863,-839 903.27,-937.16 825.89,-998.1 899,-1075 913.46,-1090.21 934.23,-1097.79 954.8,-1101.28"/>
<polygon fill="#757575" stroke="#757575" points="954.47,-1104.76 964.86,-1102.68 955.44,-1097.83 954.47,-1104.76"/>
</g>
<!-- widgets/SecuritySummaryWidget.tsx&#45;&gt;common/KeyValuePair.tsx -->
<g id="edge84" class="edge">
<title>widgets/SecuritySummaryWidget.tsx&#45;&gt;common/KeyValuePair.tsx</title>
<path fill="none" stroke="#757575" d="M771.36,-638.47C800.18,-629.34 836.85,-614.2 863,-591 886.84,-569.85 872.78,-547.1 899,-529 908.25,-522.62 918.76,-517.93 929.68,-514.52"/>
<polygon fill="#757575" stroke="#757575" points="930.66,-517.88 939.37,-511.84 928.8,-511.13 930.66,-517.88"/>
</g>
<!-- widgets/SecuritySummaryWidget.tsx&#45;&gt;common/MetricsCard.tsx -->
<g id="edge85" class="edge">
<title>widgets/SecuritySummaryWidget.tsx&#45;&gt;common/MetricsCard.tsx</title>
<path fill="none" stroke="#757575" d="M773.57,-638.5C808.24,-630.3 856.39,-619.32 899,-611 912.68,-608.33 927.23,-605.71 941.42,-603.29"/>
<polygon fill="#757575" stroke="#757575" points="942.39,-606.67 951.66,-601.55 941.22,-599.77 942.39,-606.67"/>
</g>
<!-- widgets/SecuritySummaryWidget.tsx&#45;&gt;common/StatusBadge.tsx -->
<g id="edge86" class="edge">
<title>widgets/SecuritySummaryWidget.tsx&#45;&gt;common/StatusBadge.tsx</title>
<path fill="none" stroke="#757575" d="M844.14,-642.52C872.91,-640.7 903.31,-638.77 930.86,-637.03"/>
<polygon fill="#757575" stroke="#757575" points="931.11,-640.52 940.87,-636.39 930.67,-633.53 931.11,-640.52"/>
</g>
<!-- widgets/SecuritySummaryWidget.tsx&#45;&gt;common/ValueDisplay.tsx -->
<g id="edge87" class="edge">
<title>widgets/SecuritySummaryWidget.tsx&#45;&gt;common/ValueDisplay.tsx</title>
<path fill="none" stroke="#757575" d="M778.59,-638.4C806.99,-629.69 840.7,-615 863,-591 896.29,-555.17 866.22,-523.3 899,-487 917.85,-466.13 945.58,-452.08 970.33,-442.94"/>
<polygon fill="#757575" stroke="#757575" points="971.72,-446.16 980,-439.56 969.41,-439.56 971.72,-446.16"/>
</g>
<!-- widgets/TechnicalDetailsWidget.tsx&#45;&gt;../constants/appConstants.ts -->
<g id="edge88" class="edge">
<title>widgets/TechnicalDetailsWidget.tsx&#45;&gt;../constants/appConstants.ts</title>
<path fill="none" stroke="#757575" d="M1123.48,-968.47C1134.24,-966.14 1144.94,-963.34 1155,-960 1172.17,-954.29 1174.11,-947.47 1191,-941 1272.73,-909.68 1300.57,-925.1 1382,-893 1419.17,-878.35 1459,-855.02 1484.29,-839.13"/>
<polygon fill="#757575" stroke="#757575" points="1486.36,-841.97 1492.92,-833.65 1482.61,-836.06 1486.36,-841.97"/>
</g>
<!-- widgets/TechnicalDetailsWidget.tsx&#45;&gt;../types/cia.ts -->
<g id="edge90" class="edge">
<title>widgets/TechnicalDetailsWidget.tsx&#45;&gt;../types/cia.ts</title>
<path fill="none" stroke="#757575" d="M1140.52,-980.16C1259.25,-983.53 1450.23,-998.15 1605,-1053 1643.24,-1066.55 1682.17,-1093.41 1705.58,-1111.29"/>
<polygon fill="#757575" stroke="#757575" points="1703.43,-1114.06 1713.47,-1117.43 1707.73,-1108.53 1703.43,-1114.06"/>
</g>
<!-- widgets/TechnicalDetailsWidget.tsx&#45;&gt;../constants/testIds.ts -->
<g id="edge89" class="edge">
<title>widgets/TechnicalDetailsWidget.tsx&#45;&gt;../constants/testIds.ts</title>
<path fill="none" stroke="#757575" d="M1140.57,-969.08C1145.67,-966.51 1150.52,-963.51 1155,-960 1179.49,-940.85 1253.95,-738.58 1277.95,-672.07"/>
<polygon fill="#757575" stroke="#757575" points="1281.27,-673.2 1281.36,-662.61 1274.68,-670.83 1281.27,-673.2"/>
</g>
<!-- widgets/ValueCreationWidget.tsx&#45;&gt;../constants/appConstants.ts -->
<g id="edge91" class="edge">
<title>widgets/ValueCreationWidget.tsx&#45;&gt;../constants/appConstants.ts</title>
<path fill="none" stroke="#757575" d="M781.36,-496.4C809.71,-487.68 842.5,-472.83 863,-448 909.14,-392.13 842.39,-334.22 899,-289 987.89,-217.98 1054.68,-235.32 1155,-289 1371.1,-404.62 1478.56,-716.07 1504.31,-800.59"/>
<polygon fill="#757575" stroke="#757575" points="1501.01,-801.78 1507.22,-810.36 1507.72,-799.77 1501.01,-801.78"/>
</g>
<!-- widgets/ValueCreationWidget.tsx&#45;&gt;../constants/testIds.ts -->
<g id="edge92" class="edge">
<title>widgets/ValueCreationWidget.tsx&#45;&gt;../constants/testIds.ts</title>
<path fill="none" stroke="#757575" d="M758.2,-496.49C832.52,-471.97 1020,-421.9 1155,-487 1217.31,-517.05 1259.05,-592.92 1276.4,-629.98"/>
<polygon fill="#757575" stroke="#757575" points="1273.33,-631.67 1280.65,-639.33 1279.7,-628.78 1273.33,-631.67"/>
</g>
<!-- widgets/ValueCreationWidget.tsx&#45;&gt;../types/widgets.ts -->
<g id="edge93" class="edge">
<title>widgets/ValueCreationWidget.tsx&#45;&gt;../types/widgets.ts</title>
<path fill="none" stroke="#757575" d="M817.57,-519.51C835.06,-525.86 851.48,-535.48 863,-550 935.7,-641.6 822.01,-986.98 899,-1075 912.94,-1090.94 933.8,-1098.68 954.59,-1102.08"/>
<polygon fill="#757575" stroke="#757575" points="954.4,-1105.59 964.77,-1103.43 955.31,-1098.65 954.4,-1105.59"/>
</g>
<!-- widgets/ValueCreationWidget.tsx&#45;&gt;../utils/typeGuards.ts -->
<g id="edge94" class="edge">
<title>widgets/ValueCreationWidget.tsx&#45;&gt;../utils/typeGuards.ts</title>
<path fill="none" stroke="#757575" d="M817.52,-519.55C835.01,-525.9 851.44,-535.51 863,-550 931.35,-635.71 822.89,-963.1 899,-1042 917.26,-1060.93 1269.71,-1090.42 1431.06,-1102.99"/>
<polygon fill="#757575" stroke="#757575" points="1431.16,-1106.51 1441.41,-1103.79 1431.71,-1099.53 1431.16,-1106.51"/>
</g>
<!-- widgets/ValueCreationWidget.tsx&#45;&gt;common/KeyValuePair.tsx -->
<g id="edge95" class="edge">
<title>widgets/ValueCreationWidget.tsx&#45;&gt;common/KeyValuePair.tsx</title>
<path fill="none" stroke="#757575" d="M832.61,-508C864.09,-508 898.35,-508 929.17,-508"/>
<polygon fill="#757575" stroke="#757575" points="929.48,-511.5 939.48,-508 929.48,-504.5 929.48,-511.5"/>
</g>
<!-- widgets/ValueCreationWidget.tsx&#45;&gt;common/ValueDisplay.tsx -->
<g id="edge96" class="edge">
<title>widgets/ValueCreationWidget.tsx&#45;&gt;common/ValueDisplay.tsx</title>
<path fill="none" stroke="#757575" d="M759.52,-496.43C794.17,-484.74 849.95,-466.64 899,-454 916.56,-449.47 935.65,-445.22 953.56,-441.52"/>
<polygon fill="#757575" stroke="#757575" points="954.28,-444.94 963.38,-439.52 952.88,-438.09 954.28,-444.94"/>
</g>
<!-- Dashboard.tsx -->
<g id="node26" class="node">
<title>Dashboard.tsx</title>
<path fill="none" stroke="#c6c5fe" d="M96.33,-907.5C96.33,-907.5 7.67,-907.5 7.67,-907.5 3.83,-907.5 0,-903.67 0,-899.83 0,-899.83 0,-892.17 0,-892.17 0,-888.33 3.83,-884.5 7.67,-884.5 7.67,-884.5 96.33,-884.5 96.33,-884.5 100.17,-884.5 104,-888.33 104,-892.17 104,-892.17 104,-899.83 104,-899.83 104,-903.67 100.17,-907.5 96.33,-907.5"/>
<text text-anchor="middle" x="52" y="-892.3" font-family="Arial" font-size="14.00" fill="#c6c5fe">Dashboard.tsx</text>
</g>
<!-- Dashboard.tsx&#45;&gt;../constants/appConstants.ts -->
<g id="edge26" class="edge">
<title>Dashboard.tsx&#45;&gt;../constants/appConstants.ts</title>
<path fill="none" stroke="#757575" d="M53.46,-884.01C56.57,-807.18 76.44,-383.67 140,-274 225.85,-125.86 273.28,-38 444.5,-38 444.5,-38 444.5,-38 726,-38 1025.18,-38 1191.74,41.89 1382,-189 1462.08,-286.18 1500.55,-700.06 1508.79,-800.15"/>
<polygon fill="#757575" stroke="#757575" points="1505.31,-800.6 1509.61,-810.28 1512.29,-800.03 1505.31,-800.6"/>
</g>
<!-- Dashboard.tsx&#45;&gt;../constants/testIds.ts -->
<g id="edge27" class="edge">
<title>Dashboard.tsx&#45;&gt;../constants/testIds.ts</title>
<path fill="none" stroke="#757575" d="M54.01,-884.48C62.43,-796.3 128.68,-232 444.5,-232 444.5,-232 444.5,-232 726,-232 918.34,-232 1005.25,-168.29 1155,-289 1264.42,-377.2 1282.13,-564.89 1284.97,-629"/>
<polygon fill="#757575" stroke="#757575" points="1281.48,-629.3 1285.34,-639.17 1288.47,-629.05 1281.48,-629.3"/>
</g>
<!-- Dashboard.tsx&#45;&gt;../hooks/useCIAOptions.ts -->
<g id="edge28" class="edge">
<title>Dashboard.tsx&#45;&gt;../hooks/useCIAOptions.ts</title>
<path fill="none" stroke="#757575" d="M54.62,-907.56C60.3,-944.67 82.21,-1062.76 140,-1139 205.85,-1225.88 237.74,-1243.23 340,-1281 539.94,-1354.84 793.99,-1355.91 929.9,-1349.75"/>
<polygon fill="#757575" stroke="#757575" points="930.45,-1353.23 940.27,-1349.26 930.12,-1346.24 930.45,-1353.23"/>
</g>
<!-- Dashboard.tsx&#45;&gt;../styles/gridStyles.ts -->
<g id="edge29" class="edge">
<title>Dashboard.tsx&#45;&gt;../styles/gridStyles.ts</title>
<path fill="none" stroke="#757575" d="M104.32,-889.89C116.12,-888.49 128.94,-886.96 141.62,-885.45"/>
<polygon fill="#757575" stroke="#757575" points="142.22,-888.9 151.74,-884.25 141.4,-881.95 142.22,-888.9"/>
</g>
<!-- Dashboard.tsx&#45;&gt;../utils/widgetRegistry.tsx -->
<g id="edge30" class="edge">
<title>Dashboard.tsx&#45;&gt;../utils/widgetRegistry.tsx</title>
<path fill="none" stroke="#757575" d="M104.32,-902.41C112.52,-903.44 121.22,-904.53 130.02,-905.63"/>
<polygon fill="#757575" stroke="#757575" points="129.61,-909.1 139.97,-906.87 130.48,-902.16 129.61,-909.1"/>
</g>
<!-- common/WidgetHeader.tsx -->
<g id="node27" class="node">
<title>common/WidgetHeader.tsx</title>
<path fill="none" stroke="#c6c5fe" d="M528.33,-1271.5C528.33,-1271.5 362.67,-1271.5 362.67,-1271.5 358.83,-1271.5 355,-1267.67 355,-1263.83 355,-1263.83 355,-1256.17 355,-1256.17 355,-1252.33 358.83,-1248.5 362.67,-1248.5 362.67,-1248.5 528.33,-1248.5 528.33,-1248.5 532.17,-1248.5 536,-1252.33 536,-1256.17 536,-1256.17 536,-1263.83 536,-1263.83 536,-1267.67 532.17,-1271.5 528.33,-1271.5"/>
<text text-anchor="middle" x="445.5" y="-1256.3" font-family="Arial" font-size="14.00" fill="#c6c5fe">common/WidgetHeader.tsx</text>
</g>
<!-- Dashboard.tsx&#45;&gt;common/WidgetHeader.tsx -->
<g id="edge31" class="edge">
<title>Dashboard.tsx&#45;&gt;common/WidgetHeader.tsx</title>
<path fill="none" stroke="#757575" d="M59.16,-907.53C85.6,-955.89 194.78,-1143.9 340,-1234 347.14,-1238.43 354.99,-1242.1 363.08,-1245.15"/>
<polygon fill="#757575" stroke="#757575" points="362.07,-1248.5 372.66,-1248.45 364.35,-1241.89 362.07,-1248.5"/>
</g>
<!-- common/WidgetHeader.tsx&#45;&gt;../constants/appConstants.ts -->
<g id="edge43" class="edge">
<title>common/WidgetHeader.tsx&#45;&gt;../constants/appConstants.ts</title>
<path fill="none" stroke="#757575" d="M536.08,-1248.76C723.78,-1225.06 1142.15,-1171.48 1155,-1163 1180.96,-1145.87 1171.09,-1126.89 1191,-1103 1216.23,-1072.73 1421.36,-897.71 1488.97,-840.26"/>
<polygon fill="#757575" stroke="#757575" points="1491.51,-842.7 1496.87,-833.55 1486.98,-837.36 1491.51,-842.7"/>
</g>
<!-- SecurityLevelSelector.tsx&#45;&gt;../constants/appConstants.ts -->
<g id="edge33" class="edge">
<title>SecurityLevelSelector.tsx&#45;&gt;../constants/appConstants.ts</title>
<path fill="none" stroke="#757575" d="M808.81,-860.12C895.63,-860.04 1035.75,-856.38 1155,-837 1171.39,-834.34 1174.56,-829.37 1191,-827 1262.78,-816.64 1344.56,-815.56 1407.41,-816.98"/>
<polygon fill="#757575" stroke="#757575" points="1407.64,-820.49 1417.73,-817.24 1407.82,-813.49 1407.64,-820.49"/>
</g>
<!-- SecurityLevelSelector.tsx&#45;&gt;../constants/testIds.ts -->
<g id="edge34" class="edge">
<title>SecurityLevelSelector.tsx&#45;&gt;../constants/testIds.ts</title>
<path fill="none" stroke="#757575" d="M808.54,-851.83C897.9,-841.47 1042.7,-816.99 1155,-761 1201.42,-737.86 1245.38,-694.93 1268.53,-670.1"/>
<polygon fill="#757575" stroke="#757575" points="1271.12,-672.45 1275.3,-662.72 1265.96,-667.72 1271.12,-672.45"/>
</g>
<!-- SecurityLevelSelector.tsx&#45;&gt;../hooks/useCIAOptions.ts -->
<g id="edge35" class="edge">
<title>SecurityLevelSelector.tsx&#45;&gt;../hooks/useCIAOptions.ts</title>
<path fill="none" stroke="#757575" d="M726.34,-870.76C728.74,-930.19 747.87,-1199.52 899,-1323 908.25,-1330.56 919.18,-1335.83 930.69,-1339.44"/>
<polygon fill="#757575" stroke="#757575" points="929.9,-1342.85 940.47,-1342.1 931.73,-1336.1 929.9,-1342.85"/>
</g>
<!-- SecurityLevelSelector.tsx&#45;&gt;common/KeyValuePair.tsx -->
<g id="edge36" class="edge">
<title>SecurityLevelSelector.tsx&#45;&gt;common/KeyValuePair.tsx</title>
<path fill="none" stroke="#757575" d="M737.09,-847.29C763.07,-819.21 828.32,-744.84 863,-671 890.67,-612.07 851.06,-573.05 899,-529 907.74,-520.97 918.32,-515.36 929.61,-511.53"/>
<polygon fill="#757575" stroke="#757575" points="930.62,-514.88 939.23,-508.71 928.64,-508.16 930.62,-514.88"/>
</g>
<!-- common/KeyValuePair.tsx&#45;&gt;../constants/testIds.ts -->
<g id="edge38" class="edge">
<title>common/KeyValuePair.tsx&#45;&gt;../constants/testIds.ts</title>
<path fill="none" stroke="#757575" d="M1114.51,-515.28C1128.49,-518.42 1142.47,-522.83 1155,-529 1204.71,-553.49 1248.59,-603.22 1270.58,-631.03"/>
<polygon fill="#757575" stroke="#757575" points="1268.03,-633.46 1276.92,-639.23 1273.57,-629.18 1268.03,-633.46"/>
</g>
<!-- Selection.tsx -->
<g id="node30" class="node">
<title>Selection.tsx</title>
<path fill="none" stroke="#c6c5fe" d="M1065.83,-321.5C1065.83,-321.5 988.17,-321.5 988.17,-321.5 984.33,-321.5 980.5,-317.67 980.5,-313.83 980.5,-313.83 980.5,-306.17 980.5,-306.17 980.5,-302.33 984.33,-298.5 988.17,-298.5 988.17,-298.5 1065.83,-298.5 1065.83,-298.5 1069.67,-298.5 1073.5,-302.33 1073.5,-306.17 1073.5,-306.17 1073.5,-313.83 1073.5,-313.83 1073.5,-317.67 1069.67,-321.5 1065.83,-321.5"/>
<text text-anchor="middle" x="1027" y="-306.3" font-family="Arial" font-size="14.00" fill="#c6c5fe">Selection.tsx</text>
</g>
<!-- Selection.tsx&#45;&gt;../constants/testIds.ts -->
<g id="edge37" class="edge">
<title>Selection.tsx&#45;&gt;../constants/testIds.ts</title>
<path fill="none" stroke="#757575" d="M1073.61,-309.16C1100.04,-310.96 1132.43,-317.38 1155,-336 1249.38,-413.89 1276.43,-571.38 1283.35,-629.13"/>
<polygon fill="#757575" stroke="#757575" points="1279.89,-629.75 1284.47,-639.3 1286.85,-628.98 1279.89,-629.75"/>
</g>
<!-- common/MetricsCard.tsx&#45;&gt;../constants/testIds.ts -->
<g id="edge39" class="edge">
<title>common/MetricsCard.tsx&#45;&gt;../constants/testIds.ts</title>
<path fill="none" stroke="#757575" d="M1107.93,-601.54C1123.61,-604.28 1139.88,-607.45 1155,-611 1184.63,-617.96 1217.38,-628 1242.66,-636.29"/>
<polygon fill="#757575" stroke="#757575" points="1241.72,-639.66 1252.31,-639.48 1243.92,-633.02 1241.72,-639.66"/>
</g>
<!-- common/StatusBadge.tsx&#45;&gt;../constants/testIds.ts -->
<g id="edge40" class="edge">
<title>common/StatusBadge.tsx&#45;&gt;../constants/testIds.ts</title>
<path fill="none" stroke="#757575" d="M1113.03,-637.6C1142.51,-639.89 1175.47,-642.45 1204.61,-644.72"/>
<polygon fill="#757575" stroke="#757575" points="1204.51,-648.22 1214.75,-645.5 1205.05,-641.24 1204.51,-648.22"/>
</g>
<!-- common/ValueDisplay.tsx&#45;&gt;../constants/testIds.ts -->
<g id="edge41" class="edge">
<title>common/ValueDisplay.tsx&#45;&gt;../constants/testIds.ts</title>
<path fill="none" stroke="#757575" d="M1113.02,-435.79C1127.85,-439.76 1142.5,-445.56 1155,-454 1221,-498.56 1261.94,-588.8 1277.88,-629.83"/>
<polygon fill="#757575" stroke="#757575" points="1274.67,-631.25 1281.47,-639.37 1281.22,-628.78 1274.67,-631.25"/>
</g>
<!-- common/WidgetContainer.tsx&#45;&gt;../constants/testIds.ts -->
<g id="edge42" class="edge">
<title>common/WidgetContainer.tsx&#45;&gt;../constants/testIds.ts</title>
<path fill="none" stroke="#757575" d="M1123.06,-560.51C1134,-563.06 1144.85,-566.18 1155,-570 1196.08,-585.45 1238.28,-614.52 1263.18,-633.3"/>
<polygon fill="#757575" stroke="#757575" points="1261.17,-636.17 1271.24,-639.48 1265.43,-630.62 1261.17,-636.17"/>
</g>
<!-- widgets/CIAImpactSummaryWidget.tsx -->
<g id="node35" class="node">
<title>widgets/CIAImpactSummaryWidget.tsx</title>
<path fill="none" stroke="#c6c5fe" d="M843.83,-439.5C843.83,-439.5 606.17,-439.5 606.17,-439.5 602.33,-439.5 598.5,-435.67 598.5,-431.83 598.5,-431.83 598.5,-424.17 598.5,-424.17 598.5,-420.33 602.33,-416.5 606.17,-416.5 606.17,-416.5 843.83,-416.5 843.83,-416.5 847.67,-416.5 851.5,-420.33 851.5,-424.17 851.5,-424.17 851.5,-431.83 851.5,-431.83 851.5,-435.67 847.67,-439.5 843.83,-439.5"/>
<text text-anchor="middle" x="725" y="-424.3" font-family="Arial" font-size="14.00" fill="#c6c5fe">widgets/CIAImpactSummaryWidget.tsx</text>
</g>
<!-- widgets/CIAImpactSummaryWidget.tsx&#45;&gt;../constants/testIds.ts -->
<g id="edge58" class="edge">
<title>widgets/CIAImpactSummaryWidget.tsx&#45;&gt;../constants/testIds.ts</title>
<path fill="none" stroke="#757575" d="M804.19,-416.48C833.81,-412.65 867.89,-408.88 899,-407 1012.57,-400.13 1057.4,-348.52 1155,-407 1238.13,-456.81 1271.28,-579.65 1281.6,-629.48"/>
<polygon fill="#757575" stroke="#757575" points="1278.2,-630.33 1283.56,-639.47 1285.07,-628.98 1278.2,-630.33"/>
</g>
<!-- widgets/CIAImpactSummaryWidget.tsx&#45;&gt;common/ValueDisplay.tsx -->
<g id="edge59" class="edge">
<title>widgets/CIAImpactSummaryWidget.tsx&#45;&gt;common/ValueDisplay.tsx</title>
<path fill="none" stroke="#757575" d="M851.92,-428C878.28,-428 905.65,-428 930.67,-428"/>
<polygon fill="#757575" stroke="#757575" points="930.87,-431.5 940.87,-428 930.87,-424.5 930.87,-431.5"/>
</g>
</g>
</svg>
