<?xml version="1.0" encoding="UTF-8" standalone="no"?>
<!DOCTYPE svg PUBLIC "-//W3C//DTD SVG 1.1//EN"
 "http://www.w3.org/Graphics/SVG/1.1/DTD/svg11.dtd">
<!-- Generated by graphviz version 2.43.0 (0)
 -->
<!-- Title: G Pages: 1 -->
<svg width="2018pt" height="2337pt"
 viewBox="0.00 0.00 2018.20 2336.70" xmlns="http://www.w3.org/2000/svg" xmlns:xlink="http://www.w3.org/1999/xlink">
<g id="graph0" class="graph" transform="scale(1 1) rotate(0) translate(21.6 2315.1)">
<title>G</title>
<polygon fill="#111111" stroke="transparent" points="-21.6,21.6 -21.6,-2315.1 1996.6,-2315.1 1996.6,21.6 -21.6,21.6"/>
<!-- ../constants/appConstants.ts -->
<g id="node1" class="node">
<title>../constants/appConstants.ts</title>
<path fill="none" stroke="#c6c5fe" d="M1531.83,-1571C1531.83,-1571 1360.17,-1571 1360.17,-1571 1356.33,-1571 1352.5,-1567.17 1352.5,-1563.33 1352.5,-1563.33 1352.5,-1555.67 1352.5,-1555.67 1352.5,-1551.83 1356.33,-1548 1360.17,-1548 1360.17,-1548 1531.83,-1548 1531.83,-1548 1535.67,-1548 1539.5,-1551.83 1539.5,-1555.67 1539.5,-1555.67 1539.5,-1563.33 1539.5,-1563.33 1539.5,-1567.17 1535.67,-1571 1531.83,-1571"/>
<text text-anchor="middle" x="1446" y="-1555.8" font-family="Arial" font-size="14.00" fill="#c6c5fe">../constants/appConstants.ts</text>
</g>
<!-- ../constants/riskConstants.ts -->
<g id="node2" class="node">
<title>../constants/riskConstants.ts</title>
<path fill="none" stroke="#cfffac" d="M1967.33,-1551C1967.33,-1551 1797.67,-1551 1797.67,-1551 1793.83,-1551 1790,-1547.17 1790,-1543.33 1790,-1543.33 1790,-1535.67 1790,-1535.67 1790,-1531.83 1793.83,-1528 1797.67,-1528 1797.67,-1528 1967.33,-1528 1967.33,-1528 1971.17,-1528 1975,-1531.83 1975,-1535.67 1975,-1535.67 1975,-1543.33 1975,-1543.33 1975,-1547.17 1971.17,-1551 1967.33,-1551"/>
<text text-anchor="middle" x="1882.5" y="-1535.8" font-family="Arial" font-size="14.00" fill="#cfffac">../constants/riskConstants.ts</text>
</g>
<!-- ../constants/appConstants.ts&#45;&gt;../constants/riskConstants.ts -->
<g id="edge1" class="edge">
<title>../constants/appConstants.ts&#45;&gt;../constants/riskConstants.ts</title>
<path fill="none" stroke="#757575" d="M1539.68,-1555.23C1610.14,-1551.99 1707,-1547.53 1779.63,-1544.19"/>
<polygon fill="#757575" stroke="#757575" points="1779.88,-1547.68 1789.71,-1543.73 1779.56,-1540.69 1779.88,-1547.68"/>
</g>
<!-- ../constants/uiConstants.ts -->
<g id="node3" class="node">
<title>../constants/uiConstants.ts</title>
<path fill="none" stroke="#cfffac" d="M1746.33,-1882C1746.33,-1882 1586.67,-1882 1586.67,-1882 1582.83,-1882 1579,-1878.17 1579,-1874.33 1579,-1874.33 1579,-1866.67 1579,-1866.67 1579,-1862.83 1582.83,-1859 1586.67,-1859 1586.67,-1859 1746.33,-1859 1746.33,-1859 1750.17,-1859 1754,-1862.83 1754,-1866.67 1754,-1866.67 1754,-1874.33 1754,-1874.33 1754,-1878.17 1750.17,-1882 1746.33,-1882"/>
<text text-anchor="middle" x="1666.5" y="-1866.8" font-family="Arial" font-size="14.00" fill="#cfffac">../constants/uiConstants.ts</text>
</g>
<!-- ../constants/appConstants.ts&#45;&gt;../constants/uiConstants.ts -->
<g id="edge2" class="edge">
<title>../constants/appConstants.ts&#45;&gt;../constants/uiConstants.ts</title>
<path fill="none" stroke="#757575" d="M1455.3,-1571.31C1488.22,-1618.17 1609.85,-1791.28 1651.44,-1850.49"/>
<polygon fill="#757575" stroke="#757575" points="1648.58,-1852.51 1657.19,-1858.68 1654.31,-1848.48 1648.58,-1852.51"/>
</g>
<!-- ../types/cia.tsx -->
<g id="node4" class="node">
<title>../types/cia.tsx</title>
<path fill="none" stroke="#c6c5fe" d="M1709.83,-926C1709.83,-926 1623.17,-926 1623.17,-926 1619.33,-926 1615.5,-922.17 1615.5,-918.33 1615.5,-918.33 1615.5,-910.67 1615.5,-910.67 1615.5,-906.83 1619.33,-903 1623.17,-903 1623.17,-903 1709.83,-903 1709.83,-903 1713.67,-903 1717.5,-906.83 1717.5,-910.67 1717.5,-910.67 1717.5,-918.33 1717.5,-918.33 1717.5,-922.17 1713.67,-926 1709.83,-926"/>
<text text-anchor="middle" x="1666.5" y="-910.8" font-family="Arial" font-size="14.00" fill="#c6c5fe">../types/cia.tsx</text>
</g>
<!-- ../constants/appConstants.ts&#45;&gt;../types/cia.tsx -->
<g id="edge3" class="edge">
<title>../constants/appConstants.ts&#45;&gt;../types/cia.tsx</title>
<path fill="none" stroke="#757575" d="M1475.41,-1547.83C1497.29,-1537.36 1526.49,-1519.88 1543,-1495.5 1607.44,-1400.36 1652.55,-1030.31 1663.12,-936.31"/>
<polygon fill="#757575" stroke="#757575" points="1666.61,-936.58 1664.24,-926.25 1659.66,-935.8 1666.61,-936.58"/>
</g>
<!-- ../types/cia.tsx&#45;&gt;../constants/riskConstants.ts -->
<g id="edge17" class="edge">
<title>../types/cia.tsx&#45;&gt;../constants/riskConstants.ts</title>
<path fill="none" stroke="#757575" d="M1671.49,-926.15C1697.27,-1001.45 1840.32,-1419.24 1874.27,-1518.39"/>
<polygon fill="#757575" stroke="#757575" points="1870.99,-1519.6 1877.54,-1527.93 1877.61,-1517.33 1870.99,-1519.6"/>
</g>
<!-- ../constants/colorConstants.ts -->
<g id="node5" class="node">
<title>../constants/colorConstants.ts</title>
<path fill="none" stroke="#c6c5fe" d="M1535.33,-673C1535.33,-673 1356.67,-673 1356.67,-673 1352.83,-673 1349,-669.17 1349,-665.33 1349,-665.33 1349,-657.67 1349,-657.67 1349,-653.83 1352.83,-650 1356.67,-650 1356.67,-650 1535.33,-650 1535.33,-650 1539.17,-650 1543,-653.83 1543,-657.67 1543,-657.67 1543,-665.33 1543,-665.33 1543,-669.17 1539.17,-673 1535.33,-673"/>
<text text-anchor="middle" x="1446" y="-657.8" font-family="Arial" font-size="14.00" fill="#c6c5fe">../constants/colorConstants.ts</text>
</g>
<!-- ../constants/colorConstants.ts&#45;&gt;../types/cia.tsx -->
<g id="edge4" class="edge">
<title>../constants/colorConstants.ts&#45;&gt;../types/cia.tsx</title>
<path fill="none" stroke="#757575" d="M1516.86,-673.12C1526.25,-676.71 1535.29,-681.39 1543,-687.5 1612.38,-742.49 1647.66,-847.93 1660.13,-893.1"/>
<polygon fill="#757575" stroke="#757575" points="1656.8,-894.22 1662.75,-902.98 1663.57,-892.42 1656.8,-894.22"/>
</g>
<!-- ../constants/coreConstants.ts -->
<g id="node6" class="node">
<title>../constants/coreConstants.ts</title>
<path fill="none" stroke="#c6c5fe" d="M1089.33,-1259C1089.33,-1259 913.67,-1259 913.67,-1259 909.83,-1259 906,-1255.17 906,-1251.33 906,-1251.33 906,-1243.67 906,-1243.67 906,-1239.83 909.83,-1236 913.67,-1236 913.67,-1236 1089.33,-1236 1089.33,-1236 1093.17,-1236 1097,-1239.83 1097,-1243.67 1097,-1243.67 1097,-1251.33 1097,-1251.33 1097,-1255.17 1093.17,-1259 1089.33,-1259"/>
<text text-anchor="middle" x="1001.5" y="-1243.8" font-family="Arial" font-size="14.00" fill="#c6c5fe">../constants/coreConstants.ts</text>
</g>
<!-- ../constants/coreConstants.ts&#45;&gt;../types/cia.tsx -->
<g id="edge5" class="edge">
<title>../constants/coreConstants.ts&#45;&gt;../types/cia.tsx</title>
<path fill="none" stroke="#757575" d="M1026.63,-1235.96C1102.85,-1199.41 1345.14,-1082.63 1543,-980.5 1574.79,-964.09 1610.79,-944.58 1635.49,-931.05"/>
<polygon fill="#757575" stroke="#757575" points="1637.29,-934.05 1644.38,-926.18 1633.93,-927.92 1637.29,-934.05"/>
</g>
<!-- ../constants/testIds.ts -->
<g id="node7" class="node">
<title>../constants/testIds.ts</title>
<path fill="none" stroke="#c6c5fe" d="M1290.33,-1377C1290.33,-1377 1162.67,-1377 1162.67,-1377 1158.83,-1377 1155,-1373.17 1155,-1369.33 1155,-1369.33 1155,-1361.67 1155,-1361.67 1155,-1357.83 1158.83,-1354 1162.67,-1354 1162.67,-1354 1290.33,-1354 1290.33,-1354 1294.17,-1354 1298,-1357.83 1298,-1361.67 1298,-1361.67 1298,-1369.33 1298,-1369.33 1298,-1373.17 1294.17,-1377 1290.33,-1377"/>
<text text-anchor="middle" x="1226.5" y="-1361.8" font-family="Arial" font-size="14.00" fill="#c6c5fe">../constants/testIds.ts</text>
</g>
<!-- ../constants/testIds.ts&#45;&gt;../constants/appConstants.ts -->
<g id="edge6" class="edge">
<title>../constants/testIds.ts&#45;&gt;../constants/appConstants.ts</title>
<path fill="none" stroke="#757575" d="M1232.61,-1377.4C1246.5,-1408.25 1287.99,-1491.35 1349,-1533.5 1355.15,-1537.75 1361.97,-1541.31 1369.06,-1544.28"/>
<polygon fill="#757575" stroke="#757575" points="1368.25,-1547.72 1378.84,-1547.99 1370.73,-1541.18 1368.25,-1547.72"/>
</g>
<!-- ../constants/testIds.ts&#45;&gt;../types/cia.tsx -->
<g id="edge7" class="edge">
<title>../constants/testIds.ts&#45;&gt;../types/cia.tsx</title>
<path fill="none" stroke="#757575" d="M1298.28,-1370.46C1368.88,-1371.43 1476.18,-1361.56 1543,-1301.5 1653.98,-1201.74 1665.18,-1002.24 1665.73,-936.25"/>
<polygon fill="#757575" stroke="#757575" points="1669.23,-936.18 1665.74,-926.18 1662.23,-936.18 1669.23,-936.18"/>
</g>
<!-- ../hooks/useCIAOptions.ts -->
<g id="node8" class="node">
<title>../hooks/useCIAOptions.ts</title>
<path fill="none" stroke="#c6c5fe" d="M1305.33,-328C1305.33,-328 1147.67,-328 1147.67,-328 1143.83,-328 1140,-324.17 1140,-320.33 1140,-320.33 1140,-312.67 1140,-312.67 1140,-308.83 1143.83,-305 1147.67,-305 1147.67,-305 1305.33,-305 1305.33,-305 1309.17,-305 1313,-308.83 1313,-312.67 1313,-312.67 1313,-320.33 1313,-320.33 1313,-324.17 1309.17,-328 1305.33,-328"/>
<text text-anchor="middle" x="1226.5" y="-312.8" font-family="Arial" font-size="14.00" fill="#c6c5fe">../hooks/useCIAOptions.ts</text>
</g>
<!-- ../hooks/useCIAOptions.ts&#45;&gt;../types/cia.tsx -->
<g id="edge10" class="edge">
<title>../hooks/useCIAOptions.ts&#45;&gt;../types/cia.tsx</title>
<path fill="none" stroke="#757575" d="M1273.63,-304.98C1341.5,-291.02 1468.28,-276.83 1543,-342.5 1628.21,-417.39 1657.99,-797.23 1664.19,-892.7"/>
<polygon fill="#757575" stroke="#757575" points="1660.71,-893.13 1664.83,-902.9 1667.7,-892.69 1660.71,-893.13"/>
</g>
<!-- ../hooks/useCIAOptions.ts&#45;&gt;../constants/colorConstants.ts -->
<g id="edge8" class="edge">
<title>../hooks/useCIAOptions.ts&#45;&gt;../constants/colorConstants.ts</title>
<path fill="none" stroke="#757575" d="M1232.67,-328.15C1246.57,-359.62 1285.49,-449.15 1313,-525.5 1331.16,-575.89 1309.5,-604.33 1349,-640.5 1350.51,-641.88 1352.09,-643.18 1353.73,-644.4"/>
<polygon fill="#757575" stroke="#757575" points="1352.05,-647.48 1362.37,-649.87 1355.79,-641.57 1352.05,-647.48"/>
</g>
<!-- ../types/cia&#45;services.ts -->
<g id="node9" class="node">
<title>../types/cia&#45;services.ts</title>
<path fill="none" stroke="#c6c5fe" d="M1512.83,-753C1512.83,-753 1379.17,-753 1379.17,-753 1375.33,-753 1371.5,-749.17 1371.5,-745.33 1371.5,-745.33 1371.5,-737.67 1371.5,-737.67 1371.5,-733.83 1375.33,-730 1379.17,-730 1379.17,-730 1512.83,-730 1512.83,-730 1516.67,-730 1520.5,-733.83 1520.5,-737.67 1520.5,-737.67 1520.5,-745.33 1520.5,-745.33 1520.5,-749.17 1516.67,-753 1512.83,-753"/>
<text text-anchor="middle" x="1446" y="-737.8" font-family="Arial" font-size="14.00" fill="#c6c5fe">../types/cia&#45;services.ts</text>
</g>
<!-- ../hooks/useCIAOptions.ts&#45;&gt;../types/cia&#45;services.ts -->
<g id="edge9" class="edge">
<title>../hooks/useCIAOptions.ts&#45;&gt;../types/cia&#45;services.ts</title>
<path fill="none" stroke="#757575" d="M1230.28,-328.29C1243.63,-384.19 1302.43,-622.33 1349,-681.5 1364.11,-700.7 1387.18,-715.4 1406.92,-725.45"/>
<polygon fill="#757575" stroke="#757575" points="1405.48,-728.64 1416,-729.87 1408.54,-722.34 1405.48,-728.64"/>
</g>
<!-- ../types/cia&#45;services.ts&#45;&gt;../types/cia.tsx -->
<g id="edge16" class="edge">
<title>../types/cia&#45;services.ts&#45;&gt;../types/cia.tsx</title>
<path fill="none" stroke="#757575" d="M1511.3,-753.04C1522.38,-756.64 1533.41,-761.35 1543,-767.5 1594.44,-800.49 1635.21,-861.98 1654.08,-893.97"/>
<polygon fill="#757575" stroke="#757575" points="1651.19,-895.97 1659.22,-902.89 1657.26,-892.48 1651.19,-895.97"/>
</g>
<!-- ../services/ciaContentService.ts -->
<g id="node10" class="node">
<title>../services/ciaContentService.ts</title>
<path fill="none" stroke="#c6c5fe" d="M1096.33,-1061C1096.33,-1061 906.67,-1061 906.67,-1061 902.83,-1061 899,-1057.17 899,-1053.33 899,-1053.33 899,-1045.67 899,-1045.67 899,-1041.83 902.83,-1038 906.67,-1038 906.67,-1038 1096.33,-1038 1096.33,-1038 1100.17,-1038 1104,-1041.83 1104,-1045.67 1104,-1045.67 1104,-1053.33 1104,-1053.33 1104,-1057.17 1100.17,-1061 1096.33,-1061"/>
<text text-anchor="middle" x="1001.5" y="-1045.8" font-family="Arial" font-size="14.00" fill="#c6c5fe">../services/ciaContentService.ts</text>
</g>
<!-- ../services/ciaContentService.ts&#45;&gt;../constants/riskConstants.ts -->
<g id="edge11" class="edge">
<title>../services/ciaContentService.ts&#45;&gt;../constants/riskConstants.ts</title>
<path fill="none" stroke="#757575" d="M1028.12,-1061.18C1048.74,-1070.69 1078.41,-1084.6 1104,-1097.5 1405.19,-1249.3 1755.03,-1461.72 1854.11,-1522.59"/>
<polygon fill="#757575" stroke="#757575" points="1852.3,-1525.59 1862.65,-1527.85 1855.97,-1519.62 1852.3,-1525.59"/>
</g>
<!-- ../services/ciaContentService.ts&#45;&gt;../types/cia.tsx -->
<g id="edge14" class="edge">
<title>../services/ciaContentService.ts&#45;&gt;../types/cia.tsx</title>
<path fill="none" stroke="#757575" d="M1073.25,-1037.93C1176.85,-1020.58 1375.67,-985.77 1543,-947.5 1567.11,-941.99 1593.64,-934.96 1615.83,-928.81"/>
<polygon fill="#757575" stroke="#757575" points="1617.01,-932.11 1625.69,-926.05 1615.12,-925.37 1617.01,-932.11"/>
</g>
<!-- ../services/ciaContentService.ts&#45;&gt;../hooks/useCIAOptions.ts -->
<g id="edge12" class="edge">
<title>../services/ciaContentService.ts&#45;&gt;../hooks/useCIAOptions.ts</title>
<path fill="none" stroke="#757575" d="M1006,-1037.99C1031.23,-955.05 1185.19,-449 1218.96,-338.01"/>
<polygon fill="#757575" stroke="#757575" points="1222.36,-338.85 1221.92,-328.26 1215.66,-336.81 1222.36,-338.85"/>
</g>
<!-- ../services/ciaContentService.ts&#45;&gt;../types/cia&#45;services.ts -->
<g id="edge13" class="edge">
<title>../services/ciaContentService.ts&#45;&gt;../types/cia&#45;services.ts</title>
<path fill="none" stroke="#757575" d="M1063.12,-1037.96C1076.91,-1034.25 1091.24,-1029.5 1104,-1023.5 1247.88,-955.8 1382.01,-813.24 1428.1,-761.12"/>
<polygon fill="#757575" stroke="#757575" points="1431.01,-763.11 1434.97,-753.28 1425.75,-758.49 1431.01,-763.11"/>
</g>
<!-- ../styles/gridStyles.ts -->
<g id="node11" class="node">
<title>../styles/gridStyles.ts</title>
<path fill="none" stroke="#cfffac" d="M284.33,-23C284.33,-23 159.67,-23 159.67,-23 155.83,-23 152,-19.17 152,-15.33 152,-15.33 152,-7.67 152,-7.67 152,-3.83 155.83,0 159.67,0 159.67,0 284.33,0 284.33,0 288.17,0 292,-3.83 292,-7.67 292,-7.67 292,-15.33 292,-15.33 292,-19.17 288.17,-23 284.33,-23"/>
<text text-anchor="middle" x="222" y="-7.8" font-family="Arial" font-size="14.00" fill="#cfffac">../styles/gridStyles.ts</text>
</g>
<!-- ../tests/testSetupHelpers.tsx -->
<g id="node12" class="node">
<title>../tests/testSetupHelpers.tsx</title>
<path fill="none" stroke="#c6c5fe" d="M1530.83,-632C1530.83,-632 1361.17,-632 1361.17,-632 1357.33,-632 1353.5,-628.17 1353.5,-624.33 1353.5,-624.33 1353.5,-616.67 1353.5,-616.67 1353.5,-612.83 1357.33,-609 1361.17,-609 1361.17,-609 1530.83,-609 1530.83,-609 1534.67,-609 1538.5,-612.83 1538.5,-616.67 1538.5,-616.67 1538.5,-624.33 1538.5,-624.33 1538.5,-628.17 1534.67,-632 1530.83,-632"/>
<text text-anchor="middle" x="1446" y="-616.8" font-family="Arial" font-size="14.00" fill="#c6c5fe">../tests/testSetupHelpers.tsx</text>
</g>
<!-- ../tests/testSetupHelpers.tsx&#45;&gt;../types/cia.tsx -->
<g id="edge15" class="edge">
<title>../tests/testSetupHelpers.tsx&#45;&gt;../types/cia.tsx</title>
<path fill="none" stroke="#757575" d="M1529.59,-632.02C1534.37,-634.39 1538.89,-637.19 1543,-640.5 1625.43,-706.87 1654.17,-840.39 1662.53,-892.74"/>
<polygon fill="#757575" stroke="#757575" points="1659.11,-893.52 1664.05,-902.89 1666.03,-892.48 1659.11,-893.52"/>
</g>
<!-- ../types/widgets.tsx -->
<g id="node13" class="node">
<title>../types/widgets.tsx</title>
<path fill="none" stroke="#c6c5fe" d="M1059.33,-639C1059.33,-639 943.67,-639 943.67,-639 939.83,-639 936,-635.17 936,-631.33 936,-631.33 936,-623.67 936,-623.67 936,-619.83 939.83,-616 943.67,-616 943.67,-616 1059.33,-616 1059.33,-616 1063.17,-616 1067,-619.83 1067,-623.67 1067,-623.67 1067,-631.33 1067,-631.33 1067,-635.17 1063.17,-639 1059.33,-639"/>
<text text-anchor="middle" x="1001.5" y="-623.8" font-family="Arial" font-size="14.00" fill="#c6c5fe">../types/widgets.tsx</text>
</g>
<!-- ../types/widgets.tsx&#45;&gt;../types/cia.tsx -->
<g id="edge18" class="edge">
<title>../types/widgets.tsx&#45;&gt;../types/cia.tsx</title>
<path fill="none" stroke="#757575" d="M1067.24,-637.2C1206.43,-658.26 1523.27,-707.32 1543,-720.5 1607.15,-763.36 1644.35,-852.42 1658.66,-893.23"/>
<polygon fill="#757575" stroke="#757575" points="1655.43,-894.6 1661.95,-902.95 1662.06,-892.36 1655.43,-894.6"/>
</g>
<!-- ../utils/widgetHelpers.tsx -->
<g id="node14" class="node">
<title>../utils/widgetHelpers.tsx</title>
<path fill="none" stroke="#c6c5fe" d="M1074.83,-483C1074.83,-483 928.17,-483 928.17,-483 924.33,-483 920.5,-479.17 920.5,-475.33 920.5,-475.33 920.5,-467.67 920.5,-467.67 920.5,-463.83 924.33,-460 928.17,-460 928.17,-460 1074.83,-460 1074.83,-460 1078.67,-460 1082.5,-463.83 1082.5,-467.67 1082.5,-467.67 1082.5,-475.33 1082.5,-475.33 1082.5,-479.17 1078.67,-483 1074.83,-483"/>
<text text-anchor="middle" x="1001.5" y="-467.8" font-family="Arial" font-size="14.00" fill="#c6c5fe">../utils/widgetHelpers.tsx</text>
</g>
<!-- ../utils/widgetHelpers.tsx&#45;&gt;../constants/appConstants.ts -->
<g id="edge19" class="edge">
<title>../utils/widgetHelpers.tsx&#45;&gt;../constants/appConstants.ts</title>
<path fill="none" stroke="#757575" d="M1082.92,-483.09C1090.72,-486.74 1097.96,-491.45 1104,-497.5 1149.98,-543.6 1117.66,-578.35 1140,-639.5 1200.37,-804.73 1254.15,-829.72 1313,-995.5 1385.64,-1200.12 1429.65,-1460.79 1441.65,-1537.4"/>
<polygon fill="#757575" stroke="#757575" points="1438.25,-1538.36 1443.24,-1547.71 1445.17,-1537.29 1438.25,-1538.36"/>
</g>
<!-- ../utils/widgetHelpers.tsx&#45;&gt;../types/cia.tsx -->
<g id="edge21" class="edge">
<title>../utils/widgetHelpers.tsx&#45;&gt;../types/cia.tsx</title>
<path fill="none" stroke="#757575" d="M1082.98,-465.97C1201.11,-462.58 1420.64,-475.03 1543,-599.5 1627.47,-685.43 1655.25,-836.19 1662.93,-892.48"/>
<polygon fill="#757575" stroke="#757575" points="1659.5,-893.24 1664.25,-902.72 1666.44,-892.35 1659.5,-893.24"/>
</g>
<!-- ../utils/widgetHelpers.tsx&#45;&gt;../constants/colorConstants.ts -->
<g id="edge20" class="edge">
<title>../utils/widgetHelpers.tsx&#45;&gt;../constants/colorConstants.ts</title>
<path fill="none" stroke="#757575" d="M1051.56,-483.04C1068.29,-487.24 1087.06,-492.26 1104,-497.5 1198.43,-526.69 1238.25,-508.83 1313,-573.5 1338.56,-595.62 1322.02,-620.14 1349,-640.5 1351.14,-642.12 1353.39,-643.62 1355.71,-645.01"/>
<polygon fill="#757575" stroke="#757575" points="1354.53,-648.34 1365.02,-649.83 1357.75,-642.12 1354.53,-648.34"/>
</g>
<!-- ../utils/widgetRegistry.tsx -->
<g id="node15" class="node">
<title>../utils/widgetRegistry.tsx</title>
<path fill="none" stroke="#c6c5fe" d="M296.33,-1278C296.33,-1278 147.67,-1278 147.67,-1278 143.83,-1278 140,-1274.17 140,-1270.33 140,-1270.33 140,-1262.67 140,-1262.67 140,-1258.83 143.83,-1255 147.67,-1255 147.67,-1255 296.33,-1255 296.33,-1255 300.17,-1255 304,-1258.83 304,-1262.67 304,-1262.67 304,-1270.33 304,-1270.33 304,-1274.17 300.17,-1278 296.33,-1278"/>
<text text-anchor="middle" x="222" y="-1262.8" font-family="Arial" font-size="14.00" fill="#c6c5fe">../utils/widgetRegistry.tsx</text>
</g>
<!-- ../utils/widgetRegistry.tsx&#45;&gt;../constants/appConstants.ts -->
<g id="edge22" class="edge">
<title>../utils/widgetRegistry.tsx&#45;&gt;../constants/appConstants.ts</title>
<path fill="none" stroke="#757575" d="M224.23,-1278.28C231.5,-1345.47 270.76,-1679.89 340,-1751.5 519.2,-1936.86 643.54,-1871.74 899,-1906.5 990.16,-1918.9 1244.78,-1966.23 1313,-1904.5 1365.14,-1857.32 1304.3,-1648.21 1348.67,-1579.16"/>
<polygon fill="#757575" stroke="#757575" points="1351.57,-1581.14 1354.96,-1571.1 1346.05,-1576.83 1351.57,-1581.14"/>
</g>
<!-- ../utils/widgetRegistry.tsx&#45;&gt;../types/cia.tsx -->
<g id="edge24" class="edge">
<title>../utils/widgetRegistry.tsx&#45;&gt;../types/cia.tsx</title>
<path fill="none" stroke="#757575" d="M222.91,-1278.19C222.43,-1369.13 223.81,-1963.31 340,-2087.5 574.74,-2338.39 779.06,-2317.13 1104,-2205.5 1337.91,-2125.14 1420.39,-2078.3 1543,-1863.5 1637.73,-1697.53 1661.13,-1063.4 1664.9,-936.63"/>
<polygon fill="#757575" stroke="#757575" points="1668.41,-936.37 1665.2,-926.27 1661.41,-936.17 1668.41,-936.37"/>
</g>
<!-- ../utils/widgetRegistry.tsx&#45;&gt;../constants/coreConstants.ts -->
<g id="edge23" class="edge">
<title>../utils/widgetRegistry.tsx&#45;&gt;../constants/coreConstants.ts</title>
<path fill="none" stroke="#757575" d="M304.01,-1264.52C445.77,-1261.06 738.68,-1253.9 895.69,-1250.06"/>
<polygon fill="#757575" stroke="#757575" points="895.92,-1253.56 905.83,-1249.81 895.75,-1246.56 895.92,-1253.56"/>
</g>
<!-- ../utils/widgetRegistry.tsx&#45;&gt;../types/widgets.tsx -->
<g id="edge25" class="edge">
<title>../utils/widgetRegistry.tsx&#45;&gt;../types/widgets.tsx</title>
<path fill="none" stroke="#757575" d="M223.44,-1254.84C225.93,-1203.08 241.96,-990.83 340,-858.5 479.6,-670.07 784.25,-634.47 925.64,-628.35"/>
<polygon fill="#757575" stroke="#757575" points="926.09,-631.84 935.94,-627.95 925.81,-624.84 926.09,-631.84"/>
</g>
<!-- ../utils/widgetRegistry.tsx&#45;&gt;../utils/widgetHelpers.tsx -->
<g id="edge26" class="edge">
<title>../utils/widgetRegistry.tsx&#45;&gt;../utils/widgetHelpers.tsx</title>
<path fill="none" stroke="#757575" d="M224.04,-1254.55C230.6,-1181.51 268.31,-795.62 340,-705.5 480.62,-528.74 764.7,-485.29 910.17,-474.76"/>
<polygon fill="#757575" stroke="#757575" points="910.67,-478.23 920.41,-474.05 910.19,-471.25 910.67,-478.23"/>
</g>
<!-- RadarChart.tsx -->
<g id="node16" class="node">
<title>RadarChart.tsx</title>
<path fill="none" stroke="#c6c5fe" d="M491.33,-1742C491.33,-1742 399.67,-1742 399.67,-1742 395.83,-1742 392,-1738.17 392,-1734.33 392,-1734.33 392,-1726.67 392,-1726.67 392,-1722.83 395.83,-1719 399.67,-1719 399.67,-1719 491.33,-1719 491.33,-1719 495.17,-1719 499,-1722.83 499,-1726.67 499,-1726.67 499,-1734.33 499,-1734.33 499,-1738.17 495.17,-1742 491.33,-1742"/>
<text text-anchor="middle" x="445.5" y="-1726.8" font-family="Arial" font-size="14.00" fill="#c6c5fe">RadarChart.tsx</text>
</g>
<!-- ../utils/widgetRegistry.tsx&#45;&gt;RadarChart.tsx -->
<g id="edge27" class="edge">
<title>../utils/widgetRegistry.tsx&#45;&gt;RadarChart.tsx</title>
<path fill="none" stroke="#757575" d="M225.31,-1278.04C234.61,-1322.76 272.05,-1488.1 340,-1607.5 363.41,-1648.63 401.42,-1689.03 424.57,-1711.76"/>
<polygon fill="#757575" stroke="#757575" points="422.19,-1714.33 431.81,-1718.77 427.06,-1709.3 422.19,-1714.33"/>
</g>
<!-- common/index.ts -->
<g id="node17" class="node">
<title>common/index.ts</title>
<path fill="none" stroke="#c6c5fe" d="M777.33,-1446C777.33,-1446 672.67,-1446 672.67,-1446 668.83,-1446 665,-1442.17 665,-1438.33 665,-1438.33 665,-1430.67 665,-1430.67 665,-1426.83 668.83,-1423 672.67,-1423 672.67,-1423 777.33,-1423 777.33,-1423 781.17,-1423 785,-1426.83 785,-1430.67 785,-1430.67 785,-1438.33 785,-1438.33 785,-1442.17 781.17,-1446 777.33,-1446"/>
<text text-anchor="middle" x="725" y="-1430.8" font-family="Arial" font-size="14.00" fill="#c6c5fe">common/index.ts</text>
</g>
<!-- ../utils/widgetRegistry.tsx&#45;&gt;common/index.ts -->
<g id="edge28" class="edge">
<title>../utils/widgetRegistry.tsx&#45;&gt;common/index.ts</title>
<path fill="none" stroke="#757575" d="M246,-1278.16C269.38,-1289.8 306.77,-1307.88 340,-1321.5 447.69,-1365.65 474.62,-1378.23 587,-1408.5 608.89,-1414.4 633.1,-1419.46 655.01,-1423.51"/>
<polygon fill="#757575" stroke="#757575" points="654.43,-1426.96 664.89,-1425.3 655.67,-1420.07 654.43,-1426.96"/>
</g>
<!-- widgets/AvailabilityImpactWidget.tsx -->
<g id="node18" class="node">
<title>widgets/AvailabilityImpactWidget.tsx</title>
<path fill="none" stroke="#c6c5fe" d="M834.83,-1140C834.83,-1140 615.17,-1140 615.17,-1140 611.33,-1140 607.5,-1136.17 607.5,-1132.33 607.5,-1132.33 607.5,-1124.67 607.5,-1124.67 607.5,-1120.83 611.33,-1117 615.17,-1117 615.17,-1117 834.83,-1117 834.83,-1117 838.67,-1117 842.5,-1120.83 842.5,-1124.67 842.5,-1124.67 842.5,-1132.33 842.5,-1132.33 842.5,-1136.17 838.67,-1140 834.83,-1140"/>
<text text-anchor="middle" x="725" y="-1124.8" font-family="Arial" font-size="14.00" fill="#c6c5fe">widgets/AvailabilityImpactWidget.tsx</text>
</g>
<!-- ../utils/widgetRegistry.tsx&#45;&gt;widgets/AvailabilityImpactWidget.tsx -->
<g id="edge29" class="edge">
<title>../utils/widgetRegistry.tsx&#45;&gt;widgets/AvailabilityImpactWidget.tsx</title>
<path fill="none" stroke="#757575" d="M242.18,-1254.83C264.8,-1241.55 303.91,-1220.06 340,-1207.5 434.16,-1174.72 546.29,-1153.59 625,-1141.51"/>
<polygon fill="#757575" stroke="#757575" points="625.55,-1144.96 634.91,-1140.01 624.5,-1138.04 625.55,-1144.96"/>
</g>
<!-- widgets/BusinessImpactAnalysisWidget.tsx -->
<g id="node19" class="node">
<title>widgets/BusinessImpactAnalysisWidget.tsx</title>
<path fill="none" stroke="#c6c5fe" d="M855.33,-1610C855.33,-1610 594.67,-1610 594.67,-1610 590.83,-1610 587,-1606.17 587,-1602.33 587,-1602.33 587,-1594.67 587,-1594.67 587,-1590.83 590.83,-1587 594.67,-1587 594.67,-1587 855.33,-1587 855.33,-1587 859.17,-1587 863,-1590.83 863,-1594.67 863,-1594.67 863,-1602.33 863,-1602.33 863,-1606.17 859.17,-1610 855.33,-1610"/>
<text text-anchor="middle" x="725" y="-1594.8" font-family="Arial" font-size="14.00" fill="#c6c5fe">widgets/BusinessImpactAnalysisWidget.tsx</text>
</g>
<!-- ../utils/widgetRegistry.tsx&#45;&gt;widgets/BusinessImpactAnalysisWidget.tsx -->
<g id="edge30" class="edge">
<title>../utils/widgetRegistry.tsx&#45;&gt;widgets/BusinessImpactAnalysisWidget.tsx</title>
<path fill="none" stroke="#757575" d="M224.44,-1278.18C230.22,-1319.66 255.62,-1460.93 340,-1528.5 405.93,-1581.3 498.7,-1599.28 576.54,-1603.83"/>
<polygon fill="#757575" stroke="#757575" points="576.77,-1607.34 586.93,-1604.36 577.12,-1600.35 576.77,-1607.34"/>
</g>
<!-- widgets/CIAImpactSummaryWidget.tsx -->
<g id="node20" class="node">
<title>widgets/CIAImpactSummaryWidget.tsx</title>
<path fill="none" stroke="#c6c5fe" d="M843.83,-1487C843.83,-1487 606.17,-1487 606.17,-1487 602.33,-1487 598.5,-1483.17 598.5,-1479.33 598.5,-1479.33 598.5,-1471.67 598.5,-1471.67 598.5,-1467.83 602.33,-1464 606.17,-1464 606.17,-1464 843.83,-1464 843.83,-1464 847.67,-1464 851.5,-1467.83 851.5,-1471.67 851.5,-1471.67 851.5,-1479.33 851.5,-1479.33 851.5,-1483.17 847.67,-1487 843.83,-1487"/>
<text text-anchor="middle" x="725" y="-1471.8" font-family="Arial" font-size="14.00" fill="#c6c5fe">widgets/CIAImpactSummaryWidget.tsx</text>
</g>
<!-- ../utils/widgetRegistry.tsx&#45;&gt;widgets/CIAImpactSummaryWidget.tsx -->
<g id="edge31" class="edge">
<title>../utils/widgetRegistry.tsx&#45;&gt;widgets/CIAImpactSummaryWidget.tsx</title>
<path fill="none" stroke="#757575" d="M232.73,-1278.2C251.4,-1299.94 294.42,-1346.75 340,-1373.5 424.44,-1423.05 533.28,-1449.01 613.51,-1462.31"/>
<polygon fill="#757575" stroke="#757575" points="613.22,-1465.8 623.65,-1463.94 614.33,-1458.89 613.22,-1465.8"/>
</g>
<!-- widgets/ComplianceStatusWidget.tsx -->
<g id="node21" class="node">
<title>widgets/ComplianceStatusWidget.tsx</title>
<path fill="none" stroke="#c6c5fe" d="M837.33,-1219C837.33,-1219 612.67,-1219 612.67,-1219 608.83,-1219 605,-1215.17 605,-1211.33 605,-1211.33 605,-1203.67 605,-1203.67 605,-1199.83 608.83,-1196 612.67,-1196 612.67,-1196 837.33,-1196 837.33,-1196 841.17,-1196 845,-1199.83 845,-1203.67 845,-1203.67 845,-1211.33 845,-1211.33 845,-1215.17 841.17,-1219 837.33,-1219"/>
<text text-anchor="middle" x="725" y="-1203.8" font-family="Arial" font-size="14.00" fill="#c6c5fe">widgets/ComplianceStatusWidget.tsx</text>
</g>
<!-- ../utils/widgetRegistry.tsx&#45;&gt;widgets/ComplianceStatusWidget.tsx -->
<g id="edge32" class="edge">
<title>../utils/widgetRegistry.tsx&#45;&gt;widgets/ComplianceStatusWidget.tsx</title>
<path fill="none" stroke="#757575" d="M256.87,-1254.93C280,-1247.53 311.51,-1238.43 340,-1233.5 423.95,-1218.98 519.53,-1212.47 594.33,-1209.6"/>
<polygon fill="#757575" stroke="#757575" points="594.88,-1213.08 604.75,-1209.22 594.63,-1206.09 594.88,-1213.08"/>
</g>
<!-- widgets/ConfidentialityImpactWidget.tsx -->
<g id="node22" class="node">
<title>widgets/ConfidentialityImpactWidget.tsx</title>
<path fill="none" stroke="#c6c5fe" d="M845.33,-1061C845.33,-1061 604.67,-1061 604.67,-1061 600.83,-1061 597,-1057.17 597,-1053.33 597,-1053.33 597,-1045.67 597,-1045.67 597,-1041.83 600.83,-1038 604.67,-1038 604.67,-1038 845.33,-1038 845.33,-1038 849.17,-1038 853,-1041.83 853,-1045.67 853,-1045.67 853,-1053.33 853,-1053.33 853,-1057.17 849.17,-1061 845.33,-1061"/>
<text text-anchor="middle" x="725" y="-1045.8" font-family="Arial" font-size="14.00" fill="#c6c5fe">widgets/ConfidentialityImpactWidget.tsx</text>
</g>
<!-- ../utils/widgetRegistry.tsx&#45;&gt;widgets/ConfidentialityImpactWidget.tsx -->
<g id="edge33" class="edge">
<title>../utils/widgetRegistry.tsx&#45;&gt;widgets/ConfidentialityImpactWidget.tsx</title>
<path fill="none" stroke="#757575" d="M231.25,-1254.95C248.6,-1231.54 291.32,-1178.32 340,-1150.5 425.38,-1101.71 534.84,-1075.94 615.03,-1062.67"/>
<polygon fill="#757575" stroke="#757575" points="615.84,-1066.09 625.16,-1061.04 614.73,-1059.18 615.84,-1066.09"/>
</g>
<!-- widgets/CostEstimationWidget.tsx -->
<g id="node23" class="node">
<title>widgets/CostEstimationWidget.tsx</title>
<path fill="none" stroke="#c6c5fe" d="M827.83,-1569C827.83,-1569 622.17,-1569 622.17,-1569 618.33,-1569 614.5,-1565.17 614.5,-1561.33 614.5,-1561.33 614.5,-1553.67 614.5,-1553.67 614.5,-1549.83 618.33,-1546 622.17,-1546 622.17,-1546 827.83,-1546 827.83,-1546 831.67,-1546 835.5,-1549.83 835.5,-1553.67 835.5,-1553.67 835.5,-1561.33 835.5,-1561.33 835.5,-1565.17 831.67,-1569 827.83,-1569"/>
<text text-anchor="middle" x="725" y="-1553.8" font-family="Arial" font-size="14.00" fill="#c6c5fe">widgets/CostEstimationWidget.tsx</text>
</g>
<!-- ../utils/widgetRegistry.tsx&#45;&gt;widgets/CostEstimationWidget.tsx -->
<g id="edge34" class="edge">
<title>../utils/widgetRegistry.tsx&#45;&gt;widgets/CostEstimationWidget.tsx</title>
<path fill="none" stroke="#757575" d="M225.92,-1278.29C235.49,-1314.29 269.38,-1423.66 340,-1477.5 415.38,-1534.97 522.31,-1553.6 604.2,-1558.63"/>
<polygon fill="#757575" stroke="#757575" points="604.13,-1562.13 614.31,-1559.19 604.52,-1555.14 604.13,-1562.13"/>
</g>
<!-- widgets/IntegrityImpactWidget.tsx -->
<g id="node24" class="node">
<title>widgets/IntegrityImpactWidget.tsx</title>
<path fill="none" stroke="#c6c5fe" d="M826.83,-1299C826.83,-1299 623.17,-1299 623.17,-1299 619.33,-1299 615.5,-1295.17 615.5,-1291.33 615.5,-1291.33 615.5,-1283.67 615.5,-1283.67 615.5,-1279.83 619.33,-1276 623.17,-1276 623.17,-1276 826.83,-1276 826.83,-1276 830.67,-1276 834.5,-1279.83 834.5,-1283.67 834.5,-1283.67 834.5,-1291.33 834.5,-1291.33 834.5,-1295.17 830.67,-1299 826.83,-1299"/>
<text text-anchor="middle" x="725" y="-1283.8" font-family="Arial" font-size="14.00" fill="#c6c5fe">widgets/IntegrityImpactWidget.tsx</text>
</g>
<!-- ../utils/widgetRegistry.tsx&#45;&gt;widgets/IntegrityImpactWidget.tsx -->
<g id="edge35" class="edge">
<title>../utils/widgetRegistry.tsx&#45;&gt;widgets/IntegrityImpactWidget.tsx</title>
<path fill="none" stroke="#757575" d="M304.05,-1269.9C385.68,-1273.32 512.51,-1278.64 605.44,-1282.53"/>
<polygon fill="#757575" stroke="#757575" points="605.32,-1286.03 615.46,-1282.95 605.61,-1279.03 605.32,-1286.03"/>
</g>
<!-- widgets/SecurityLevelWidget.tsx -->
<g id="node25" class="node">
<title>widgets/SecurityLevelWidget.tsx</title>
<path fill="none" stroke="#c6c5fe" d="M543.33,-445C543.33,-445 347.67,-445 347.67,-445 343.83,-445 340,-441.17 340,-437.33 340,-437.33 340,-429.67 340,-429.67 340,-425.83 343.83,-422 347.67,-422 347.67,-422 543.33,-422 543.33,-422 547.17,-422 551,-425.83 551,-429.67 551,-429.67 551,-437.33 551,-437.33 551,-441.17 547.17,-445 543.33,-445"/>
<text text-anchor="middle" x="445.5" y="-429.8" font-family="Arial" font-size="14.00" fill="#c6c5fe">widgets/SecurityLevelWidget.tsx</text>
</g>
<!-- ../utils/widgetRegistry.tsx&#45;&gt;widgets/SecurityLevelWidget.tsx -->
<g id="edge36" class="edge">
<title>../utils/widgetRegistry.tsx&#45;&gt;widgets/SecurityLevelWidget.tsx</title>
<path fill="none" stroke="#757575" d="M222.98,-1254.76C223.05,-1164.69 227.92,-583.37 340,-459.5 343.12,-456.05 346.62,-453.03 350.39,-450.38"/>
<polygon fill="#757575" stroke="#757575" points="352.3,-453.32 359.06,-445.17 348.68,-447.33 352.3,-453.32"/>
</g>
<!-- widgets/SecurityResourcesWidget.tsx -->
<g id="node26" class="node">
<title>widgets/SecurityResourcesWidget.tsx</title>
<path fill="none" stroke="#c6c5fe" d="M838.83,-1366C838.83,-1366 611.17,-1366 611.17,-1366 607.33,-1366 603.5,-1362.17 603.5,-1358.33 603.5,-1358.33 603.5,-1350.67 603.5,-1350.67 603.5,-1346.83 607.33,-1343 611.17,-1343 611.17,-1343 838.83,-1343 838.83,-1343 842.67,-1343 846.5,-1346.83 846.5,-1350.67 846.5,-1350.67 846.5,-1358.33 846.5,-1358.33 846.5,-1362.17 842.67,-1366 838.83,-1366"/>
<text text-anchor="middle" x="725" y="-1350.8" font-family="Arial" font-size="14.00" fill="#c6c5fe">widgets/SecurityResourcesWidget.tsx</text>
</g>
<!-- ../utils/widgetRegistry.tsx&#45;&gt;widgets/SecurityResourcesWidget.tsx -->
<g id="edge37" class="edge">
<title>../utils/widgetRegistry.tsx&#45;&gt;widgets/SecurityResourcesWidget.tsx</title>
<path fill="none" stroke="#757575" d="M280.07,-1278.03C299.11,-1281.8 320.45,-1285.92 340,-1289.5 444.07,-1308.53 564.38,-1328.58 642.2,-1341.3"/>
<polygon fill="#757575" stroke="#757575" points="641.99,-1344.81 652.42,-1342.96 643.11,-1337.9 641.99,-1344.81"/>
</g>
<!-- widgets/SecuritySummaryWidget.tsx -->
<g id="node27" class="node">
<title>widgets/SecuritySummaryWidget.tsx</title>
<path fill="none" stroke="#c6c5fe" d="M836.33,-1528C836.33,-1528 613.67,-1528 613.67,-1528 609.83,-1528 606,-1524.17 606,-1520.33 606,-1520.33 606,-1512.67 606,-1512.67 606,-1508.83 609.83,-1505 613.67,-1505 613.67,-1505 836.33,-1505 836.33,-1505 840.17,-1505 844,-1508.83 844,-1512.67 844,-1512.67 844,-1520.33 844,-1520.33 844,-1524.17 840.17,-1528 836.33,-1528"/>
<text text-anchor="middle" x="725" y="-1512.8" font-family="Arial" font-size="14.00" fill="#c6c5fe">widgets/SecuritySummaryWidget.tsx</text>
</g>
<!-- ../utils/widgetRegistry.tsx&#45;&gt;widgets/SecuritySummaryWidget.tsx -->
<g id="edge38" class="edge">
<title>../utils/widgetRegistry.tsx&#45;&gt;widgets/SecuritySummaryWidget.tsx</title>
<path fill="none" stroke="#757575" d="M228.22,-1278.14C242,-1307.55 282.34,-1385.36 340,-1425.5 414.95,-1477.68 515.96,-1500.19 595.57,-1509.79"/>
<polygon fill="#757575" stroke="#757575" points="595.33,-1513.28 605.67,-1510.95 596.13,-1506.33 595.33,-1513.28"/>
</g>
<!-- widgets/TechnicalDetailsWidget.tsx -->
<g id="node28" class="node">
<title>widgets/TechnicalDetailsWidget.tsx</title>
<path fill="none" stroke="#c6c5fe" d="M830.83,-112C830.83,-112 619.17,-112 619.17,-112 615.33,-112 611.5,-108.17 611.5,-104.33 611.5,-104.33 611.5,-96.67 611.5,-96.67 611.5,-92.83 615.33,-89 619.17,-89 619.17,-89 830.83,-89 830.83,-89 834.67,-89 838.5,-92.83 838.5,-96.67 838.5,-96.67 838.5,-104.33 838.5,-104.33 838.5,-108.17 834.67,-112 830.83,-112"/>
<text text-anchor="middle" x="725" y="-96.8" font-family="Arial" font-size="14.00" fill="#c6c5fe">widgets/TechnicalDetailsWidget.tsx</text>
</g>
<!-- ../utils/widgetRegistry.tsx&#45;&gt;widgets/TechnicalDetailsWidget.tsx -->
<g id="edge39" class="edge">
<title>../utils/widgetRegistry.tsx&#45;&gt;widgets/TechnicalDetailsWidget.tsx</title>
<path fill="none" stroke="#757575" d="M223.68,-1254.91C229.13,-1164.67 267.23,-573.6 340,-412.5 409.14,-259.44 441.5,-210.39 587,-126.5 594.78,-122.02 603.18,-118.28 611.86,-115.18"/>
<polygon fill="#757575" stroke="#757575" points="612.96,-118.51 621.37,-112.06 610.77,-111.86 612.96,-118.51"/>
</g>
<!-- widgets/ValueCreationWidget.tsx -->
<g id="node29" class="node">
<title>widgets/ValueCreationWidget.tsx</title>
<path fill="none" stroke="#c6c5fe" d="M824.83,-731C824.83,-731 625.17,-731 625.17,-731 621.33,-731 617.5,-727.17 617.5,-723.33 617.5,-723.33 617.5,-715.67 617.5,-715.67 617.5,-711.83 621.33,-708 625.17,-708 625.17,-708 824.83,-708 824.83,-708 828.67,-708 832.5,-711.83 832.5,-715.67 832.5,-715.67 832.5,-723.33 832.5,-723.33 832.5,-727.17 828.67,-731 824.83,-731"/>
<text text-anchor="middle" x="725" y="-715.8" font-family="Arial" font-size="14.00" fill="#c6c5fe">widgets/ValueCreationWidget.tsx</text>
</g>
<!-- ../utils/widgetRegistry.tsx&#45;&gt;widgets/ValueCreationWidget.tsx -->
<g id="edge40" class="edge">
<title>../utils/widgetRegistry.tsx&#45;&gt;widgets/ValueCreationWidget.tsx</title>
<path fill="none" stroke="#757575" d="M228.56,-1254.83C243.78,-1223.48 288.49,-1135.55 340,-1072.5 458.47,-927.5 636.08,-786.44 700.01,-737.55"/>
<polygon fill="#757575" stroke="#757575" points="702.42,-740.12 708.25,-731.28 698.18,-734.55 702.42,-740.12"/>
</g>
<!-- RadarChart.tsx&#45;&gt;../constants/testIds.ts -->
<g id="edge49" class="edge">
<title>RadarChart.tsx&#45;&gt;../constants/testIds.ts</title>
<path fill="none" stroke="#757575" d="M478.52,-1742.01C581.12,-1776.7 906.52,-1869.32 1104,-1726.5 1216.98,-1644.8 1226.27,-1452.8 1226.04,-1387.61"/>
<polygon fill="#757575" stroke="#757575" points="1229.53,-1387.25 1225.91,-1377.29 1222.53,-1387.33 1229.53,-1387.25"/>
</g>
<!-- common/KeyValuePair.tsx -->
<g id="node33" class="node">
<title>common/KeyValuePair.tsx</title>
<path fill="none" stroke="#c6c5fe" d="M1081.33,-1377C1081.33,-1377 921.67,-1377 921.67,-1377 917.83,-1377 914,-1373.17 914,-1369.33 914,-1369.33 914,-1361.67 914,-1361.67 914,-1357.83 917.83,-1354 921.67,-1354 921.67,-1354 1081.33,-1354 1081.33,-1354 1085.17,-1354 1089,-1357.83 1089,-1361.67 1089,-1361.67 1089,-1369.33 1089,-1369.33 1089,-1373.17 1085.17,-1377 1081.33,-1377"/>
<text text-anchor="middle" x="1001.5" y="-1361.8" font-family="Arial" font-size="14.00" fill="#c6c5fe">common/KeyValuePair.tsx</text>
</g>
<!-- common/index.ts&#45;&gt;common/KeyValuePair.tsx -->
<g id="edge66" class="edge">
<title>common/index.ts&#45;&gt;common/KeyValuePair.tsx</title>
<path fill="none" stroke="#757575" d="M771.95,-1422.95C819.45,-1411.01 893.66,-1392.36 944.55,-1379.56"/>
<polygon fill="#757575" stroke="#757575" points="945.56,-1382.92 954.4,-1377.09 943.85,-1376.13 945.56,-1382.92"/>
</g>
<!-- common/MetricsCard.tsx -->
<g id="node35" class="node">
<title>common/MetricsCard.tsx</title>
<path fill="none" stroke="#c6c5fe" d="M1077.83,-1657C1077.83,-1657 925.17,-1657 925.17,-1657 921.33,-1657 917.5,-1653.17 917.5,-1649.33 917.5,-1649.33 917.5,-1641.67 917.5,-1641.67 917.5,-1637.83 921.33,-1634 925.17,-1634 925.17,-1634 1077.83,-1634 1077.83,-1634 1081.67,-1634 1085.5,-1637.83 1085.5,-1641.67 1085.5,-1641.67 1085.5,-1649.33 1085.5,-1649.33 1085.5,-1653.17 1081.67,-1657 1077.83,-1657"/>
<text text-anchor="middle" x="1001.5" y="-1641.8" font-family="Arial" font-size="14.00" fill="#c6c5fe">common/MetricsCard.tsx</text>
</g>
<!-- common/index.ts&#45;&gt;common/MetricsCard.tsx -->
<g id="edge67" class="edge">
<title>common/index.ts&#45;&gt;common/MetricsCard.tsx</title>
<path fill="none" stroke="#757575" d="M785.05,-1429.81C811.81,-1430.84 842.06,-1436.86 863,-1455.5 908.1,-1495.65 862.16,-1538.66 899,-1586.5 913.99,-1605.97 937.37,-1620.18 957.91,-1629.77"/>
<polygon fill="#757575" stroke="#757575" points="956.55,-1633 967.11,-1633.86 959.39,-1626.6 956.55,-1633"/>
</g>
<!-- common/StatusBadge.tsx -->
<g id="node36" class="node">
<title>common/StatusBadge.tsx</title>
<path fill="none" stroke="#c6c5fe" d="M1079.83,-1577C1079.83,-1577 923.17,-1577 923.17,-1577 919.33,-1577 915.5,-1573.17 915.5,-1569.33 915.5,-1569.33 915.5,-1561.67 915.5,-1561.67 915.5,-1557.83 919.33,-1554 923.17,-1554 923.17,-1554 1079.83,-1554 1079.83,-1554 1083.67,-1554 1087.5,-1557.83 1087.5,-1561.67 1087.5,-1561.67 1087.5,-1569.33 1087.5,-1569.33 1087.5,-1573.17 1083.67,-1577 1079.83,-1577"/>
<text text-anchor="middle" x="1001.5" y="-1561.8" font-family="Arial" font-size="14.00" fill="#c6c5fe">common/StatusBadge.tsx</text>
</g>
<!-- common/index.ts&#45;&gt;common/StatusBadge.tsx -->
<g id="edge68" class="edge">
<title>common/index.ts&#45;&gt;common/StatusBadge.tsx</title>
<path fill="none" stroke="#757575" d="M785.18,-1430.93C811.48,-1432.3 841.33,-1438.29 863,-1455.5 896.74,-1482.29 865.84,-1518 899,-1545.5 901.41,-1547.5 903.96,-1549.32 906.63,-1550.97"/>
<polygon fill="#757575" stroke="#757575" points="905.02,-1554.08 915.48,-1555.72 908.32,-1547.91 905.02,-1554.08"/>
</g>
<!-- common/ValueDisplay.tsx -->
<g id="node37" class="node">
<title>common/ValueDisplay.tsx</title>
<path fill="none" stroke="#c6c5fe" d="M1079.83,-1179C1079.83,-1179 923.17,-1179 923.17,-1179 919.33,-1179 915.5,-1175.17 915.5,-1171.33 915.5,-1171.33 915.5,-1163.67 915.5,-1163.67 915.5,-1159.83 919.33,-1156 923.17,-1156 923.17,-1156 1079.83,-1156 1079.83,-1156 1083.67,-1156 1087.5,-1159.83 1087.5,-1163.67 1087.5,-1163.67 1087.5,-1171.33 1087.5,-1171.33 1087.5,-1175.17 1083.67,-1179 1079.83,-1179"/>
<text text-anchor="middle" x="1001.5" y="-1163.8" font-family="Arial" font-size="14.00" fill="#c6c5fe">common/ValueDisplay.tsx</text>
</g>
<!-- common/index.ts&#45;&gt;common/ValueDisplay.tsx -->
<g id="edge69" class="edge">
<title>common/index.ts&#45;&gt;common/ValueDisplay.tsx</title>
<path fill="none" stroke="#757575" d="M781.87,-1422.98C810.02,-1414.4 842.45,-1399.83 863,-1375.5 906.68,-1323.78 858.69,-1281.89 899,-1227.5 913.8,-1207.53 937.39,-1193.01 958.1,-1183.26"/>
<polygon fill="#757575" stroke="#757575" points="959.68,-1186.39 967.38,-1179.11 956.82,-1180 959.68,-1186.39"/>
</g>
<!-- common/WidgetContainer.tsx -->
<g id="node39" class="node">
<title>common/WidgetContainer.tsx</title>
<path fill="none" stroke="#c6c5fe" d="M1091.33,-1495C1091.33,-1495 911.67,-1495 911.67,-1495 907.83,-1495 904,-1491.17 904,-1487.33 904,-1487.33 904,-1479.67 904,-1479.67 904,-1475.83 907.83,-1472 911.67,-1472 911.67,-1472 1091.33,-1472 1091.33,-1472 1095.17,-1472 1099,-1475.83 1099,-1479.67 1099,-1479.67 1099,-1487.33 1099,-1487.33 1099,-1491.17 1095.17,-1495 1091.33,-1495"/>
<text text-anchor="middle" x="1001.5" y="-1479.8" font-family="Arial" font-size="14.00" fill="#c6c5fe">common/WidgetContainer.tsx</text>
</g>
<!-- common/index.ts&#45;&gt;common/WidgetContainer.tsx -->
<g id="edge70" class="edge">
<title>common/index.ts&#45;&gt;common/WidgetContainer.tsx</title>
<path fill="none" stroke="#757575" d="M785.11,-1442.92C809.3,-1446.53 837.53,-1450.96 863,-1455.5 887.23,-1459.82 913.76,-1465.09 936.99,-1469.89"/>
<polygon fill="#757575" stroke="#757575" points="936.57,-1473.38 947.07,-1471.99 937.99,-1466.53 936.57,-1473.38"/>
</g>
<!-- widgets/AvailabilityImpactWidget.tsx&#45;&gt;../types/cia.tsx -->
<g id="edge75" class="edge">
<title>widgets/AvailabilityImpactWidget.tsx&#45;&gt;../types/cia.tsx</title>
<path fill="none" stroke="#757575" d="M783.62,-1116.92C811.37,-1108.5 842.9,-1094.26 863,-1070.5 907.56,-1017.83 844.99,-962.43 899,-919.5 953.68,-876.03 1434.26,-900.5 1605.35,-910.71"/>
<polygon fill="#757575" stroke="#757575" points="1605.25,-914.21 1615.44,-911.32 1605.67,-907.22 1605.25,-914.21"/>
</g>
<!-- widgets/AvailabilityImpactWidget.tsx&#45;&gt;../constants/colorConstants.ts -->
<g id="edge71" class="edge">
<title>widgets/AvailabilityImpactWidget.tsx&#45;&gt;../constants/colorConstants.ts</title>
<path fill="none" stroke="#757575" d="M785.12,-1116.99C812.73,-1108.63 843.69,-1094.41 863,-1070.5 916.72,-1003.97 844.7,-947.56 899,-881.5 964.79,-801.46 1268.87,-710.2 1392.51,-675.7"/>
<polygon fill="#757575" stroke="#757575" points="1393.45,-679.07 1402.15,-673.03 1391.58,-672.33 1393.45,-679.07"/>
</g>
<!-- widgets/AvailabilityImpactWidget.tsx&#45;&gt;../constants/coreConstants.ts -->
<g id="edge72" class="edge">
<title>widgets/AvailabilityImpactWidget.tsx&#45;&gt;../constants/coreConstants.ts</title>
<path fill="none" stroke="#757575" d="M753.05,-1140.1C780.7,-1151.97 824.87,-1170.97 863,-1187.5 897.63,-1202.51 937.11,-1219.75 964.86,-1231.89"/>
<polygon fill="#757575" stroke="#757575" points="963.59,-1235.16 974.16,-1235.96 966.4,-1228.74 963.59,-1235.16"/>
</g>
<!-- widgets/AvailabilityImpactWidget.tsx&#45;&gt;../constants/testIds.ts -->
<g id="edge73" class="edge">
<title>widgets/AvailabilityImpactWidget.tsx&#45;&gt;../constants/testIds.ts</title>
<path fill="none" stroke="#757575" d="M774.27,-1116.97C850.73,-1101.56 1001.48,-1083.11 1104,-1147.5 1132.29,-1165.27 1123.81,-1184.27 1140,-1213.5 1166.1,-1260.61 1197.21,-1315.65 1213.77,-1344.84"/>
<polygon fill="#757575" stroke="#757575" points="1210.82,-1346.73 1218.8,-1353.7 1216.9,-1343.28 1210.82,-1346.73"/>
</g>
<!-- widgets/AvailabilityImpactWidget.tsx&#45;&gt;../services/ciaContentService.ts -->
<g id="edge74" class="edge">
<title>widgets/AvailabilityImpactWidget.tsx&#45;&gt;../services/ciaContentService.ts</title>
<path fill="none" stroke="#757575" d="M761.97,-1116.95C796.87,-1105.86 851.37,-1088.89 899,-1075.5 913.44,-1071.44 929.11,-1067.3 943.72,-1063.55"/>
<polygon fill="#757575" stroke="#757575" points="944.81,-1066.88 953.64,-1061.02 943.08,-1060.1 944.81,-1066.88"/>
</g>
<!-- widgets/AvailabilityImpactWidget.tsx&#45;&gt;../types/widgets.tsx -->
<g id="edge76" class="edge">
<title>widgets/AvailabilityImpactWidget.tsx&#45;&gt;../types/widgets.tsx</title>
<path fill="none" stroke="#757575" d="M787.96,-1116.93C815.19,-1108.61 845,-1094.45 863,-1070.5 944.45,-962.07 849.61,-893.8 899,-767.5 917.94,-719.06 957.73,-672.06 981.48,-646.74"/>
<polygon fill="#757575" stroke="#757575" points="984.2,-648.96 988.58,-639.31 979.14,-644.12 984.2,-648.96"/>
</g>
<!-- widgets/AvailabilityImpactWidget.tsx&#45;&gt;common/KeyValuePair.tsx -->
<g id="edge77" class="edge">
<title>widgets/AvailabilityImpactWidget.tsx&#45;&gt;common/KeyValuePair.tsx</title>
<path fill="none" stroke="#757575" d="M775.16,-1140.01C803.83,-1148.87 838.97,-1163.74 863,-1187.5 891.02,-1215.2 876.33,-1236.28 899,-1268.5 921.14,-1299.96 954.56,-1329.5 976.94,-1347.53"/>
<polygon fill="#757575" stroke="#757575" points="974.91,-1350.39 984.93,-1353.85 979.26,-1344.9 974.91,-1350.39"/>
</g>
<!-- widgets/AvailabilityImpactWidget.tsx&#45;&gt;common/StatusBadge.tsx -->
<g id="edge78" class="edge">
<title>widgets/AvailabilityImpactWidget.tsx&#45;&gt;common/StatusBadge.tsx</title>
<path fill="none" stroke="#757575" d="M787.12,-1140.07C814.68,-1148.51 845.02,-1162.95 863,-1187.5 910.25,-1252 845.19,-1486.36 899,-1545.5 901.3,-1548.02 903.81,-1550.28 906.5,-1552.3"/>
<polygon fill="#757575" stroke="#757575" points="904.71,-1555.31 915.04,-1557.67 908.44,-1549.39 904.71,-1555.31"/>
</g>
<!-- widgets/AvailabilityImpactWidget.tsx&#45;&gt;common/WidgetContainer.tsx -->
<g id="edge79" class="edge">
<title>widgets/AvailabilityImpactWidget.tsx&#45;&gt;common/WidgetContainer.tsx</title>
<path fill="none" stroke="#757575" d="M784.2,-1140.06C812.09,-1148.57 843.58,-1163.07 863,-1187.5 918.92,-1257.86 856.42,-1307.35 899,-1386.5 917,-1419.96 950.7,-1448.63 974.32,-1465.94"/>
<polygon fill="#757575" stroke="#757575" points="972.34,-1468.83 982.51,-1471.79 976.41,-1463.14 972.34,-1468.83"/>
</g>
<!-- widgets/BusinessImpactAnalysisWidget.tsx&#45;&gt;../constants/riskConstants.ts -->
<g id="edge81" class="edge">
<title>widgets/BusinessImpactAnalysisWidget.tsx&#45;&gt;../constants/riskConstants.ts</title>
<path fill="none" stroke="#757575" d="M725.56,-1610.28C723.77,-1676.38 724.2,-2003.64 899,-2158.5 1009.38,-2256.28 1078.04,-2217.5 1225.5,-2217.5 1225.5,-2217.5 1225.5,-2217.5 1447,-2217.5 1766.31,-2217.5 1861.71,-1677.84 1878.57,-1561.45"/>
<polygon fill="#757575" stroke="#757575" points="1882.08,-1561.66 1880,-1551.27 1875.14,-1560.68 1882.08,-1561.66"/>
</g>
<!-- widgets/BusinessImpactAnalysisWidget.tsx&#45;&gt;../constants/uiConstants.ts -->
<g id="edge83" class="edge">
<title>widgets/BusinessImpactAnalysisWidget.tsx&#45;&gt;../constants/uiConstants.ts</title>
<path fill="none" stroke="#757575" d="M725.48,-1610.36C723.35,-1675.38 722.55,-1990.33 899,-2117.5 1015.1,-2201.18 1421.38,-2192.94 1543,-2117.5 1625.06,-2066.6 1653.86,-1942.53 1662.38,-1892.22"/>
<polygon fill="#757575" stroke="#757575" points="1665.87,-1892.56 1663.98,-1882.14 1658.96,-1891.47 1665.87,-1892.56"/>
</g>
<!-- widgets/BusinessImpactAnalysisWidget.tsx&#45;&gt;../types/cia.tsx -->
<g id="edge85" class="edge">
<title>widgets/BusinessImpactAnalysisWidget.tsx&#45;&gt;../types/cia.tsx</title>
<path fill="none" stroke="#757575" d="M727.8,-1610.11C736.15,-1659.54 776.09,-1853.27 899,-1927.5 1152.69,-2080.72 1374.71,-1998.45 1543,-1754.5 1638.67,-1615.82 1661.16,-1054.83 1664.88,-936.49"/>
<polygon fill="#757575" stroke="#757575" points="1668.39,-936.27 1665.19,-926.17 1661.39,-936.06 1668.39,-936.27"/>
</g>
<!-- widgets/BusinessImpactAnalysisWidget.tsx&#45;&gt;../constants/coreConstants.ts -->
<g id="edge80" class="edge">
<title>widgets/BusinessImpactAnalysisWidget.tsx&#45;&gt;../constants/coreConstants.ts</title>
<path fill="none" stroke="#757575" d="M852.8,-1586.88C856.43,-1584.41 859.84,-1581.63 863,-1578.5 937.4,-1504.72 850.79,-1438.53 899,-1345.5 916.67,-1311.41 950.75,-1282.33 974.53,-1264.9"/>
<polygon fill="#757575" stroke="#757575" points="976.66,-1267.67 982.77,-1259.02 972.6,-1261.97 976.66,-1267.67"/>
</g>
<!-- widgets/BusinessImpactAnalysisWidget.tsx&#45;&gt;../constants/testIds.ts -->
<g id="edge82" class="edge">
<title>widgets/BusinessImpactAnalysisWidget.tsx&#45;&gt;../constants/testIds.ts</title>
<path fill="none" stroke="#757575" d="M740.5,-1610.13C793.88,-1651.48 982.71,-1784.45 1104,-1699.5 1209.87,-1625.36 1223.83,-1448.94 1225.41,-1387.25"/>
<polygon fill="#757575" stroke="#757575" points="1228.91,-1387.17 1225.58,-1377.12 1221.91,-1387.06 1228.91,-1387.17"/>
</g>
<!-- widgets/BusinessImpactAnalysisWidget.tsx&#45;&gt;../services/ciaContentService.ts -->
<g id="edge84" class="edge">
<title>widgets/BusinessImpactAnalysisWidget.tsx&#45;&gt;../services/ciaContentService.ts</title>
<path fill="none" stroke="#757575" d="M853.38,-1586.96C856.81,-1584.46 860.04,-1581.65 863,-1578.5 928.83,-1508.48 857.79,-1234.33 899,-1147.5 915.37,-1113.01 949.43,-1084.19 973.57,-1066.92"/>
<polygon fill="#757575" stroke="#757575" points="975.75,-1069.67 981.97,-1061.09 971.76,-1063.92 975.75,-1069.67"/>
</g>
<!-- widgets/BusinessImpactAnalysisWidget.tsx&#45;&gt;common/KeyValuePair.tsx -->
<g id="edge86" class="edge">
<title>widgets/BusinessImpactAnalysisWidget.tsx&#45;&gt;common/KeyValuePair.tsx</title>
<path fill="none" stroke="#757575" d="M850.99,-1586.98C855.22,-1584.51 859.25,-1581.7 863,-1578.5 903.75,-1543.74 870.86,-1509.07 899,-1463.5 919.2,-1430.79 952.78,-1401.35 975.74,-1383.47"/>
<polygon fill="#757575" stroke="#757575" points="978.14,-1386.04 983.98,-1377.2 973.9,-1380.47 978.14,-1386.04"/>
</g>
<!-- widgets/BusinessImpactAnalysisWidget.tsx&#45;&gt;common/MetricsCard.tsx -->
<g id="edge87" class="edge">
<title>widgets/BusinessImpactAnalysisWidget.tsx&#45;&gt;common/MetricsCard.tsx</title>
<path fill="none" stroke="#757575" d="M793.5,-1610.06C832.8,-1616.79 882.5,-1625.3 923.35,-1632.29"/>
<polygon fill="#757575" stroke="#757575" points="922.81,-1635.75 933.26,-1633.99 923.99,-1628.85 922.81,-1635.75"/>
</g>
<!-- widgets/BusinessImpactAnalysisWidget.tsx&#45;&gt;common/StatusBadge.tsx -->
<g id="edge88" class="edge">
<title>widgets/BusinessImpactAnalysisWidget.tsx&#45;&gt;common/StatusBadge.tsx</title>
<path fill="none" stroke="#757575" d="M822.01,-1586.96C848.88,-1583.73 878.07,-1580.22 904.92,-1576.99"/>
<polygon fill="#757575" stroke="#757575" points="905.57,-1580.44 915.08,-1575.77 904.73,-1573.49 905.57,-1580.44"/>
</g>
<!-- widgets/BusinessImpactAnalysisWidget.tsx&#45;&gt;common/WidgetContainer.tsx -->
<g id="edge89" class="edge">
<title>widgets/BusinessImpactAnalysisWidget.tsx&#45;&gt;common/WidgetContainer.tsx</title>
<path fill="none" stroke="#757575" d="M849.12,-1586.9C853.98,-1584.48 858.63,-1581.69 863,-1578.5 892.52,-1556.91 870.13,-1526.95 899,-1504.5 901.11,-1502.86 903.32,-1501.33 905.61,-1499.92"/>
<polygon fill="#757575" stroke="#757575" points="907.62,-1502.82 914.79,-1495.01 904.32,-1496.64 907.62,-1502.82"/>
</g>
<!-- widgets/CIAImpactSummaryWidget.tsx&#45;&gt;../types/cia.tsx -->
<g id="edge92" class="edge">
<title>widgets/CIAImpactSummaryWidget.tsx&#45;&gt;../types/cia.tsx</title>
<path fill="none" stroke="#757575" d="M851.24,-1487.18C855.44,-1489.88 859.38,-1492.97 863,-1496.5 928.26,-1560.2 829.09,-1639.95 899,-1698.5 968.85,-1757 1016.99,-1725.54 1104,-1698.5 1132.27,-1689.72 1526.08,-1420.79 1543,-1396.5 1648.89,-1244.53 1663.33,-1008.79 1665.23,-936.39"/>
<polygon fill="#757575" stroke="#757575" points="1668.74,-936.28 1665.44,-926.21 1661.74,-936.14 1668.74,-936.28"/>
</g>
<!-- widgets/CIAImpactSummaryWidget.tsx&#45;&gt;../constants/colorConstants.ts -->
<g id="edge90" class="edge">
<title>widgets/CIAImpactSummaryWidget.tsx&#45;&gt;../constants/colorConstants.ts</title>
<path fill="none" stroke="#757575" d="M850.8,-1487.14C855.14,-1489.84 859.24,-1492.95 863,-1496.5 919.13,-1549.54 839,-1617.87 899,-1666.5 969.78,-1723.86 1022.55,-1707.34 1104,-1666.5 1121.35,-1657.8 1306.39,-1404.75 1313,-1386.5 1363.49,-1247.15 1273.2,-847.86 1349,-720.5 1360.69,-700.85 1381.72,-686.85 1401.12,-677.43"/>
<polygon fill="#757575" stroke="#757575" points="1402.82,-680.5 1410.46,-673.17 1399.91,-674.13 1402.82,-680.5"/>
</g>
<!-- widgets/CIAImpactSummaryWidget.tsx&#45;&gt;../services/ciaContentService.ts -->
<g id="edge91" class="edge">
<title>widgets/CIAImpactSummaryWidget.tsx&#45;&gt;../services/ciaContentService.ts</title>
<path fill="none" stroke="#757575" d="M851.79,-1464.84C855.8,-1462.13 859.57,-1459.03 863,-1455.5 911.03,-1406.08 868.43,-1209.26 899,-1147.5 915.94,-1113.29 949.87,-1084.41 973.83,-1067.05"/>
<polygon fill="#757575" stroke="#757575" points="976,-1069.81 982.16,-1061.19 971.97,-1064.08 976,-1069.81"/>
</g>
<!-- widgets/CIAImpactSummaryWidget.tsx&#45;&gt;common/KeyValuePair.tsx -->
<g id="edge93" class="edge">
<title>widgets/CIAImpactSummaryWidget.tsx&#45;&gt;common/KeyValuePair.tsx</title>
<path fill="none" stroke="#757575" d="M835.53,-1463.91C844.96,-1461.6 854.23,-1458.82 863,-1455.5 908.06,-1438.42 953.52,-1404.7 979.23,-1383.73"/>
<polygon fill="#757575" stroke="#757575" points="981.7,-1386.23 987.17,-1377.15 977.23,-1380.84 981.7,-1386.23"/>
</g>
<!-- widgets/CIAImpactSummaryWidget.tsx&#45;&gt;common/StatusBadge.tsx -->
<g id="edge94" class="edge">
<title>widgets/CIAImpactSummaryWidget.tsx&#45;&gt;common/StatusBadge.tsx</title>
<path fill="none" stroke="#757575" d="M843.7,-1487.09C850.44,-1489.71 856.93,-1492.82 863,-1496.5 886.11,-1510.5 876.19,-1531.01 899,-1545.5 901.45,-1547.06 904,-1548.5 906.62,-1549.83"/>
<polygon fill="#757575" stroke="#757575" points="905.23,-1553.04 915.78,-1553.95 908.1,-1546.66 905.23,-1553.04"/>
</g>
<!-- widgets/CIAImpactSummaryWidget.tsx&#45;&gt;common/WidgetContainer.tsx -->
<g id="edge95" class="edge">
<title>widgets/CIAImpactSummaryWidget.tsx&#45;&gt;common/WidgetContainer.tsx</title>
<path fill="none" stroke="#757575" d="M851.6,-1479.16C865.55,-1479.57 879.66,-1479.98 893.35,-1480.38"/>
<polygon fill="#757575" stroke="#757575" points="893.63,-1483.89 903.73,-1480.68 893.84,-1476.89 893.63,-1483.89"/>
</g>
<!-- widgets/ComplianceStatusWidget.tsx&#45;&gt;../constants/appConstants.ts -->
<g id="edge96" class="edge">
<title>widgets/ComplianceStatusWidget.tsx&#45;&gt;../constants/appConstants.ts</title>
<path fill="none" stroke="#757575" d="M750.81,-1195.93C783.79,-1181.25 844.3,-1156.72 899,-1147.5 988.84,-1132.36 1025.65,-1100.99 1104,-1147.5 1132.73,-1164.56 1118.24,-1188.14 1140,-1213.5 1202.98,-1286.9 1262.11,-1263.26 1313,-1345.5 1357.76,-1417.84 1291.15,-1471.12 1349,-1533.5 1352.35,-1537.11 1356.14,-1540.24 1360.23,-1542.94"/>
<polygon fill="#757575" stroke="#757575" points="1358.6,-1546.04 1369.02,-1547.93 1362.05,-1539.95 1358.6,-1546.04"/>
</g>
<!-- widgets/ComplianceStatusWidget.tsx&#45;&gt;../types/cia.tsx -->
<g id="edge99" class="edge">
<title>widgets/ComplianceStatusWidget.tsx&#45;&gt;../types/cia.tsx</title>
<path fill="none" stroke="#757575" d="M781.34,-1195.96C809.34,-1187.47 841.79,-1173.15 863,-1149.5 900.17,-1108.04 857.5,-1066.62 899,-1029.5 951.64,-982.41 1433.53,-935.21 1605.15,-919.75"/>
<polygon fill="#757575" stroke="#757575" points="1605.63,-923.22 1615.28,-918.84 1605,-916.25 1605.63,-923.22"/>
</g>
<!-- widgets/ComplianceStatusWidget.tsx&#45;&gt;../constants/testIds.ts -->
<g id="edge97" class="edge">
<title>widgets/ComplianceStatusWidget.tsx&#45;&gt;../constants/testIds.ts</title>
<path fill="none" stroke="#757575" d="M793.71,-1195.96C872.5,-1185.83 1004.48,-1179.32 1104,-1227.5 1131.3,-1240.72 1185.01,-1310.34 1210.89,-1345.36"/>
<polygon fill="#757575" stroke="#757575" points="1208.38,-1347.86 1217.12,-1353.85 1214.02,-1343.72 1208.38,-1347.86"/>
</g>
<!-- widgets/ComplianceStatusWidget.tsx&#45;&gt;../services/ciaContentService.ts -->
<g id="edge98" class="edge">
<title>widgets/ComplianceStatusWidget.tsx&#45;&gt;../services/ciaContentService.ts</title>
<path fill="none" stroke="#757575" d="M763.71,-1195.95C792.39,-1186.15 832.05,-1170.36 863,-1149.5 881.76,-1136.86 881.32,-1127.62 899,-1113.5 921.54,-1095.49 949.4,-1078.24 970.23,-1066.19"/>
<polygon fill="#757575" stroke="#757575" points="972.02,-1069.2 978.97,-1061.2 968.55,-1063.12 972.02,-1069.2"/>
</g>
<!-- widgets/ComplianceStatusWidget.tsx&#45;&gt;common/StatusBadge.tsx -->
<g id="edge100" class="edge">
<title>widgets/ComplianceStatusWidget.tsx&#45;&gt;common/StatusBadge.tsx</title>
<path fill="none" stroke="#757575" d="M784.74,-1219.09C812.78,-1227.71 844.23,-1242.47 863,-1267.5 937.74,-1367.18 813.85,-1454.55 899,-1545.5 901.33,-1547.99 903.88,-1550.22 906.59,-1552.22"/>
<polygon fill="#757575" stroke="#757575" points="904.85,-1555.25 915.19,-1557.53 908.52,-1549.3 904.85,-1555.25"/>
</g>
<!-- widgets/ComplianceStatusWidget.tsx&#45;&gt;common/WidgetContainer.tsx -->
<g id="edge101" class="edge">
<title>widgets/ComplianceStatusWidget.tsx&#45;&gt;common/WidgetContainer.tsx</title>
<path fill="none" stroke="#757575" d="M778.63,-1219.06C807.22,-1227.88 841.11,-1242.84 863,-1267.5 899.68,-1308.83 870.08,-1339.42 899,-1386.5 919.03,-1419.1 952.65,-1448.18 975.67,-1465.81"/>
<polygon fill="#757575" stroke="#757575" points="973.82,-1468.8 983.92,-1471.99 978.01,-1463.2 973.82,-1468.8"/>
</g>
<!-- widgets/ConfidentialityImpactWidget.tsx&#45;&gt;../types/cia.tsx -->
<g id="edge105" class="edge">
<title>widgets/ConfidentialityImpactWidget.tsx&#45;&gt;../types/cia.tsx</title>
<path fill="none" stroke="#757575" d="M733.15,-1037.92C753.92,-1005.55 817.92,-914.39 899,-881.5 1154.71,-777.77 1498.55,-863.55 1620.4,-900.04"/>
<polygon fill="#757575" stroke="#757575" points="1619.55,-903.44 1630.14,-902.99 1621.59,-896.74 1619.55,-903.44"/>
</g>
<!-- widgets/ConfidentialityImpactWidget.tsx&#45;&gt;../constants/colorConstants.ts -->
<g id="edge102" class="edge">
<title>widgets/ConfidentialityImpactWidget.tsx&#45;&gt;../constants/colorConstants.ts</title>
<path fill="none" stroke="#757575" d="M729.41,-1037.72C742.75,-993.88 795.86,-839 899,-767.5 1030.67,-676.23 1221.01,-658.74 1338.66,-657.73"/>
<polygon fill="#757575" stroke="#757575" points="1338.78,-661.23 1348.76,-657.69 1338.75,-654.23 1338.78,-661.23"/>
</g>
<!-- widgets/ConfidentialityImpactWidget.tsx&#45;&gt;../constants/testIds.ts -->
<g id="edge103" class="edge">
<title>widgets/ConfidentialityImpactWidget.tsx&#45;&gt;../constants/testIds.ts</title>
<path fill="none" stroke="#757575" d="M751.18,-1037.87C817.53,-1009.16 999.23,-943.25 1104,-1029.5 1168.33,-1082.46 1111.21,-1135.3 1140,-1213.5 1158.52,-1263.79 1192.3,-1317.2 1211.39,-1345.37"/>
<polygon fill="#757575" stroke="#757575" points="1208.71,-1347.66 1217.25,-1353.92 1214.48,-1343.69 1208.71,-1347.66"/>
</g>
<!-- widgets/ConfidentialityImpactWidget.tsx&#45;&gt;../services/ciaContentService.ts -->
<g id="edge104" class="edge">
<title>widgets/ConfidentialityImpactWidget.tsx&#45;&gt;../services/ciaContentService.ts</title>
<path fill="none" stroke="#757575" d="M853.21,-1049.5C865.03,-1049.5 876.95,-1049.5 888.62,-1049.5"/>
<polygon fill="#757575" stroke="#757575" points="888.8,-1053 898.8,-1049.5 888.8,-1046 888.8,-1053"/>
</g>
<!-- widgets/ConfidentialityImpactWidget.tsx&#45;&gt;../utils/widgetHelpers.tsx -->
<g id="edge106" class="edge">
<title>widgets/ConfidentialityImpactWidget.tsx&#45;&gt;../utils/widgetHelpers.tsx</title>
<path fill="none" stroke="#757575" d="M731.88,-1037.94C752.21,-997.63 820.59,-859.31 863,-739.5 883.44,-681.77 872.11,-661.52 899,-606.5 921.21,-561.05 959.57,-515.56 982.24,-490.71"/>
<polygon fill="#757575" stroke="#757575" points="985.05,-492.83 989.28,-483.11 979.91,-488.07 985.05,-492.83"/>
</g>
<!-- widgets/ConfidentialityImpactWidget.tsx&#45;&gt;common/KeyValuePair.tsx -->
<g id="edge107" class="edge">
<title>widgets/ConfidentialityImpactWidget.tsx&#45;&gt;common/KeyValuePair.tsx</title>
<path fill="none" stroke="#757575" d="M782.73,-1061.09C810.76,-1069.65 842.82,-1084.19 863,-1108.5 909.55,-1164.59 863.12,-1205.05 899,-1268.5 917.81,-1301.76 951.64,-1330.65 975.04,-1348.06"/>
<polygon fill="#757575" stroke="#757575" points="973,-1350.9 983.15,-1353.94 977.11,-1345.24 973,-1350.9"/>
</g>
<!-- widgets/ConfidentialityImpactWidget.tsx&#45;&gt;common/StatusBadge.tsx -->
<g id="edge108" class="edge">
<title>widgets/ConfidentialityImpactWidget.tsx&#45;&gt;common/StatusBadge.tsx</title>
<path fill="none" stroke="#757575" d="M787.67,-1061.03C815.18,-1069.46 845.32,-1083.9 863,-1108.5 919.87,-1187.62 834.08,-1472.84 899,-1545.5 901.41,-1548.19 904.06,-1550.59 906.91,-1552.71"/>
<polygon fill="#757575" stroke="#757575" points="905.07,-1555.69 915.41,-1558.01 908.78,-1549.75 905.07,-1555.69"/>
</g>
<!-- widgets/ConfidentialityImpactWidget.tsx&#45;&gt;common/WidgetContainer.tsx -->
<g id="edge109" class="edge">
<title>widgets/ConfidentialityImpactWidget.tsx&#45;&gt;common/WidgetContainer.tsx</title>
<path fill="none" stroke="#757575" d="M786.11,-1061.08C813.79,-1069.54 844.51,-1084 863,-1108.5 938.05,-1207.95 842.75,-1275.33 899,-1386.5 916.15,-1420.4 950.04,-1448.97 973.93,-1466.14"/>
<polygon fill="#757575" stroke="#757575" points="972.03,-1469.09 982.23,-1471.94 976.04,-1463.35 972.03,-1469.09"/>
</g>
<!-- widgets/CostEstimationWidget.tsx&#45;&gt;../constants/appConstants.ts -->
<g id="edge110" class="edge">
<title>widgets/CostEstimationWidget.tsx&#45;&gt;../constants/appConstants.ts</title>
<path fill="none" stroke="#757575" d="M835.69,-1560.74C845.87,-1564.85 855.26,-1570.59 863,-1578.5 948.63,-1665.94 806.98,-1770.82 899,-1851.5 1037.35,-1972.8 1158.4,-1951.27 1313,-1851.5 1409.41,-1789.28 1436.15,-1637.78 1442.91,-1581.25"/>
<polygon fill="#757575" stroke="#757575" points="1446.39,-1581.58 1444,-1571.26 1439.43,-1580.82 1446.39,-1581.58"/>
</g>
<!-- widgets/CostEstimationWidget.tsx&#45;&gt;../types/cia.tsx -->
<g id="edge113" class="edge">
<title>widgets/CostEstimationWidget.tsx&#45;&gt;../types/cia.tsx</title>
<path fill="none" stroke="#757575" d="M835.8,-1560.63C845.96,-1564.76 855.31,-1570.54 863,-1578.5 958.41,-1677.34 796.36,-1794.19 899,-1885.5 1037.91,-2009.07 1144.26,-1903.56 1313,-1825.5 1424.43,-1773.95 1476.54,-1775.73 1543,-1672.5 1624.98,-1545.17 1657.93,-1046.77 1664.31,-936.27"/>
<polygon fill="#757575" stroke="#757575" points="1667.82,-936.22 1664.89,-926.03 1660.83,-935.82 1667.82,-936.22"/>
</g>
<!-- widgets/CostEstimationWidget.tsx&#45;&gt;../constants/testIds.ts -->
<g id="edge111" class="edge">
<title>widgets/CostEstimationWidget.tsx&#45;&gt;../constants/testIds.ts</title>
<path fill="none" stroke="#757575" d="M835.82,-1563.62C845.61,-1567.25 854.87,-1572.1 863,-1578.5 896.19,-1604.65 863.92,-1642.95 899,-1666.5 974.65,-1717.28 1028.47,-1717.46 1104,-1666.5 1200.57,-1601.34 1220.4,-1445.15 1224.46,-1387.43"/>
<polygon fill="#757575" stroke="#757575" points="1227.97,-1387.44 1225.08,-1377.25 1220.98,-1387.02 1227.97,-1387.44"/>
</g>
<!-- widgets/CostEstimationWidget.tsx&#45;&gt;../services/ciaContentService.ts -->
<g id="edge112" class="edge">
<title>widgets/CostEstimationWidget.tsx&#45;&gt;../services/ciaContentService.ts</title>
<path fill="none" stroke="#757575" d="M835.63,-1555.53C845.89,-1551.43 855.31,-1545.61 863,-1537.5 922.89,-1474.35 861.34,-1225.97 899,-1147.5 915.52,-1113.08 949.55,-1084.25 973.64,-1066.96"/>
<polygon fill="#757575" stroke="#757575" points="975.81,-1069.71 982.02,-1061.12 971.81,-1063.96 975.81,-1069.71"/>
</g>
<!-- widgets/CostEstimationWidget.tsx&#45;&gt;common/KeyValuePair.tsx -->
<g id="edge114" class="edge">
<title>widgets/CostEstimationWidget.tsx&#45;&gt;common/KeyValuePair.tsx</title>
<path fill="none" stroke="#757575" d="M835.72,-1551.55C845.47,-1548.11 854.75,-1543.53 863,-1537.5 892.52,-1515.91 877.52,-1493.1 899,-1463.5 921.84,-1432.04 955.37,-1401.92 977.56,-1383.57"/>
<polygon fill="#757575" stroke="#757575" points="979.92,-1386.16 985.47,-1377.13 975.5,-1380.73 979.92,-1386.16"/>
</g>
<!-- widgets/CostEstimationWidget.tsx&#45;&gt;common/StatusBadge.tsx -->
<g id="edge115" class="edge">
<title>widgets/CostEstimationWidget.tsx&#45;&gt;common/StatusBadge.tsx</title>
<path fill="none" stroke="#757575" d="M835.67,-1560.7C858.59,-1561.36 882.59,-1562.06 904.95,-1562.72"/>
<polygon fill="#757575" stroke="#757575" points="905,-1566.22 915.1,-1563.01 905.2,-1559.22 905,-1566.22"/>
</g>
<!-- widgets/CostEstimationWidget.tsx&#45;&gt;common/WidgetContainer.tsx -->
<g id="edge116" class="edge">
<title>widgets/CostEstimationWidget.tsx&#45;&gt;common/WidgetContainer.tsx</title>
<path fill="none" stroke="#757575" d="M835.82,-1547.52C845.23,-1544.87 854.42,-1541.57 863,-1537.5 882.61,-1528.19 879.68,-1514.39 899,-1504.5 903.54,-1502.18 908.32,-1500.11 913.23,-1498.27"/>
<polygon fill="#757575" stroke="#757575" points="914.46,-1501.55 922.8,-1495.01 912.2,-1494.93 914.46,-1501.55"/>
</g>
<!-- widgets/IntegrityImpactWidget.tsx&#45;&gt;../types/cia.tsx -->
<g id="edge121" class="edge">
<title>widgets/IntegrityImpactWidget.tsx&#45;&gt;../types/cia.tsx</title>
<path fill="none" stroke="#757575" d="M834.6,-1294.07C911.19,-1295.82 1015.49,-1292.31 1104,-1268.5 1315.91,-1211.49 1367.16,-1173.8 1543,-1042.5 1586.59,-1009.95 1628.42,-961.28 1650.11,-934.3"/>
<polygon fill="#757575" stroke="#757575" points="1652.95,-936.36 1656.43,-926.35 1647.47,-932.01 1652.95,-936.36"/>
</g>
<!-- widgets/IntegrityImpactWidget.tsx&#45;&gt;../constants/colorConstants.ts -->
<g id="edge117" class="edge">
<title>widgets/IntegrityImpactWidget.tsx&#45;&gt;../constants/colorConstants.ts</title>
<path fill="none" stroke="#757575" d="M784.2,-1275.94C812.09,-1267.43 843.58,-1252.93 863,-1228.5 918.92,-1158.14 850.19,-1104.97 899,-1029.5 933.12,-976.74 1311.29,-743.21 1417.44,-678.29"/>
<polygon fill="#757575" stroke="#757575" points="1419.31,-681.26 1426.02,-673.05 1415.66,-675.28 1419.31,-681.26"/>
</g>
<!-- widgets/IntegrityImpactWidget.tsx&#45;&gt;../constants/coreConstants.ts -->
<g id="edge118" class="edge">
<title>widgets/IntegrityImpactWidget.tsx&#45;&gt;../constants/coreConstants.ts</title>
<path fill="none" stroke="#757575" d="M805.03,-1275.98C838.33,-1271.13 877.24,-1265.46 911.54,-1260.46"/>
<polygon fill="#757575" stroke="#757575" points="912.16,-1263.91 921.55,-1259 911.15,-1256.98 912.16,-1263.91"/>
</g>
<!-- widgets/IntegrityImpactWidget.tsx&#45;&gt;../constants/testIds.ts -->
<g id="edge119" class="edge">
<title>widgets/IntegrityImpactWidget.tsx&#45;&gt;../constants/testIds.ts</title>
<path fill="none" stroke="#757575" d="M802.78,-1299.03C879.18,-1310.56 999.75,-1328.92 1104,-1345.5 1117.68,-1347.67 1132.21,-1350.03 1146.29,-1352.33"/>
<polygon fill="#757575" stroke="#757575" points="1146.01,-1355.83 1156.45,-1354 1147.15,-1348.93 1146.01,-1355.83"/>
</g>
<!-- widgets/IntegrityImpactWidget.tsx&#45;&gt;../services/ciaContentService.ts -->
<g id="edge120" class="edge">
<title>widgets/IntegrityImpactWidget.tsx&#45;&gt;../services/ciaContentService.ts</title>
<path fill="none" stroke="#757575" d="M775.16,-1275.99C803.83,-1267.13 838.97,-1252.26 863,-1228.5 891.02,-1200.8 876.41,-1179.78 899,-1147.5 921.29,-1115.65 954.96,-1085.62 977.33,-1067.4"/>
<polygon fill="#757575" stroke="#757575" points="979.68,-1070 985.3,-1061.01 975.31,-1064.53 979.68,-1070"/>
</g>
<!-- widgets/IntegrityImpactWidget.tsx&#45;&gt;common/KeyValuePair.tsx -->
<g id="edge122" class="edge">
<title>widgets/IntegrityImpactWidget.tsx&#45;&gt;common/KeyValuePair.tsx</title>
<path fill="none" stroke="#757575" d="M762.99,-1299.1C797.93,-1309.94 851.87,-1326.39 899,-1339.5 913.52,-1343.54 929.28,-1347.69 943.95,-1351.45"/>
<polygon fill="#757575" stroke="#757575" points="943.35,-1354.91 953.91,-1353.99 945.08,-1348.13 943.35,-1354.91"/>
</g>
<!-- widgets/IntegrityImpactWidget.tsx&#45;&gt;common/StatusBadge.tsx -->
<g id="edge123" class="edge">
<title>widgets/IntegrityImpactWidget.tsx&#45;&gt;common/StatusBadge.tsx</title>
<path fill="none" stroke="#757575" d="M804.54,-1299.07C826.34,-1305.97 848.1,-1316.97 863,-1334.5 924.62,-1406.98 832.6,-1477.38 899,-1545.5 901.38,-1547.94 903.97,-1550.13 906.72,-1552.1"/>
<polygon fill="#757575" stroke="#757575" points="905.04,-1555.17 915.41,-1557.32 908.64,-1549.17 905.04,-1555.17"/>
</g>
<!-- widgets/IntegrityImpactWidget.tsx&#45;&gt;common/WidgetContainer.tsx -->
<g id="edge124" class="edge">
<title>widgets/IntegrityImpactWidget.tsx&#45;&gt;common/WidgetContainer.tsx</title>
<path fill="none" stroke="#757575" d="M785.28,-1299.06C811,-1306.19 840.34,-1317.35 863,-1334.5 885.41,-1351.46 880.75,-1365.12 899,-1386.5 924.26,-1416.08 957.48,-1446.48 978.91,-1465.18"/>
<polygon fill="#757575" stroke="#757575" points="976.65,-1467.86 986.51,-1471.75 981.23,-1462.56 976.65,-1467.86"/>
</g>
<!-- widgets/SecurityLevelWidget.tsx&#45;&gt;../constants/appConstants.ts -->
<g id="edge125" class="edge">
<title>widgets/SecurityLevelWidget.tsx&#45;&gt;../constants/appConstants.ts</title>
<path fill="none" stroke="#757575" d="M491.49,-445.06C518.94,-451.78 554.82,-459.99 587,-465.5 615.5,-470.38 1083.54,-505.07 1104,-525.5 1152.45,-573.88 1111.75,-769.13 1140,-831.5 1187.39,-936.13 1259.2,-922.01 1313,-1023.5 1409.91,-1206.33 1437.25,-1462.04 1443.43,-1537.64"/>
<polygon fill="#757575" stroke="#757575" points="1439.96,-1538.12 1444.22,-1547.82 1446.94,-1537.58 1439.96,-1538.12"/>
</g>
<!-- widgets/SecurityLevelWidget.tsx&#45;&gt;../types/cia.tsx -->
<g id="edge129" class="edge">
<title>widgets/SecurityLevelWidget.tsx&#45;&gt;../types/cia.tsx</title>
<path fill="none" stroke="#757575" d="M455.33,-421.93C485.77,-382.06 584.61,-252.75 587,-251.5 775.36,-152.89 1394.53,-137.32 1543,-289.5 1629.71,-378.38 1658.56,-792.36 1664.34,-892.6"/>
<polygon fill="#757575" stroke="#757575" points="1660.85,-892.97 1664.9,-902.76 1667.84,-892.58 1660.85,-892.97"/>
</g>
<!-- widgets/SecurityLevelWidget.tsx&#45;&gt;../constants/colorConstants.ts -->
<g id="edge126" class="edge">
<title>widgets/SecurityLevelWidget.tsx&#45;&gt;../constants/colorConstants.ts</title>
<path fill="none" stroke="#757575" d="M455.5,-421.94C475.76,-396.94 527.84,-338.27 587,-315.5 737.63,-257.53 1193.1,-187.46 1313,-295.5 1370.26,-347.1 1297.61,-583.04 1349,-640.5 1350.03,-641.65 1351.11,-642.75 1352.23,-643.79"/>
<polygon fill="#757575" stroke="#757575" points="1350.14,-646.6 1360.2,-649.95 1354.42,-641.06 1350.14,-646.6"/>
</g>
<!-- widgets/SecurityLevelWidget.tsx&#45;&gt;../constants/testIds.ts -->
<g id="edge127" class="edge">
<title>widgets/SecurityLevelWidget.tsx&#45;&gt;../constants/testIds.ts</title>
<path fill="none" stroke="#757575" d="M459.77,-445.04C483.5,-464.99 535.58,-505.7 587,-525.5 804.04,-609.08 945.34,-436.44 1104,-606.5 1135.73,-640.5 1132.34,-977.63 1140,-1023.5 1160.57,-1146.62 1202.63,-1290.63 1218.88,-1344.1"/>
<polygon fill="#757575" stroke="#757575" points="1215.59,-1345.29 1221.86,-1353.83 1222.28,-1343.24 1215.59,-1345.29"/>
</g>
<!-- widgets/SecurityLevelWidget.tsx&#45;&gt;../hooks/useCIAOptions.ts -->
<g id="edge128" class="edge">
<title>widgets/SecurityLevelWidget.tsx&#45;&gt;../hooks/useCIAOptions.ts</title>
<path fill="none" stroke="#757575" d="M469.8,-421.92C497.23,-408.71 544.44,-387.3 587,-374.5 722.14,-333.84 758.49,-328.67 899,-315.5 989.71,-307 1012.89,-315.13 1104,-315.5 1112.34,-315.53 1121,-315.58 1129.68,-315.64"/>
<polygon fill="#757575" stroke="#757575" points="1129.85,-319.14 1139.87,-315.71 1129.9,-312.14 1129.85,-319.14"/>
</g>
<!-- widgets/SecurityLevelWidget.tsx&#45;&gt;../utils/widgetHelpers.tsx -->
<g id="edge130" class="edge">
<title>widgets/SecurityLevelWidget.tsx&#45;&gt;../utils/widgetHelpers.tsx</title>
<path fill="none" stroke="#757575" d="M551.39,-439.33C635.64,-444.18 756.98,-451.57 863,-459.5 878.19,-460.64 894.32,-461.95 909.98,-463.28"/>
<polygon fill="#757575" stroke="#757575" points="909.92,-466.79 920.19,-464.15 910.52,-459.81 909.92,-466.79"/>
</g>
<!-- SecurityLevelSelector.tsx -->
<g id="node32" class="node">
<title>SecurityLevelSelector.tsx</title>
<path fill="none" stroke="#c6c5fe" d="M800.83,-407C800.83,-407 649.17,-407 649.17,-407 645.33,-407 641.5,-403.17 641.5,-399.33 641.5,-399.33 641.5,-391.67 641.5,-391.67 641.5,-387.83 645.33,-384 649.17,-384 649.17,-384 800.83,-384 800.83,-384 804.67,-384 808.5,-387.83 808.5,-391.67 808.5,-391.67 808.5,-399.33 808.5,-399.33 808.5,-403.17 804.67,-407 800.83,-407"/>
<text text-anchor="middle" x="725" y="-391.8" font-family="Arial" font-size="14.00" fill="#c6c5fe">SecurityLevelSelector.tsx</text>
</g>
<!-- widgets/SecurityLevelWidget.tsx&#45;&gt;SecurityLevelSelector.tsx -->
<g id="edge131" class="edge">
<title>widgets/SecurityLevelWidget.tsx&#45;&gt;SecurityLevelSelector.tsx</title>
<path fill="none" stroke="#757575" d="M530.51,-422C562.32,-417.64 598.69,-412.66 631.25,-408.2"/>
<polygon fill="#757575" stroke="#757575" points="631.8,-411.66 641.23,-406.83 630.85,-404.72 631.8,-411.66"/>
</g>
<!-- widgets/SecurityLevelWidget.tsx&#45;&gt;common/WidgetContainer.tsx -->
<g id="edge132" class="edge">
<title>widgets/SecurityLevelWidget.tsx&#45;&gt;common/WidgetContainer.tsx</title>
<path fill="none" stroke="#757575" d="M447.4,-445.13C455.48,-548.39 517.02,-1306.05 587,-1375.5 674.94,-1462.76 754.7,-1354.34 863,-1414.5 884.79,-1426.6 877.91,-1444.21 899,-1457.5 906.02,-1461.93 913.77,-1465.6 921.76,-1468.65"/>
<polygon fill="#757575" stroke="#757575" points="920.62,-1471.96 931.21,-1471.95 922.93,-1465.35 920.62,-1471.96"/>
</g>
<!-- widgets/SecurityResourcesWidget.tsx&#45;&gt;../types/cia.tsx -->
<g id="edge135" class="edge">
<title>widgets/SecurityResourcesWidget.tsx&#45;&gt;../types/cia.tsx</title>
<path fill="none" stroke="#757575" d="M846.7,-1365.24C852.3,-1367.05 857.76,-1369.13 863,-1371.5 882.5,-1380.33 878.99,-1395.89 899,-1403.5 1033.26,-1454.54 1435.94,-1444.25 1543,-1348.5 1606.68,-1291.55 1650.81,-1016.3 1662.45,-936.33"/>
<polygon fill="#757575" stroke="#757575" points="1665.92,-936.78 1663.87,-926.38 1658.99,-935.79 1665.92,-936.78"/>
</g>
<!-- widgets/SecurityResourcesWidget.tsx&#45;&gt;../constants/testIds.ts -->
<g id="edge133" class="edge">
<title>widgets/SecurityResourcesWidget.tsx&#45;&gt;../constants/testIds.ts</title>
<path fill="none" stroke="#757575" d="M787.01,-1366.06C834.49,-1375.01 893.28,-1385.98 899,-1386.5 989.73,-1394.82 1013.22,-1394.29 1104,-1386.5 1122.54,-1384.91 1142.49,-1381.98 1160.76,-1378.8"/>
<polygon fill="#757575" stroke="#757575" points="1161.49,-1382.23 1170.72,-1377.02 1160.26,-1375.34 1161.49,-1382.23"/>
</g>
<!-- widgets/SecurityResourcesWidget.tsx&#45;&gt;../services/ciaContentService.ts -->
<g id="edge134" class="edge">
<title>widgets/SecurityResourcesWidget.tsx&#45;&gt;../services/ciaContentService.ts</title>
<path fill="none" stroke="#757575" d="M804.33,-1342.94C825.99,-1336.18 847.72,-1325.46 863,-1308.5 912.08,-1254.03 863.11,-1211.44 899,-1147.5 917.79,-1114.02 951.63,-1084.8 975.03,-1067.17"/>
<polygon fill="#757575" stroke="#757575" points="977.15,-1069.96 983.14,-1061.22 973.01,-1064.32 977.15,-1069.96"/>
</g>
<!-- widgets/SecurityResourcesWidget.tsx&#45;&gt;common/WidgetContainer.tsx -->
<g id="edge136" class="edge">
<title>widgets/SecurityResourcesWidget.tsx&#45;&gt;common/WidgetContainer.tsx</title>
<path fill="none" stroke="#757575" d="M837.68,-1366.11C846.75,-1369.84 855.35,-1374.56 863,-1380.5 892.83,-1403.68 869.91,-1433.39 899,-1457.5 903.87,-1461.54 909.29,-1464.96 915.02,-1467.85"/>
<polygon fill="#757575" stroke="#757575" points="913.69,-1471.09 924.25,-1471.99 916.56,-1464.71 913.69,-1471.09"/>
</g>
<!-- widgets/SecuritySummaryWidget.tsx&#45;&gt;../constants/appConstants.ts -->
<g id="edge137" class="edge">
<title>widgets/SecuritySummaryWidget.tsx&#45;&gt;../constants/appConstants.ts</title>
<path fill="none" stroke="#757575" d="M844.12,-1523.62C851.05,-1527.26 857.45,-1531.82 863,-1537.5 949.49,-1625.95 806.04,-1731.88 899,-1813.5 967.46,-1873.61 1017.52,-1842.17 1104,-1813.5 1248.7,-1765.53 1381.84,-1629.68 1427.91,-1578.93"/>
<polygon fill="#757575" stroke="#757575" points="1430.71,-1581.06 1434.79,-1571.28 1425.5,-1576.38 1430.71,-1581.06"/>
</g>
<!-- widgets/SecuritySummaryWidget.tsx&#45;&gt;../types/cia.tsx -->
<g id="edge141" class="edge">
<title>widgets/SecuritySummaryWidget.tsx&#45;&gt;../types/cia.tsx</title>
<path fill="none" stroke="#757575" d="M844.2,-1523.54C851.12,-1527.2 857.49,-1531.79 863,-1537.5 958.41,-1636.34 796.36,-1753.19 899,-1844.5 1039.34,-1969.35 1150.35,-1853.45 1313,-1759.5 1425.16,-1694.71 1475.77,-1691.22 1543,-1580.5 1611.74,-1467.29 1654.37,-1037.49 1663.6,-936.05"/>
<polygon fill="#757575" stroke="#757575" points="1667.09,-936.33 1664.5,-926.06 1660.12,-935.7 1667.09,-936.33"/>
</g>
<!-- widgets/SecuritySummaryWidget.tsx&#45;&gt;../constants/coreConstants.ts -->
<g id="edge138" class="edge">
<title>widgets/SecuritySummaryWidget.tsx&#45;&gt;../constants/coreConstants.ts</title>
<path fill="none" stroke="#757575" d="M844.08,-1509.28C850.93,-1505.9 857.32,-1501.69 863,-1496.5 913.91,-1449.94 864.81,-1405.42 899,-1345.5 918.03,-1312.15 951.81,-1282.9 975.14,-1265.23"/>
<polygon fill="#757575" stroke="#757575" points="977.26,-1268.02 983.22,-1259.26 973.1,-1262.39 977.26,-1268.02"/>
</g>
<!-- widgets/SecuritySummaryWidget.tsx&#45;&gt;../constants/testIds.ts -->
<g id="edge139" class="edge">
<title>widgets/SecuritySummaryWidget.tsx&#45;&gt;../constants/testIds.ts</title>
<path fill="none" stroke="#757575" d="M843.7,-1528.09C850.44,-1530.71 856.93,-1533.82 863,-1537.5 886.11,-1551.5 874.89,-1574.3 899,-1586.5 980.29,-1627.65 1025.58,-1632.88 1104,-1586.5 1179.01,-1542.14 1210.83,-1433.16 1221.27,-1386.86"/>
<polygon fill="#757575" stroke="#757575" points="1224.71,-1387.51 1223.38,-1377 1217.87,-1386.05 1224.71,-1387.51"/>
</g>
<!-- widgets/SecuritySummaryWidget.tsx&#45;&gt;../services/ciaContentService.ts -->
<g id="edge140" class="edge">
<title>widgets/SecuritySummaryWidget.tsx&#45;&gt;../services/ciaContentService.ts</title>
<path fill="none" stroke="#757575" d="M844.26,-1510.45C851.16,-1506.81 857.51,-1502.23 863,-1496.5 916.96,-1440.22 864.89,-1217.61 899,-1147.5 915.7,-1113.17 949.69,-1084.32 973.73,-1067"/>
<polygon fill="#757575" stroke="#757575" points="975.89,-1069.75 982.08,-1061.15 971.88,-1064.02 975.89,-1069.75"/>
</g>
<!-- widgets/SecuritySummaryWidget.tsx&#45;&gt;common/KeyValuePair.tsx -->
<g id="edge142" class="edge">
<title>widgets/SecuritySummaryWidget.tsx&#45;&gt;common/KeyValuePair.tsx</title>
<path fill="none" stroke="#757575" d="M841.58,-1504.98C848.99,-1502.62 856.19,-1499.81 863,-1496.5 866.6,-1494.75 943.85,-1420.28 980.95,-1384.42"/>
<polygon fill="#757575" stroke="#757575" points="983.46,-1386.86 988.22,-1377.39 978.6,-1381.83 983.46,-1386.86"/>
</g>
<!-- widgets/SecuritySummaryWidget.tsx&#45;&gt;common/StatusBadge.tsx -->
<g id="edge143" class="edge">
<title>widgets/SecuritySummaryWidget.tsx&#45;&gt;common/StatusBadge.tsx</title>
<path fill="none" stroke="#757575" d="M807.29,-1528.05C825.65,-1530.91 845.03,-1534.13 863,-1537.5 879.11,-1540.52 882.96,-1542.14 899,-1545.5 909.19,-1547.64 919.97,-1549.83 930.55,-1551.95"/>
<polygon fill="#757575" stroke="#757575" points="930.12,-1555.43 940.61,-1553.95 931.48,-1548.56 930.12,-1555.43"/>
</g>
<!-- widgets/SecuritySummaryWidget.tsx&#45;&gt;common/WidgetContainer.tsx -->
<g id="edge144" class="edge">
<title>widgets/SecuritySummaryWidget.tsx&#45;&gt;common/WidgetContainer.tsx</title>
<path fill="none" stroke="#757575" d="M822.01,-1504.96C845.41,-1502.14 870.58,-1499.12 894.42,-1496.25"/>
<polygon fill="#757575" stroke="#757575" points="895.04,-1499.7 904.55,-1495.04 894.2,-1492.75 895.04,-1499.7"/>
</g>
<!-- widgets/TechnicalDetailsWidget.tsx&#45;&gt;../types/cia.tsx -->
<g id="edge147" class="edge">
<title>widgets/TechnicalDetailsWidget.tsx&#45;&gt;../types/cia.tsx</title>
<path fill="none" stroke="#757575" d="M838.66,-94.4C1050.41,-84.06 1491.26,-68.35 1543,-113.5 1664.17,-219.24 1666.62,-775.02 1665.75,-892.63"/>
<polygon fill="#757575" stroke="#757575" points="1662.25,-892.85 1665.66,-902.88 1669.25,-892.92 1662.25,-892.85"/>
</g>
<!-- widgets/TechnicalDetailsWidget.tsx&#45;&gt;../constants/colorConstants.ts -->
<g id="edge145" class="edge">
<title>widgets/TechnicalDetailsWidget.tsx&#45;&gt;../constants/colorConstants.ts</title>
<path fill="none" stroke="#757575" d="M838.54,-109.23C991.09,-123.58 1251.56,-157.78 1313,-227.5 1373.91,-296.62 1288.17,-571.31 1349,-640.5 1349.89,-641.51 1350.81,-642.48 1351.77,-643.4"/>
<polygon fill="#757575" stroke="#757575" points="1349.7,-646.23 1359.7,-649.74 1354.07,-640.76 1349.7,-646.23"/>
</g>
<!-- widgets/TechnicalDetailsWidget.tsx&#45;&gt;../services/ciaContentService.ts -->
<g id="edge146" class="edge">
<title>widgets/TechnicalDetailsWidget.tsx&#45;&gt;../services/ciaContentService.ts</title>
<path fill="none" stroke="#757575" d="M733.65,-112.19C757.35,-148.98 829.88,-266.44 863,-374.5 898.86,-491.51 875.98,-527.3 899,-647.5 927.17,-794.59 976.59,-968.11 994.12,-1027.95"/>
<polygon fill="#757575" stroke="#757575" points="990.82,-1029.17 997,-1037.77 997.54,-1027.19 990.82,-1029.17"/>
</g>
<!-- widgets/ValueCreationWidget.tsx&#45;&gt;../constants/appConstants.ts -->
<g id="edge148" class="edge">
<title>widgets/ValueCreationWidget.tsx&#45;&gt;../constants/appConstants.ts</title>
<path fill="none" stroke="#757575" d="M832.79,-711.81C918.34,-711.89 1035.09,-727.11 1104,-799.5 1173.52,-872.53 1096.23,-932.66 1140,-1023.5 1189.57,-1126.39 1253.16,-1116.23 1313,-1213.5 1382.32,-1326.18 1425.49,-1481.28 1439.76,-1537.79"/>
<polygon fill="#757575" stroke="#757575" points="1436.42,-1538.87 1442.22,-1547.73 1443.21,-1537.19 1436.42,-1538.87"/>
</g>
<!-- widgets/ValueCreationWidget.tsx&#45;&gt;../types/cia.tsx -->
<g id="edge152" class="edge">
<title>widgets/ValueCreationWidget.tsx&#45;&gt;../types/cia.tsx</title>
<path fill="none" stroke="#757575" d="M832.57,-714.51C854.53,-713.67 877.51,-712.93 899,-712.5 990.09,-710.66 1013.8,-699.62 1104,-712.5 1305.19,-741.23 1356.9,-758.83 1543,-840.5 1578.71,-856.17 1616.68,-880.44 1640.71,-896.88"/>
<polygon fill="#757575" stroke="#757575" points="1638.99,-899.94 1649.21,-902.76 1642.98,-894.19 1638.99,-899.94"/>
</g>
<!-- widgets/ValueCreationWidget.tsx&#45;&gt;../constants/colorConstants.ts -->
<g id="edge149" class="edge">
<title>widgets/ValueCreationWidget.tsx&#45;&gt;../constants/colorConstants.ts</title>
<path fill="none" stroke="#757575" d="M745.29,-707.75C772.03,-691.36 821.72,-660.48 863,-632.5 879.34,-621.43 880.22,-612.57 899,-606.5 986.49,-578.21 1252.45,-623.85 1378.01,-648.02"/>
<polygon fill="#757575" stroke="#757575" points="1377.41,-651.47 1387.9,-649.93 1378.75,-644.59 1377.41,-651.47"/>
</g>
<!-- widgets/ValueCreationWidget.tsx&#45;&gt;../constants/testIds.ts -->
<g id="edge150" class="edge">
<title>widgets/ValueCreationWidget.tsx&#45;&gt;../constants/testIds.ts</title>
<path fill="none" stroke="#757575" d="M757.11,-731.06C831.15,-760.36 1018.07,-845.06 1104,-982.5 1159.08,-1070.6 1105.99,-1115.32 1140,-1213.5 1157.54,-1264.14 1191.7,-1317.41 1211.11,-1345.47"/>
<polygon fill="#757575" stroke="#757575" points="1208.47,-1347.81 1217.08,-1353.98 1214.2,-1343.79 1208.47,-1347.81"/>
</g>
<!-- widgets/ValueCreationWidget.tsx&#45;&gt;../services/ciaContentService.ts -->
<g id="edge151" class="edge">
<title>widgets/ValueCreationWidget.tsx&#45;&gt;../services/ciaContentService.ts</title>
<path fill="none" stroke="#757575" d="M735.77,-731.24C776.54,-780.26 933.38,-968.81 984.38,-1030.12"/>
<polygon fill="#757575" stroke="#757575" points="981.76,-1032.45 990.85,-1037.9 987.14,-1027.97 981.76,-1032.45"/>
</g>
<!-- widgets/ValueCreationWidget.tsx&#45;&gt;../types/widgets.tsx -->
<g id="edge153" class="edge">
<title>widgets/ValueCreationWidget.tsx&#45;&gt;../types/widgets.tsx</title>
<path fill="none" stroke="#757575" d="M796.92,-707.92C818.89,-702.64 842.65,-695.11 863,-684.5 881.72,-674.74 880.28,-663.27 899,-653.5 907.77,-648.93 917.39,-645.12 927.11,-641.97"/>
<polygon fill="#757575" stroke="#757575" points="928.28,-645.27 936.83,-639.02 926.25,-638.57 928.28,-645.27"/>
</g>
<!-- widgets/ValueCreationWidget.tsx&#45;&gt;../utils/widgetHelpers.tsx -->
<g id="edge154" class="edge">
<title>widgets/ValueCreationWidget.tsx&#45;&gt;../utils/widgetHelpers.tsx</title>
<path fill="none" stroke="#757575" d="M751.15,-707.96C780.62,-693.5 829.63,-666.47 863,-632.5 884.53,-610.59 880.04,-597.67 899,-573.5 923.89,-541.78 957.74,-509.52 979.35,-490"/>
<polygon fill="#757575" stroke="#757575" points="981.87,-492.45 987,-483.18 977.21,-487.23 981.87,-492.45"/>
</g>
<!-- widgets/ValueCreationWidget.tsx&#45;&gt;common/KeyValuePair.tsx -->
<g id="edge155" class="edge">
<title>widgets/ValueCreationWidget.tsx&#45;&gt;common/KeyValuePair.tsx</title>
<path fill="none" stroke="#757575" d="M732.54,-731.18C754.72,-771.3 827.61,-907.74 863,-1029.5 892.98,-1132.65 849.51,-1173.16 899,-1268.5 916.5,-1302.22 950.32,-1330.83 974.09,-1348.06"/>
<polygon fill="#757575" stroke="#757575" points="972.16,-1350.98 982.35,-1353.88 976.19,-1345.26 972.16,-1350.98"/>
</g>
<!-- widgets/ValueCreationWidget.tsx&#45;&gt;common/ValueDisplay.tsx -->
<g id="edge156" class="edge">
<title>widgets/ValueCreationWidget.tsx&#45;&gt;common/ValueDisplay.tsx</title>
<path fill="none" stroke="#757575" d="M730.06,-731.22C746.37,-777.39 810.58,-950 899,-1070.5 921.89,-1101.69 955.41,-1131.49 977.58,-1149.64"/>
<polygon fill="#757575" stroke="#757575" points="975.5,-1152.45 985.48,-1156 979.89,-1147 975.5,-1152.45"/>
</g>
<!-- Dashboard.tsx -->
<g id="node30" class="node">
<title>Dashboard.tsx</title>
<path fill="none" stroke="#c6c5fe" d="M96.33,-737C96.33,-737 7.67,-737 7.67,-737 3.83,-737 0,-733.17 0,-729.33 0,-729.33 0,-721.67 0,-721.67 0,-717.83 3.83,-714 7.67,-714 7.67,-714 96.33,-714 96.33,-714 100.17,-714 104,-717.83 104,-721.67 104,-721.67 104,-729.33 104,-729.33 104,-733.17 100.17,-737 96.33,-737"/>
<text text-anchor="middle" x="52" y="-721.8" font-family="Arial" font-size="14.00" fill="#c6c5fe">Dashboard.tsx</text>
</g>
<!-- Dashboard.tsx&#45;&gt;../constants/appConstants.ts -->
<g id="edge41" class="edge">
<title>Dashboard.tsx&#45;&gt;../constants/appConstants.ts</title>
<path fill="none" stroke="#757575" d="M53.3,-737.19C56.43,-857.8 84.41,-1873.77 140,-1994.5 219.32,-2166.79 254.83,-2293.5 444.5,-2293.5 444.5,-2293.5 444.5,-2293.5 726,-2293.5 1012.43,-2293.5 1126.27,-2244.69 1313,-2027.5 1431.06,-1890.17 1443.95,-1654.37 1445.03,-1581.56"/>
<polygon fill="#757575" stroke="#757575" points="1448.53,-1581.34 1445.11,-1571.31 1441.53,-1581.28 1448.53,-1581.34"/>
</g>
<!-- Dashboard.tsx&#45;&gt;../types/cia.tsx -->
<g id="edge45" class="edge">
<title>Dashboard.tsx&#45;&gt;../types/cia.tsx</title>
<path fill="none" stroke="#757575" d="M52.78,-713.83C51.55,-635.36 48.58,-184.95 140,-93.5 236.59,3.11 307.89,-51.5 444.5,-51.5 444.5,-51.5 444.5,-51.5 1227.5,-51.5 1368.35,-51.5 1440.88,15.52 1543,-81.5 1664.4,-196.83 1666.62,-772.92 1665.75,-892.68"/>
<polygon fill="#757575" stroke="#757575" points="1662.25,-892.78 1665.66,-902.81 1669.25,-892.84 1662.25,-892.78"/>
</g>
<!-- Dashboard.tsx&#45;&gt;../constants/testIds.ts -->
<g id="edge42" class="edge">
<title>Dashboard.tsx&#45;&gt;../constants/testIds.ts</title>
<path fill="none" stroke="#757575" d="M54.18,-737.26C66.87,-860.64 182.82,-1913.5 444.5,-1913.5 444.5,-1913.5 444.5,-1913.5 726,-1913.5 904.69,-1913.5 981.51,-1906.61 1104,-1776.5 1212.24,-1661.53 1224.52,-1454.73 1225.55,-1387.36"/>
<polygon fill="#757575" stroke="#757575" points="1229.05,-1387.14 1225.63,-1377.11 1222.05,-1387.08 1229.05,-1387.14"/>
</g>
<!-- Dashboard.tsx&#45;&gt;../hooks/useCIAOptions.ts -->
<g id="edge43" class="edge">
<title>Dashboard.tsx&#45;&gt;../hooks/useCIAOptions.ts</title>
<path fill="none" stroke="#757575" d="M55.52,-713.62C72.76,-635.92 180.55,-203.5 444.5,-203.5 444.5,-203.5 444.5,-203.5 726,-203.5 901.36,-203.5 1103,-270.57 1186.34,-301.37"/>
<polygon fill="#757575" stroke="#757575" points="1185.31,-304.72 1195.91,-304.94 1187.76,-298.16 1185.31,-304.72"/>
</g>
<!-- Dashboard.tsx&#45;&gt;../styles/gridStyles.ts -->
<g id="edge44" class="edge">
<title>Dashboard.tsx&#45;&gt;../styles/gridStyles.ts</title>
<path fill="none" stroke="#757575" d="M52.83,-713.79C51.85,-631.99 49.91,-145.99 140,-37.5 142.95,-33.95 146.38,-30.88 150.13,-28.23"/>
<polygon fill="#757575" stroke="#757575" points="152.01,-31.18 158.81,-23.06 148.43,-25.17 152.01,-31.18"/>
</g>
<!-- Dashboard.tsx&#45;&gt;../utils/widgetRegistry.tsx -->
<g id="edge46" class="edge">
<title>Dashboard.tsx&#45;&gt;../utils/widgetRegistry.tsx</title>
<path fill="none" stroke="#757575" d="M56.59,-737.05C77.74,-805.18 186.28,-1154.7 214.36,-1245.12"/>
<polygon fill="#757575" stroke="#757575" points="211.07,-1246.32 217.38,-1254.83 217.75,-1244.24 211.07,-1246.32"/>
</g>
<!-- Dashboard.tsx&#45;&gt;widgets/TechnicalDetailsWidget.tsx -->
<g id="edge48" class="edge">
<title>Dashboard.tsx&#45;&gt;widgets/TechnicalDetailsWidget.tsx</title>
<path fill="none" stroke="#757575" d="M53.17,-713.88C54.43,-642.92 64.64,-268.42 140,-189.5 275.2,-47.92 533.47,-67.99 656.11,-87.36"/>
<polygon fill="#757575" stroke="#757575" points="655.7,-90.84 666.13,-88.99 656.82,-83.93 655.7,-90.84"/>
</g>
<!-- common/WidgetHeader.tsx -->
<g id="node31" class="node">
<title>common/WidgetHeader.tsx</title>
<path fill="none" stroke="#c6c5fe" d="M528.33,-2078C528.33,-2078 362.67,-2078 362.67,-2078 358.83,-2078 355,-2074.17 355,-2070.33 355,-2070.33 355,-2062.67 355,-2062.67 355,-2058.83 358.83,-2055 362.67,-2055 362.67,-2055 528.33,-2055 528.33,-2055 532.17,-2055 536,-2058.83 536,-2062.67 536,-2062.67 536,-2070.33 536,-2070.33 536,-2074.17 532.17,-2078 528.33,-2078"/>
<text text-anchor="middle" x="445.5" y="-2062.8" font-family="Arial" font-size="14.00" fill="#c6c5fe">common/WidgetHeader.tsx</text>
</g>
<!-- Dashboard.tsx&#45;&gt;common/WidgetHeader.tsx -->
<g id="edge47" class="edge">
<title>Dashboard.tsx&#45;&gt;common/WidgetHeader.tsx</title>
<path fill="none" stroke="#757575" d="M53.13,-737.05C54.52,-854.14 68.2,-1824.2 140,-1927.5 190.92,-2000.76 290.28,-2036.14 361.67,-2052.73"/>
<polygon fill="#757575" stroke="#757575" points="361.03,-2056.17 371.55,-2054.95 362.56,-2049.34 361.03,-2056.17"/>
</g>
<!-- common/WidgetHeader.tsx&#45;&gt;../constants/appConstants.ts -->
<g id="edge65" class="edge">
<title>common/WidgetHeader.tsx&#45;&gt;../constants/appConstants.ts</title>
<path fill="none" stroke="#757575" d="M496.66,-2078.05C642.83,-2108.51 1073.22,-2175.02 1313,-1965.5 1431.96,-1861.56 1444.33,-1649.27 1445.14,-1581.09"/>
<polygon fill="#757575" stroke="#757575" points="1448.64,-1581.11 1445.19,-1571.09 1441.64,-1581.08 1448.64,-1581.11"/>
</g>
<!-- SecurityLevelSelector.tsx&#45;&gt;../constants/appConstants.ts -->
<g id="edge50" class="edge">
<title>SecurityLevelSelector.tsx&#45;&gt;../constants/appConstants.ts</title>
<path fill="none" stroke="#757575" d="M784.61,-383.99C861.81,-371.76 999.93,-360.16 1104,-408.5 1229.57,-466.83 1254.16,-514.18 1313,-639.5 1352.65,-723.94 1428.38,-1406.59 1442.65,-1537.75"/>
<polygon fill="#757575" stroke="#757575" points="1439.18,-1538.22 1443.74,-1547.78 1446.14,-1537.46 1439.18,-1538.22"/>
</g>
<!-- SecurityLevelSelector.tsx&#45;&gt;../types/cia.tsx -->
<g id="edge54" class="edge">
<title>SecurityLevelSelector.tsx&#45;&gt;../types/cia.tsx</title>
<path fill="none" stroke="#757575" d="M771.51,-383.99C909.66,-352.05 1327.88,-278.01 1543,-490.5 1659.18,-605.26 1666.82,-822.83 1666.12,-892.47"/>
<polygon fill="#757575" stroke="#757575" points="1662.62,-892.62 1665.94,-902.68 1669.61,-892.75 1662.62,-892.62"/>
</g>
<!-- SecurityLevelSelector.tsx&#45;&gt;../constants/testIds.ts -->
<g id="edge51" class="edge">
<title>SecurityLevelSelector.tsx&#45;&gt;../constants/testIds.ts</title>
<path fill="none" stroke="#757575" d="M808.56,-402.25C913.49,-411.63 1083.55,-429.8 1104,-450.5 1120.34,-467.05 1207.01,-1206.49 1222.97,-1343.71"/>
<polygon fill="#757575" stroke="#757575" points="1219.52,-1344.3 1224.15,-1353.83 1226.47,-1343.49 1219.52,-1344.3"/>
</g>
<!-- SecurityLevelSelector.tsx&#45;&gt;../hooks/useCIAOptions.ts -->
<g id="edge52" class="edge">
<title>SecurityLevelSelector.tsx&#45;&gt;../hooks/useCIAOptions.ts</title>
<path fill="none" stroke="#757575" d="M755.78,-383.93C789.85,-371.24 847.55,-351.37 899,-341.5 975.71,-326.79 1064.13,-320.67 1129.59,-318.15"/>
<polygon fill="#757575" stroke="#757575" points="1130.03,-321.64 1139.9,-317.78 1129.78,-314.64 1130.03,-321.64"/>
</g>
<!-- SecurityLevelSelector.tsx&#45;&gt;../services/ciaContentService.ts -->
<g id="edge53" class="edge">
<title>SecurityLevelSelector.tsx&#45;&gt;../services/ciaContentService.ts</title>
<path fill="none" stroke="#757575" d="M736.09,-407.04C761.01,-436.07 826.1,-515.27 863,-591.5 939.76,-750.06 983.74,-960.42 996.54,-1027.78"/>
<polygon fill="#757575" stroke="#757575" points="993.11,-1028.48 998.39,-1037.67 999.99,-1027.19 993.11,-1028.48"/>
</g>
<!-- SecurityLevelSelector.tsx&#45;&gt;../utils/widgetHelpers.tsx -->
<g id="edge55" class="edge">
<title>SecurityLevelSelector.tsx&#45;&gt;../utils/widgetHelpers.tsx</title>
<path fill="none" stroke="#757575" d="M808.68,-405.67C826.97,-409.42 845.97,-414.54 863,-421.5 880.8,-428.77 881.44,-437.67 899,-445.5 909.28,-450.08 920.52,-453.97 931.66,-457.23"/>
<polygon fill="#757575" stroke="#757575" points="930.82,-460.63 941.39,-459.93 932.69,-453.88 930.82,-460.63"/>
</g>
<!-- SecurityLevelSelector.tsx&#45;&gt;common/KeyValuePair.tsx -->
<g id="edge56" class="edge">
<title>SecurityLevelSelector.tsx&#45;&gt;common/KeyValuePair.tsx</title>
<path fill="none" stroke="#757575" d="M738.07,-407.4C766.18,-436.01 835.7,-512.21 863,-591.5 912.04,-733.95 836.11,-1131.6 899,-1268.5 914.77,-1302.82 948.64,-1331.14 972.92,-1348.14"/>
<polygon fill="#757575" stroke="#757575" points="971.14,-1351.16 981.38,-1353.88 975.07,-1345.37 971.14,-1351.16"/>
</g>
<!-- common/KeyValuePair.tsx&#45;&gt;../constants/testIds.ts -->
<g id="edge58" class="edge">
<title>common/KeyValuePair.tsx&#45;&gt;../constants/testIds.ts</title>
<path fill="none" stroke="#757575" d="M1089.04,-1365.5C1107.34,-1365.5 1126.59,-1365.5 1144.67,-1365.5"/>
<polygon fill="#757575" stroke="#757575" points="1144.87,-1369 1154.87,-1365.5 1144.87,-1362 1144.87,-1369"/>
</g>
<!-- Selection.tsx -->
<g id="node34" class="node">
<title>Selection.tsx</title>
<path fill="none" stroke="#c6c5fe" d="M1040.33,-1536C1040.33,-1536 962.67,-1536 962.67,-1536 958.83,-1536 955,-1532.17 955,-1528.33 955,-1528.33 955,-1520.67 955,-1520.67 955,-1516.83 958.83,-1513 962.67,-1513 962.67,-1513 1040.33,-1513 1040.33,-1513 1044.17,-1513 1048,-1516.83 1048,-1520.67 1048,-1520.67 1048,-1528.33 1048,-1528.33 1048,-1532.17 1044.17,-1536 1040.33,-1536"/>
<text text-anchor="middle" x="1001.5" y="-1520.8" font-family="Arial" font-size="14.00" fill="#c6c5fe">Selection.tsx</text>
</g>
<!-- Selection.tsx&#45;&gt;../constants/testIds.ts -->
<g id="edge57" class="edge">
<title>Selection.tsx&#45;&gt;../constants/testIds.ts</title>
<path fill="none" stroke="#757575" d="M1048.21,-1525.37C1067.5,-1523.44 1088.92,-1517.95 1104,-1504.5 1143.33,-1469.41 1102.48,-1428.52 1140,-1391.5 1143.77,-1387.78 1148.05,-1384.59 1152.64,-1381.86"/>
<polygon fill="#757575" stroke="#757575" points="1154.52,-1384.83 1161.81,-1377.14 1151.31,-1378.6 1154.52,-1384.83"/>
</g>
<!-- common/MetricsCard.tsx&#45;&gt;../constants/testIds.ts -->
<g id="edge59" class="edge">
<title>common/MetricsCard.tsx&#45;&gt;../constants/testIds.ts</title>
<path fill="none" stroke="#757575" d="M1084.47,-1633.97C1091.78,-1630.28 1098.49,-1625.55 1104,-1619.5 1173.05,-1543.63 1072.66,-1468.89 1140,-1391.5 1143.06,-1387.98 1146.58,-1384.93 1150.41,-1382.29"/>
<polygon fill="#757575" stroke="#757575" points="1152.38,-1385.19 1159.24,-1377.12 1148.84,-1379.15 1152.38,-1385.19"/>
</g>
<!-- common/StatusBadge.tsx&#45;&gt;../constants/testIds.ts -->
<g id="edge60" class="edge">
<title>common/StatusBadge.tsx&#45;&gt;../constants/testIds.ts</title>
<path fill="none" stroke="#757575" d="M1087.76,-1556.77C1093.7,-1553.82 1099.22,-1550.12 1104,-1545.5 1154.57,-1496.68 1091.95,-1442.8 1140,-1391.5 1143.4,-1387.87 1147.29,-1384.74 1151.49,-1382.04"/>
<polygon fill="#757575" stroke="#757575" points="1153.42,-1384.98 1160.5,-1377.1 1150.05,-1378.84 1153.42,-1384.98"/>
</g>
<!-- common/ValueDisplay.tsx&#45;&gt;../constants/testIds.ts -->
<g id="edge61" class="edge">
<title>common/ValueDisplay.tsx&#45;&gt;../constants/testIds.ts</title>
<path fill="none" stroke="#757575" d="M1075.99,-1179.09C1085.97,-1182.67 1095.64,-1187.37 1104,-1193.5 1128.46,-1211.45 1122.88,-1226.45 1140,-1251.5 1163.17,-1285.4 1192.23,-1323.26 1209.81,-1345.7"/>
<polygon fill="#757575" stroke="#757575" points="1207.23,-1348.08 1216.16,-1353.77 1212.73,-1343.75 1207.23,-1348.08"/>
</g>
<!-- common/WidgetBase.tsx -->
<g id="node38" class="node">
<title>common/WidgetBase.tsx</title>
<path fill="none" stroke="#c6c5fe" d="M801.33,-624C801.33,-624 648.67,-624 648.67,-624 644.83,-624 641,-620.17 641,-616.33 641,-616.33 641,-608.67 641,-608.67 641,-604.83 644.83,-601 648.67,-601 648.67,-601 801.33,-601 801.33,-601 805.17,-601 809,-604.83 809,-608.67 809,-608.67 809,-616.33 809,-616.33 809,-620.17 805.17,-624 801.33,-624"/>
<text text-anchor="middle" x="725" y="-608.8" font-family="Arial" font-size="14.00" fill="#c6c5fe">common/WidgetBase.tsx</text>
</g>
<!-- common/WidgetBase.tsx&#45;&gt;../types/widgets.tsx -->
<g id="edge62" class="edge">
<title>common/WidgetBase.tsx&#45;&gt;../types/widgets.tsx</title>
<path fill="none" stroke="#757575" d="M809.1,-617.04C846.32,-619.07 889.85,-621.45 926,-623.43"/>
<polygon fill="#757575" stroke="#757575" points="925.81,-626.92 935.98,-623.97 926.19,-619.93 925.81,-626.92"/>
</g>
<!-- common/WidgetBase.tsx&#45;&gt;../utils/widgetHelpers.tsx -->
<g id="edge63" class="edge">
<title>common/WidgetBase.tsx&#45;&gt;../utils/widgetHelpers.tsx</title>
<path fill="none" stroke="#757575" d="M748.46,-600.96C797.24,-575.91 912.97,-516.46 969.01,-487.68"/>
<polygon fill="#757575" stroke="#757575" points="970.82,-490.68 978.11,-483 967.62,-484.46 970.82,-490.68"/>
</g>
<!-- common/WidgetContainer.tsx&#45;&gt;../constants/testIds.ts -->
<g id="edge64" class="edge">
<title>common/WidgetContainer.tsx&#45;&gt;../constants/testIds.ts</title>
<path fill="none" stroke="#757575" d="M1022.33,-1471.79C1043.07,-1459.36 1076.37,-1438.88 1104,-1419.5 1120.59,-1407.86 1122,-1400.83 1140,-1391.5 1148.38,-1387.16 1157.61,-1383.41 1166.81,-1380.22"/>
<polygon fill="#757575" stroke="#757575" points="1167.94,-1383.53 1176.35,-1377.09 1165.76,-1376.88 1167.94,-1383.53"/>
</g>
</g>
</svg>
